<svg xmlns="http://www.w3.org/2000/svg" width="112" height="40" viewBox="0 0 112 40">
  <path d="M1098.382,3218.12034 C1097.77674,3217.50674 1097.47133,3217.30363 1097.047,3217.2325 C1096.74439,3217.18178 1096.38561,3217.03976 1096.24967,3216.9169 C1096.11374,3216.79404 1095.87972,3216.62769 1095.72966,3216.54724 C1095.57961,3216.46678 1095.26416,3216.06604 1095.02872,3215.6567 C1094.79326,3215.24736 1094.46526,3214.7324 1094.2998,3214.51235 C1093.81716,3213.87044 1093.68521,3213.56624 1093.80764,3213.37766 C1093.95044,3213.15766 1094.52929,3213.41046 1094.52929,3213.69283 C1094.52929,3213.79313 1094.6235,3213.94964 1094.73865,3214.04062 C1094.8538,3214.13161 1095.17904,3214.59937 1095.46139,3215.08011 C1095.98413,3215.97002 1096.65128,3216.52213 1097.41881,3216.69998 C1097.63465,3216.74999 1097.81122,3216.84385 1097.81122,3216.90855 C1097.81122,3216.97325 1098.00379,3217.12099 1098.23912,3217.23686 C1098.80625,3217.51607 1099.98155,3218.64332 1099.87565,3218.80646 C1099.66951,3219.12401 1099.1256,3218.87416 1098.382,3218.12034 Z M1044.6044,3221.1103 C1044.56654,3221.0061 1044.50512,3220.64802 1044.46793,3220.31457 C1044.38279,3219.55094 1044.08289,3218.75289 1043.70558,3218.28584 C1043.32068,3217.8094 1043.31191,3217.05474 1043.69129,3217.05884 C1044.23035,3217.06466 1045.52963,3220.40305 1045.25695,3221.08166 C1045.14922,3221.34972 1044.6986,3221.3695 1044.6044,3221.1103 Z M1098.59831,3221.92972 C1098.24583,3221.7085 1097.84185,3221.5275 1097.70057,3221.5275 C1097.44273,3221.5275 1096.30358,3220.84424 1095.81663,3220.39751 C1095.56821,3220.16964 1095.59828,3219.88235 1095.87049,3219.88235 C1095.94088,3219.88235 1096.4921,3220.15941 1097.09541,3220.49805 C1097.69873,3220.83668 1098.39911,3221.21303 1098.65178,3221.33439 C1099.17309,3221.58474 1099.54944,3222.05303 1099.36361,3222.22007 C1099.29517,3222.2816 1098.95079,3222.15094 1098.59831,3221.92972 Z M1087.18133,3224.15506 C1085.90831,3222.65488 1086.04898,3222.72476 1084.03727,3222.59332 C1083.33783,3222.54761 1082.66184,3222.45507 1082.53504,3222.38766 C1082.40822,3222.32026 1082.20334,3222.26511 1082.07969,3222.26511 C1081.89465,3222.26511 1080.79206,3221.83854 1079.20672,3221.15365 C1079.05617,3221.0886 1078.779,3221.01728 1078.59079,3220.99516 C1078.13176,3220.94122 1078.11095,3220.42296 1078.5652,3220.35809 C1078.95944,3220.3018 1080.15202,3220.71669 1080.75498,3221.1199 C1081.27486,3221.46753 1082.5007,3221.85398 1083.30844,3221.92488 C1085.36034,3222.10497 1085.75557,3222.16132 1086.15315,3222.33048 C1086.3979,3222.43461 1086.69053,3222.65541 1086.80345,3222.82115 C1086.91637,3222.98689 1087.28595,3223.39545 1087.62471,3223.72907 C1088.13326,3224.22985 1088.20485,3224.35916 1088.03535,3224.47051 C1087.717,3224.67965 1087.58515,3224.63094 1087.18133,3224.15506 Z M1042.94501,3224.59982 C1042.66638,3224.34528 1042.39541,3224.01328 1042.34285,3223.86204 C1042.29032,3223.7108 1042.18571,3223.58706 1042.11039,3223.58706 C1042.03507,3223.58706 1041.97345,3223.52684 1041.97345,3223.45323 C1041.97345,3223.37962 1041.74193,3223.02501 1041.45896,3222.6652 C1041.03368,3222.12441 1040.97953,3221.98444 1041.14668,3221.85772 C1041.25787,3221.77341 1041.43982,3221.74025 1041.55103,3221.78403 C1041.77044,3221.87042 1042.70762,3222.9877 1042.70762,3223.16289 C1042.70762,3223.22198 1042.97193,3223.59395 1043.295,3223.98949 C1043.61804,3224.38503 1043.88235,3224.7883 1043.88235,3224.88564 C1043.88235,3225.20124 1043.46357,3225.07354 1042.94501,3224.59982 Z M1084.28283,3226.8042 C1084.28283,3226.72406 1084.14131,3226.65809 1083.96835,3226.6576 C1083.79536,3226.65706 1083.47368,3226.55876 1083.25349,3226.43905 C1083.03331,3226.31934 1082.77256,3226.22139 1082.67409,3226.22139 C1082.51519,3226.22139 1081.19336,3225.67299 1080.01972,3225.12015 C1079.74651,3224.99146 1079.19858,3224.93721 1078.44724,3224.96446 C1077.41631,3225.00185 1077.29412,3224.97859 1077.29412,3224.74475 C1077.29412,3223.93763 1079.72985,3223.89877 1080.64869,3224.69122 C1080.764,3224.79068 1080.93699,3224.84236 1081.03307,3224.80607 C1081.12918,3224.76978 1081.20778,3224.79796 1081.20778,3224.86866 C1081.20778,3224.93938 1081.44367,3225.08521 1081.73197,3225.19274 C1082.02024,3225.30027 1082.28888,3225.44057 1082.32898,3225.50452 C1082.36905,3225.56847 1082.56376,3225.65141 1082.76165,3225.68881 C1083.18441,3225.76872 1084.57065,3226.35784 1084.77087,3226.54268 C1084.86015,3226.62509 1084.83528,3226.71954 1084.701,3226.80804 C1084.42966,3226.98686 1084.28283,3226.98551 1084.28283,3226.80421 L1084.28283,3226.8042 Z M1101.76307,3229.27334 C1101.61297,3229.2391 1101.3464,3229.11561 1101.17072,3228.99894 C1100.99505,3228.88226 1100.85132,3228.83861 1100.85132,3228.90194 C1100.85132,3228.96527 1100.77606,3228.94079 1100.68407,3228.84755 C1100.59207,3228.75431 1100.22421,3228.67801 1099.86659,3228.67801 C1099.46082,3228.67801 1099.0914,3228.58354 1098.88399,3228.42671 C1098.3154,3227.99682 1096.7653,3227.28872 1096.206,3227.20337 C1095.91248,3227.15858 1095.53615,3227.04517 1095.36974,3226.95135 C1095.20331,3226.85753 1095.03577,3226.77318 1094.99745,3226.76392 C1094.69177,3226.69003 1094.16121,3226.37463 1093.81273,3226.05962 C1093.58277,3225.85173 1093.24668,3225.62366 1093.06586,3225.55278 C1092.78815,3225.44393 1092.76491,3225.38998 1092.91616,3225.20526 C1093.1319,3224.94175 1093.68139,3225.04494 1094.09149,3225.42599 C1094.24482,3225.56844 1094.6525,3225.82315 1094.99745,3225.992 C1095.3424,3226.16085 1095.73358,3226.35747 1095.86668,3226.42892 C1095.99979,3226.50037 1096.3206,3226.55883 1096.57962,3226.55883 C1096.84796,3226.55883 1097.21167,3226.68731 1097.4251,3226.8575 C1097.63113,3227.02176 1097.8357,3227.11966 1097.8797,3227.07505 C1097.97293,3226.98055 1098.72203,3227.34439 1099.06934,3227.65285 C1099.20078,3227.7696 1099.63982,3227.94918 1100.04498,3228.05192 C1101.88555,3228.51865 1102.17564,3228.62877 1102.22315,3228.87881 C1102.28464,3229.20245 1102.10976,3229.35243 1101.76307,3229.27334 Z M1083.71297,3230.52754 C1083.41223,3230.41425 1083.02584,3230.2201 1082.85432,3230.09609 C1082.68285,3229.97209 1082.39267,3229.83074 1082.20953,3229.78198 C1081.81702,3229.6775 1080.99331,3228.79345 1081.06298,3228.55146 C1081.16172,3228.20863 1081.5061,3228.31358 1082.00064,3228.83724 C1082.28061,3229.13366 1082.61829,3229.37619 1082.75104,3229.37619 C1082.88379,3229.37619 1083.12897,3229.43612 1083.29586,3229.50936 C1084.16057,3229.88887 1084.67392,3230.01123 1085.38489,3230.00729 C1086.22537,3230.00264 1086.37188,3230.089 1086.13046,3230.44678 C1085.92573,3230.75023 1084.43624,3230.79999 1083.71297,3230.52754 Z M1079.76897,3230.97723 C1079.5006,3230.86679 1078.78612,3230.49762 1078.18124,3230.15684 C1077.57637,3229.81605 1077.00576,3229.53723 1076.91322,3229.53723 C1076.68661,3229.53723 1076.23504,3228.98311 1076.38163,3228.88493 C1076.67637,3228.6875 1077.45452,3228.96097 1078.93107,3229.7809 C1079.92166,3230.33097 1080.55078,3230.77138 1080.57951,3230.93489 C1080.63389,3231.24436 1080.44249,3231.25436 1079.76897,3230.97723 Z M1042.09382,3214.81239 C1042.33256,3214.5395 1042.50015,3214.28405 1042.46622,3214.24472 C1042.36926,3214.13227 1040.82835,3215.05979 1040.82835,3215.23062 C1040.82835,3215.31474 1040.73465,3215.38356 1040.62014,3215.38356 C1040.34057,3215.38356 1040.02223,3215.84839 1040.14457,3216.07792 C1040.26536,3216.30453 1041.476,3215.51853 1042.09382,3214.81239 Z M1037.8315,3218.13408 C1038.06456,3217.94899 1038.35664,3217.63135 1038.48056,3217.42819 L1038.70588,3217.05882 L1038.3003,3217.32287 C1037.9052,3217.58006 1037.14456,3218.47059 1037.31996,3218.47059 C1037.36824,3218.47059 1037.59846,3218.31916 1037.8315,3218.13408 Z M1039.74597,3218.57439 C1039.95056,3218.37637 1040.11779,3218.13956 1040.11765,3218.04816 C1040.11751,3217.94567 1039.99963,3218.00936 1039.8102,3218.21434 C1039.64129,3218.39714 1039.41662,3218.63394 1039.31099,3218.74057 C1038.95826,3219.09656 1039.36845,3218.93986 1039.74597,3218.57439 Z M1035.95787,3219.64003 C1036.5739,3219.43718 1036.73991,3219.29745 1036.80263,3218.92908 C1036.84557,3218.67691 1036.82013,3218.47059 1036.7465,3218.47059 C1036.57138,3218.47059 1035.03844,3219.5696 1034.95912,3219.75205 C1034.87233,3219.95157 1035.0838,3219.92785 1035.95787,3219.64003 Z M1035.65907,3220.2629 C1035.84127,3220.0536 1035.93008,3219.88235 1035.85646,3219.88235 C1035.78282,3219.88235 1035.72256,3219.93784 1035.72256,3220.00567 C1035.72256,3220.07349 1035.60836,3220.12983 1035.46878,3220.13086 C1035.13084,3220.13338 1034.99692,3220.25531 1034.95268,3220.60073 C1034.9214,3220.84492 1034.94646,3220.86939 1035.12187,3220.76548 C1035.23512,3220.69837 1035.47686,3220.4722 1035.65907,3220.2629 Z M1032.38965,3221.56953 C1032.88003,3221.3814 1033.19668,3221.00653 1032.99932,3220.84776 C1032.91434,3220.77939 1032.83118,3220.82527 1032.01596,3221.39013 C1031.40817,3221.81129 1031.5642,3221.8862 1032.38965,3221.56953 Z M1029.67586,3224.23193 C1029.53873,3224.06301 1029.37484,3224.08379 1029.31172,3224.27811 C1029.24857,3224.47241 1029.36078,3224.61062 1029.5611,3224.58523 C1029.78242,3224.55709 1029.82743,3224.41861 1029.67586,3224.23195 L1029.67586,3224.23193 Z M1028.06241,3224.88915 C1028.36825,3224.78253 1028.66018,3224.69053 1028.71116,3224.6847 C1028.92866,3224.65983 1028.99144,3224.42765 1028.78066,3224.42765 C1028.65323,3224.42765 1028.54896,3224.32925 1028.54896,3224.20897 C1028.54896,3224.00012 1028.75081,3223.84869 1029.52208,3223.47894 C1029.81125,3223.34033 1029.83096,3223.29366 1029.63945,3223.20117 C1029.50947,3223.13841 1029.29761,3223.19905 1029.15288,3223.34014 C1029.01187,3223.47771 1028.52586,3223.92655 1028.07286,3224.33756 C1027.19369,3225.1352 1027.19262,3225.19237 1028.06239,3224.88915 L1028.06241,3224.88915 Z M1030.70588,3225.18337 C1030.70588,3225.11487 1030.59998,3225.05882 1030.47057,3225.05882 C1030.34116,3225.05882 1030.23529,3225.19342 1030.23529,3225.35793 C1030.23529,3225.52243 1030.34116,3225.57848 1030.47057,3225.48248 C1030.59998,3225.38647 1030.70588,3225.25187 1030.70588,3225.18337 Z M1028.80765,3225.09224 C1028.75009,3225.00623 1028.59931,3225.09207 1028.47253,3225.28301 C1028.28936,3225.55894 1028.31081,3225.59103 1028.57714,3225.43941 C1028.76145,3225.33449 1028.86517,3225.17827 1028.80765,3225.09224 Z M1033.68635,3225.3895 C1033.65194,3225.31254 1033.67317,3225.20732 1033.73372,3225.15567 C1033.79417,3225.10403 1033.89719,3224.91335 1033.96263,3224.73196 C1034.04383,3224.50689 1033.99347,3224.54535 1033.80402,3224.85305 C1033.50194,3225.34369 1033.45519,3225.52941 1033.63375,3225.52941 C1033.6971,3225.52941 1033.72076,3225.46645 1033.68635,3225.3895 Z M1029.63412,3225.90661 C1029.73157,3225.74456 1029.78663,3225.58194 1029.75642,3225.54523 C1029.66612,3225.43543 1028.78827,3225.92207 1028.50572,3226.23856 C1028.2563,3226.51799 1028.27366,3226.52448 1028.84998,3226.36705 C1029.18381,3226.27586 1029.53666,3226.06866 1029.63412,3225.90661 Z M1033.91413,3226.79641 C1033.99251,3226.71116 1034.02284,3226.58327 1033.98151,3226.51222 C1033.94021,3226.44116 1033.87607,3226.46333 1033.83901,3226.56148 C1033.80195,3226.65964 1033.70622,3226.78275 1033.62629,3226.83508 C1033.49712,3226.91964 1033.49712,3226.93139 1033.62629,3226.94081 C1033.70622,3226.94663 1033.83575,3226.88166 1033.91413,3226.79641 Z M1033.13909,3228.22512 C1033.39061,3227.87716 1033.56365,3227.54302 1033.52367,3227.48258 C1033.4018,3227.2985 1032.64103,3227.50103 1032.43497,3227.77241 C1032.28646,3227.968 1032.04449,3228.02863 1031.39745,3228.03239 C1030.59218,3228.03707 1030.57054,3228.04629 1030.92417,3228.2339 C1031.12794,3228.34203 1031.39912,3228.40155 1031.52675,3228.36615 C1031.65439,3228.33075 1031.88784,3228.42318 1032.0455,3228.57156 C1032.4721,3228.97295 1032.63605,3228.92102 1033.13909,3228.22512 Z M1020.57797,3228.89483 C1020.84026,3228.75997 1021.17667,3228.64963 1021.32554,3228.64963 C1021.47441,3228.64963 1022.13627,3228.48855 1022.79632,3228.29167 C1023.69191,3228.02452 1023.99641,3227.87685 1023.99641,3227.7096 C1023.99641,3227.40399 1024.2046,3227.30356 1025.07233,3227.1906 C1025.48003,3227.13752 1025.85368,3227.03191 1025.90266,3226.9559 C1025.95162,3226.87989 1026.35738,3226.67207 1026.80435,3226.49407 C1027.4362,3226.24245 1027.54103,3226.16477 1027.27546,3226.14494 C1026.65289,3226.09845 1026.61222,3226.09107 1026.5266,3226.00895 C1026.43439,3225.92047 1025.06727,3226.51304 1024.9485,3226.69296 C1024.86615,3226.81774 1023.39705,3227.48143 1023.11544,3227.52108 C1023.01394,3227.53538 1022.84788,3227.60891 1022.74639,3227.68452 C1022.45682,3227.90017 1021.39271,3228.3351 1020.71733,3228.51383 C1020.00697,3228.70182 1018.94118,3229.14611 1018.94118,3229.25423 C1018.94118,3229.3943 1020.10249,3229.13931 1020.57797,3228.89483 Z M1010.12896,3231.08713 C1009.89803,3230.85737 1009.98873,3230.60114 1010.30939,3230.57748 C1010.48063,3230.56485 1010.77641,3230.54434 1010.96668,3230.5319 C1011.73329,3230.48178 1011.83906,3230.45941 1011.74594,3230.36714 C1011.54406,3230.16714 1012.99782,3229.76212 1014.38489,3229.63192 C1015.17793,3229.55747 1016.08759,3229.40273 1016.40637,3229.28804 C1016.72516,3229.17335 1017.25352,3228.99506 1017.58051,3228.89183 C1017.90747,3228.78861 1018.26267,3228.63207 1018.36982,3228.54398 C1018.64349,3228.31896 1019.57422,3227.8586 1019.75546,3227.8586 C1019.83854,3227.8586 1020.15229,3227.682 1020.45267,3227.46616 C1020.75308,3227.25032 1021.15451,3227.04173 1021.34477,3227.00264 C1022.72849,3226.71831 1024.04499,3226.05536 1025.18619,3225.06821 C1025.69908,3224.62456 1026.53385,3224.062 1027.04127,3223.81807 C1027.54867,3223.57415 1028.29347,3223.13422 1028.69637,3222.84046 C1029.09927,3222.5467 1029.65773,3222.15212 1029.93737,3221.96362 C1031.61095,3220.83548 1032.08549,3220.49908 1032.30643,3220.28423 C1032.44211,3220.15228 1032.63558,3220.04432 1032.73637,3220.04432 C1032.9351,3220.04432 1033.54611,3219.44765 1034.56136,3218.26212 C1035.56952,3217.08489 1036.277,3216.46376 1037.39797,3215.77174 C1038.39693,3215.15502 1038.82115,3214.8428 1039.55579,3214.18361 C1039.74487,3214.01396 1039.95394,3213.87515 1040.02037,3213.87515 C1040.15923,3213.87515 1041.15047,3213.02664 1041.66196,3212.46995 C1041.85248,3212.2626 1042.09342,3212.09295 1042.19738,3212.09295 C1042.30135,3212.09295 1042.42226,3212.00041 1042.46608,3211.88731 C1042.50989,3211.77421 1042.60958,3211.68167 1042.68765,3211.68167 C1043.02046,3211.68167 1043.37096,3211.06629 1043.29688,3210.61203 C1043.23551,3210.23576 1043.27426,3210.14003 1043.52684,3210.04518 C1043.69655,3209.98142 1043.89927,3209.98564 1043.98608,3210.05472 C1044.07157,3210.12274 1044.2437,3210.13955 1044.36855,3210.09208 C1044.72693,3209.95582 1045.81191,3211.0649 1045.73092,3211.4847 C1045.65489,3211.87877 1046.05578,3212.67737 1046.79441,3213.60313 C1047.09291,3213.97728 1047.53187,3214.60797 1047.76986,3215.00466 C1048.00783,3215.40134 1048.66649,3216.46621 1049.23356,3217.37102 C1050.56109,3219.48928 1050.62772,3219.64305 1050.31598,3219.86888 C1049.75641,3220.27426 1049.05295,3219.8311 1048.74469,3218.87904 C1048.64702,3218.57743 1048.48334,3218.23813 1048.38092,3218.12503 C1047.69152,3217.3637 1047.49759,3217.10321 1047.49759,3216.93847 C1047.49759,3216.8357 1047.31078,3216.55794 1047.08247,3216.32124 C1046.85415,3216.08454 1046.66734,3215.8328 1046.66734,3215.76182 C1046.66734,3215.60473 1046.09857,3215.12001 1045.9063,3215.11324 C1045.83019,3215.11054 1045.58731,3214.7414 1045.3666,3214.29289 C1044.979,3213.50524 1044.70461,3213.24148 1044.44085,3213.40298 C1044.37163,3213.44537 1044.31498,3213.54342 1044.31498,3213.62085 C1044.31498,3213.69829 1044.12448,3213.95684 1043.89165,3214.19541 C1042.26458,3215.86253 1041.4091,3216.83177 1041.4091,3217.00808 C1041.4091,3217.07122 1041.28457,3217.23454 1041.13237,3217.37101 C1040.98015,3217.50749 1040.8556,3217.6695 1040.8556,3217.73104 C1040.8556,3217.85162 1039.15831,3220.36796 1038.80982,3220.76406 C1038.69371,3220.89601 1038.6395,3221.00397 1038.68936,3221.00397 C1038.7392,3221.00397 1038.67106,3221.11796 1038.53785,3221.25727 C1038.40466,3221.39659 1038.17114,3221.68455 1038.01891,3221.89718 C1037.86671,3222.10982 1037.47393,3222.56648 1037.14605,3222.91199 C1036.57303,3223.5158 1035.81036,3224.67152 1035.38746,3225.57695 C1035.27674,3225.81395 1034.97224,3226.28546 1034.71076,3226.62477 C1034.44929,3226.96407 1034.12753,3227.58099 1033.99577,3227.99569 C1033.86397,3228.4104 1033.61073,3228.89034 1033.43299,3229.06223 C1033.25525,3229.23413 1033.07291,3229.54259 1033.02781,3229.7477 C1032.85828,3230.51834 1032.65408,3230.86415 1032.29939,3230.98128 C1031.98968,3231.08356 1031.90887,3231.05144 1031.75982,3230.7668 C1031.51357,3230.29657 1031.54063,3230.08498 1031.86933,3229.9107 C1032.08285,3229.79749 1032.14348,3229.6504 1032.11149,3229.32324 C1032.07271,3228.92673 1032.01817,3228.88026 1031.51532,3228.81541 C1030.62421,3228.70048 1026.53939,3228.93968 1025.3174,3229.17835 C1024.89267,3229.2613 1024.50576,3229.03362 1024.61076,3228.76252 C1024.64756,3228.6675 1024.56604,3228.57433 1024.42957,3228.55546 C1023.91848,3228.48482 1022.6673,3228.55697 1022.59553,3228.66136 C1022.49405,3228.80879 1022.04564,3228.97667 1021.59436,3229.03617 C1021.38914,3229.06323 1020.52647,3229.31371 1019.67732,3229.5928 C1018.43317,3230.00171 1018.08392,3230.06962 1017.8785,3229.94253 C1017.68183,3229.82084 1017.49034,3229.83142 1017.04,3229.98883 C1016.71901,3230.10104 1016.37316,3230.26126 1016.27146,3230.34489 C1016.16975,3230.42851 1016.08655,3230.45489 1016.08655,3230.40351 C1016.08655,3230.35212 1016.00871,3230.35826 1015.91359,3230.41713 C1015.66373,3230.57176 1015.48164,3230.59989 1013.90672,3230.72712 C1013.12641,3230.79015 1012.41032,3230.90514 1012.3154,3230.98264 C1012.08775,3231.16854 1010.29681,3231.25412 1010.12896,3231.08712 L1010.12896,3231.08713 Z M1070.9804,3197.38984 C1071.08823,3197.27704 1071.17647,3197.07716 1071.17647,3196.94567 C1071.17647,3196.7448 1071.0846,3196.77749 1070.60131,3197.15033 C1070.28499,3197.39438 1069.96735,3197.59406 1069.89544,3197.59406 C1069.82353,3197.59406 1069.76471,3197.64471 1069.76471,3197.70663 C1069.76471,3197.88263 1070.75633,3197.62423 1070.9804,3197.38984 Z M1070.05147,3197.64065 C1070.0131,3197.57242 1070.0515,3197.48922 1070.13682,3197.45576 C1070.22214,3197.4223 1070.2592,3197.35567 1070.21915,3197.3077 C1070.17912,3197.25973 1070.04546,3197.34293 1069.92215,3197.49259 C1069.71484,3197.74421 1069.71388,3197.76471 1069.90968,3197.76471 C1070.02612,3197.76471 1070.08994,3197.70888 1070.05154,3197.64065 L1070.05147,3197.64065 Z M1069.14654,3199.41177 C1069.26667,3199.28235 1069.32551,3199.17647 1069.27724,3199.17647 C1069.229,3199.17647 1069.09121,3199.28235 1068.97108,3199.41177 C1068.85098,3199.54118 1068.79214,3199.64706 1068.84041,3199.64706 C1068.88865,3199.64706 1069.02641,3199.54118 1069.14654,3199.41177 Z M1070.15964,3198.75627 C1070.21971,3198.46973 1070.25042,3198.23529 1070.22791,3198.23529 C1070.14218,3198.23529 1069.5084,3199.54284 1069.59208,3199.54704 C1069.64049,3199.54945 1069.59411,3199.61809 1069.48711,3199.69952 C1069.38096,3199.78095 1069.29412,3199.93693 1069.29412,3200.04614 C1069.29412,3200.41107 1070.04839,3199.28698 1070.15964,3198.75627 Z M1068.20537,3200.82353 C1068.3255,3200.69412 1068.38431,3200.58824 1068.33607,3200.58824 C1068.28783,3200.58824 1068.15004,3200.69412 1068.02991,3200.82353 C1067.90978,3200.95294 1067.85097,3201.05882 1067.89924,3201.05882 C1067.94748,3201.05882 1068.08524,3200.95294 1068.20537,3200.82353 Z M1067.06769,3201.06679 C1067.31725,3200.80636 1067.6829,3200.29385 1067.8802,3199.92787 C1068.23035,3199.27834 1068.51838,3199.08952 1068.63481,3199.43321 C1068.67036,3199.53817 1068.73011,3199.50789 1068.78989,3199.35463 C1068.848,3199.20555 1068.82961,3199.14027 1068.74409,3199.19227 C1068.66544,3199.24011 1068.60107,3199.14734 1068.60107,3198.98612 C1068.60107,3198.35708 1068.17115,3198.76042 1067.023,3200.46657 C1066.26855,3201.5877 1066.29017,3201.87808 1067.06769,3201.06679 Z M1067.67221,3202.663 C1067.99433,3202.25118 1068.35005,3201.83758 1068.46273,3201.74389 C1068.75196,3201.50338 1068.93588,3201.05882 1068.74613,3201.05882 C1068.6587,3201.05882 1068.41135,3201.2922 1068.19648,3201.57743 C1067.98162,3201.86266 1067.71287,3202.17956 1067.59933,3202.28165 C1067.15246,3202.68332 1066.77622,3203.41176 1067.01564,3203.41176 C1067.05465,3203.41176 1067.35013,3203.07482 1067.67221,3202.663 Z M1065.45265,3203.66657 C1065.61628,3203.53766 1065.75015,3203.35179 1065.75015,3203.25352 C1065.75015,3203.15524 1065.80506,3203.0536 1065.87213,3203.02763 C1065.93925,3203.00168 1066.12185,3202.77999 1066.27795,3202.53502 C1066.52492,3202.14739 1066.53015,3202.07906 1066.31816,3202.00825 C1066.14211,3201.94943 1065.9164,3202.20041 1065.50368,3202.91391 C1064.92551,3203.91337 1064.91347,3204.0914 1065.45265,3203.66657 Z M1067.59401,3204.20171 C1067.59664,3204.14865 1067.69809,3204.00394 1067.8214,3203.88013 C1068.41478,3203.2844 1069.01555,3202.43529 1069.14765,3202.00568 L1069.29412,3201.52941 L1068.88335,3201.8204 C1068.65741,3201.98044 1068.469,3202.1638 1068.46466,3202.22787 C1068.46045,3202.29194 1068.29555,3202.5341 1068.0986,3202.76599 C1067.90162,3202.99789 1067.74045,3203.27831 1067.74045,3203.38916 C1067.74045,3203.5 1067.62763,3203.6945 1067.48974,3203.82137 C1066.98416,3204.28661 1066.87805,3204.46334 1066.97211,3204.68348 C1067.05848,3204.88559 1067.09476,3204.87745 1067.32952,3204.6033 C1067.47325,3204.43549 1067.59225,3204.25478 1067.59401,3204.20171 Z M1064.86817,3204.17011 C1064.99851,3203.81073 1065.08178,3203.47892 1065.0532,3203.43276 C1065.02464,3203.38659 1065.00126,3203.41915 1065.00126,3203.50512 C1065.00126,3203.59109 1064.95111,3203.74629 1064.88982,3203.85002 C1064.77222,3204.04904 1064.5395,3204.82353 1064.59731,3204.82353 C1064.61593,3204.82353 1064.73783,3204.52949 1064.86817,3204.17011 Z M1066,3204.94808 C1066,3204.87958 1065.89414,3204.82353 1065.76473,3204.82353 C1065.63532,3204.82353 1065.52941,3204.95813 1065.52941,3205.12263 C1065.52941,3205.28714 1065.63532,3205.34319 1065.76473,3205.24718 C1065.89414,3205.15118 1066,3205.01658 1066,3204.94808 Z M1065.78048,3206.03006 C1065.83955,3205.91718 1065.92179,3205.68507 1065.96321,3205.51427 C1066.02814,3205.24655 1066.01435,3205.23336 1065.86333,3205.41867 C1065.63199,3205.7025 1065.44173,3206.23529 1065.57167,3206.23529 C1065.62744,3206.23529 1065.72139,3206.14294 1065.78048,3206.03006 Z M1065.52194,3206.4146 C1065.55175,3206.26273 1065.49278,3206.20903 1065.338,3206.24707 C1065.21269,3206.27786 1065.09044,3206.40364 1065.0663,3206.52657 C1065.03648,3206.67844 1065.09546,3206.73215 1065.25024,3206.69411 C1065.37553,3206.66332 1065.4978,3206.53754 1065.52194,3206.4146 Z M1063.28673,3206.7945 C1063.81697,3206.25478 1064.15184,3205.70724 1064.15184,3205.38007 C1064.15184,3205.22145 1064.24759,3205.09749 1064.37005,3205.09749 C1064.49006,3205.09749 1064.58824,3205.02981 1064.58824,3204.94708 C1064.58824,3204.61203 1064.19472,3204.96342 1063.47571,3205.94054 C1063.05826,3206.5078 1062.71236,3207.01878 1062.70699,3207.07605 C1062.68775,3207.28004 1062.92095,3207.16686 1063.28673,3206.7945 Z M1089.05882,3207.7716 C1089.05882,3207.7031 1088.95295,3207.64706 1088.82357,3207.64706 C1088.69415,3207.64706 1088.58824,3207.78165 1088.58824,3207.94616 C1088.58824,3208.11067 1088.69415,3208.16672 1088.82357,3208.07071 C1088.95295,3207.97471 1089.05882,3207.84011 1089.05882,3207.7716 Z M1064.7139,3207.96004 C1065.13663,3207.2901 1065.15659,3207.17647 1064.85139,3207.17647 C1064.65831,3207.17647 1063.64706,3208.32723 1063.64706,3208.54695 C1063.64706,3208.58765 1063.80619,3208.60047 1064.0007,3208.57543 C1064.21814,3208.54743 1064.49278,3208.31048 1064.7139,3207.96004 Z M1065.47459,3210.39815 C1065.58918,3210.35369 1065.68296,3210.2011 1065.68296,3210.05908 C1065.68296,3209.91705 1065.81634,3209.66143 1065.97936,3209.49103 C1066.14239,3209.32063 1066.29142,3209.11103 1066.31056,3209.02524 C1066.32968,3208.93945 1066.48367,3208.64699 1066.65272,3208.37533 C1066.82179,3208.10366 1067.00424,3207.64161 1067.0582,3207.34855 C1067.11213,3207.05548 1067.24822,3206.63587 1067.3606,3206.41607 C1067.47299,3206.19627 1067.62408,3205.89883 1067.6964,3205.7551 C1067.76872,3205.61136 1067.96305,3205.2367 1068.12825,3204.92253 C1068.29345,3204.60835 1068.38885,3204.35204 1068.34026,3204.35294 C1068.23262,3204.3549 1067.65094,3205.22432 1067.44998,3205.68346 C1067.36982,3205.86665 1067.2062,3206.09879 1067.08641,3206.19931 C1066.96662,3206.29984 1066.86861,3206.49464 1066.86861,3206.6322 C1066.86861,3206.76976 1066.81623,3206.88231 1066.75223,3206.88231 C1066.68824,3206.88231 1066.59942,3206.98721 1066.55483,3207.11543 C1066.51029,3207.24365 1066.26711,3207.70822 1066.01447,3208.14782 C1065.76181,3208.58741 1065.49264,3209.17188 1065.41633,3209.44663 C1065.34002,3209.72138 1065.22428,3209.94617 1065.1591,3209.94617 C1065.09394,3209.94617 1065.04954,3210.06606 1065.06048,3210.21259 C1065.08177,3210.49708 1065.14569,3210.52577 1065.47459,3210.39816 L1065.47459,3210.39815 Z M1086.95826,3209.96213 C1086.91387,3209.92331 1087.06775,3209.718 1087.30024,3209.50588 C1087.90437,3208.95473 1087.67208,3208.89702 1086.96735,3209.42317 C1086.13907,3210.04158 1085.57391,3210.78772 1085.8247,3210.93176 C1086.02159,3211.04486 1087.12103,3210.1044 1086.95826,3209.96213 Z M1063.27949,3210.8892 C1063.69512,3210.47322 1064.20203,3209.66147 1064.10574,3209.56607 C1063.89936,3209.36154 1063.00731,3210.05049 1062.64003,3210.69807 L1062.23529,3211.41176 L1062.61597,3211.29203 C1062.82537,3211.22617 1063.12395,3211.0449 1063.27949,3210.8892 Z M1060.77026,3211.60586 C1060.87344,3211.44398 1060.82296,3211.37096 1060.65155,3211.43469 C1060.48735,3211.49581 1060.35294,3211.62286 1060.35294,3211.71701 C1060.35294,3211.97868 1060.56945,3211.92102 1060.77026,3211.60586 Z M1059.75676,3211.12171 C1059.75676,3211.01924 1059.81254,3210.93541 1059.88068,3210.93541 C1060.03601,3210.93541 1060.50356,3210.26517 1060.50356,3210.04253 C1060.50356,3209.95148 1060.59156,3209.84473 1060.69915,3209.80531 C1060.8067,3209.76588 1060.8536,3209.67009 1060.80335,3209.59245 C1060.67711,3209.39733 1060.35283,3209.67155 1060.09765,3210.18918 C1059.98602,3210.41571 1059.76311,3210.79695 1059.60236,3211.03639 C1059.36873,3211.38437 1059.35489,3211.4553 1059.53341,3211.38987 C1059.65626,3211.34485 1059.75676,3211.22417 1059.75676,3211.12171 Z M1064.70109,3211.69714 C1065.01063,3211.09793 1065.14672,3210.78739 1064.99913,3211.01698 C1064.96254,3211.07395 1064.83733,3211.08796 1064.72097,3211.04811 C1064.54459,3210.98772 1064.11765,3211.82899 1064.11765,3212.23694 C1064.11765,3212.52545 1064.41554,3212.2498 1064.70109,3211.69714 Z M1084.79338,3212.00504 C1084.90693,3211.78111 1084.67646,3211.88545 1084.48891,3212.14287 C1084.30303,3212.39804 1084.30323,3212.39887 1084.51736,3212.26199 C1084.63594,3212.18618 1084.76016,3212.07055 1084.79338,3212.00504 Z M1063.03493,3212.38689 C1063.30866,3211.76363 1063.14995,3211.69444 1062.85978,3212.31053 C1062.72687,3212.59268 1062.66877,3212.82353 1062.73066,3212.82353 C1062.79256,3212.82353 1062.92947,3212.62704 1063.03493,3212.38689 Z M1062.16292,3212.40211 C1062.24476,3212.21904 1062.41541,3211.90585 1062.54207,3211.70613 C1062.7667,3211.35197 1062.76577,3211.34771 1062.50541,3211.53328 C1062.17543,3211.76846 1061.56277,3212.9326 1061.83074,3212.81524 C1061.93157,3212.77109 1062.08104,3212.58518 1062.16292,3212.40211 Z M1062.22939,3213.344 C1062.16233,3213.17237 1061.76471,3213.48096 1061.76471,3213.70463 C1061.76471,3213.79504 1061.87539,3213.78217 1062.02495,3213.67437 C1062.16808,3213.57121 1062.26008,3213.42254 1062.22939,3213.34399 L1062.22939,3213.344 Z M1058.94118,3214.47059 C1058.94118,3214.34118 1058.86541,3214.23529 1058.7728,3214.23529 C1058.6802,3214.23529 1058.55557,3214.34118 1058.49587,3214.47059 C1058.42976,3214.61391 1058.49587,3214.70588 1058.66424,3214.70588 C1058.81658,3214.70588 1058.94118,3214.6 1058.94118,3214.47059 Z M1089.37006,3214.63022 C1089.45769,3214.62951 1089.52941,3214.54176 1089.52941,3214.43526 C1089.52941,3214.17438 1088.88756,3214.16654 1088.67515,3214.42482 C1088.49153,3214.64812 1088.60577,3214.75499 1088.95246,3214.68424 C1089.09449,3214.65526 1089.28239,3214.63095 1089.37006,3214.63022 Z M1063.04564,3214.50582 C1063.35982,3214.68505 1063.82692,3213.2212 1063.57541,3212.84556 C1063.42869,3212.62646 1062.68208,3214.10272 1062.70647,3214.56368 C1062.71506,3214.73091 1062.7512,3214.75131 1062.80794,3214.62135 C1062.85625,3214.51079 1062.9632,3214.45879 1063.04564,3214.50582 Z M1084.88885,3215.10413 C1085.02977,3215.05477 1085.08498,3214.8981 1085.03894,3214.67828 C1084.98513,3214.42119 1084.86611,3214.33052 1084.5825,3214.33052 C1083.9996,3214.33052 1084.22763,3214.00699 1084.98099,3213.76517 C1085.45947,3213.61159 1085.66171,3213.45812 1085.7292,3213.19737 C1085.7801,3213.00085 1085.93481,3212.71977 1086.07302,3212.57277 C1086.31148,3212.3191 1086.30448,3212.31118 1085.93547,3212.41725 C1085.15244,3212.64233 1084.49299,3212.74516 1084.28958,3212.67391 C1084.17491,3212.63375 1083.91172,3212.7677 1083.70468,3212.9716 C1083.33704,3213.33368 1083.33441,3213.35328 1083.59132,3213.81325 C1083.73601,3214.07226 1084.00768,3214.43441 1084.1951,3214.61802 C1084.38249,3214.80163 1084.53583,3215.00368 1084.53583,3215.06703 C1084.53583,3215.20294 1084.59039,3215.20868 1084.88885,3215.10413 Z M1062.70588,3215.88235 C1062.70588,3215.75294 1062.67643,3215.64706 1062.6401,3215.64706 C1062.60389,3215.64706 1062.47661,3215.75294 1062.35729,3215.88235 C1062.17956,3216.07506 1062.19147,3216.11765 1062.42308,3216.11765 C1062.57863,3216.11765 1062.70588,3216.01176 1062.70588,3215.88235 Z M1076.86557,3215.66006 C1076.30101,3215.17215 1076.05121,3215.07225 1075.90544,3215.27609 C1075.77209,3215.46256 1076.23943,3215.88312 1076.71768,3216.00704 C1077.45482,3216.19804 1077.46379,3216.17703 1076.86557,3215.66006 Z M1086.37579,3215.85882 C1086.65689,3215.69052 1086.88403,3215.37661 1087.02508,3214.96139 C1087.29375,3214.17069 1087.21288,3214.04628 1086.71768,3214.48851 C1086.49064,3214.69127 1086.2233,3214.79458 1086.06232,3214.74178 C1085.77539,3214.64769 1085.29412,3214.93309 1085.29412,3215.19733 C1085.29412,3215.3379 1085.81173,3216.11765 1085.90504,3216.11765 C1085.92607,3216.11765 1086.13802,3216.00117 1086.37579,3215.85882 Z M1058.47059,3216.35295 C1058.47059,3216.22353 1058.36472,3216.11765 1058.23529,3216.11765 C1058.10587,3216.11765 1058,3216.22353 1058,3216.35295 C1058,3216.48236 1058.10587,3216.58824 1058.23529,3216.58824 C1058.36472,3216.58824 1058.47059,3216.48236 1058.47059,3216.35295 Z M1061.27771,3216.43448 C1061.31611,3216.34405 1061.38398,3216.30285 1061.42853,3216.34292 C1061.47308,3216.38298 1061.58219,3216.3464 1061.67099,3216.2616 C1061.80764,3216.13113 1061.79927,3216.07061 1061.61664,3215.86786 C1061.33304,3215.553 1061.26511,3215.56409 1060.98551,3215.97091 C1060.79543,3216.24751 1060.77938,3216.34055 1060.90215,3216.45373 C1061.1025,3216.63841 1061.19306,3216.63377 1061.27771,3216.43448 Z M1089.05882,3216.35294 C1089.05882,3216.22353 1088.92423,3216.11765 1088.7597,3216.11765 C1088.59523,3216.11765 1088.53916,3216.22353 1088.63517,3216.35294 C1088.73118,3216.48235 1088.86577,3216.58824 1088.93424,3216.58824 C1089.00275,3216.58824 1089.05882,3216.48235 1089.05882,3216.35294 Z M1057.50896,3216.66972 C1057.55939,3216.56061 1057.51852,3216.56103 1057.36449,3216.67126 C1057.24634,3216.75584 1057.11799,3216.89358 1057.07928,3216.97734 C1057.02884,3217.08645 1057.06973,3217.08603 1057.22376,3216.9758 C1057.34192,3216.89122 1057.47027,3216.75349 1057.50896,3216.66973 L1057.50896,3216.66972 Z M1060.90618,3216.9246 C1061.43176,3216.7372 1061.42211,3216.58824 1060.88447,3216.58824 C1060.64987,3216.58824 1060.45793,3216.61085 1060.45793,3216.63849 C1060.45793,3216.66613 1060.42465,3216.77428 1060.38399,3216.87883 C1060.29522,3217.10684 1060.37548,3217.11387 1060.90627,3216.9246 L1060.90618,3216.9246 Z M1087.0604,3216.95369 C1087.12197,3216.88963 1087.31137,3216.86559 1087.4813,3216.90026 C1087.86445,3216.97844 1088.18905,3216.74412 1088.10397,3216.45078 C1088.06884,3216.32977 1088.03412,3216.19769 1088.0268,3216.15729 C1088.00793,3216.05388 1087.33065,3216.16224 1086.67978,3216.37276 C1086.14582,3216.54547 1086.13805,3216.55837 1086.41864,3216.80694 C1086.74001,3217.09163 1086.89395,3217.12683 1087.0604,3216.95369 Z M1057.05882,3217.29412 C1057.05882,3217.16471 1056.95291,3217.05882 1056.82353,3217.05882 C1056.69411,3217.05882 1056.58824,3217.16471 1056.58824,3217.29412 C1056.58824,3217.42353 1056.69411,3217.52941 1056.82353,3217.52941 C1056.95291,3217.52941 1057.05882,3217.42353 1057.05882,3217.29412 Z M1057.03769,3217.76471 C1057.0988,3217.6353 1057.02283,3217.52941 1056.86853,3217.52941 C1056.71437,3217.52941 1056.58824,3217.6353 1056.58824,3217.76471 C1056.58824,3217.89412 1056.66438,3218 1056.75739,3218 C1056.85047,3218 1056.9766,3217.89412 1057.03769,3217.76471 Z M1075.41176,3217.74904 C1075.41176,3217.60807 1075.29265,3217.51062 1075.14708,3217.53248 C1075.00151,3217.55436 1074.91261,3217.66968 1074.94954,3217.78879 C1075.04348,3218.09183 1075.41176,3218.06016 1075.41176,3217.74904 L1075.41176,3217.74904 Z M1088.07968,3217.58402 C1088.03722,3217.50819 1087.90667,3217.51179 1087.78959,3217.59201 C1087.60903,3217.71573 1087.60351,3217.76745 1087.75324,3217.93267 C1087.93813,3218.13671 1088.22038,3217.83524 1088.07968,3217.58401 L1088.07968,3217.58402 Z M1055.54186,3218.38451 C1055.61909,3218.33814 1055.78026,3218.12677 1055.89997,3217.91481 L1056.11765,3217.52941 L1055.81559,3217.73616 C1055.37472,3218.03791 1055.03238,3218.47278 1055.23743,3218.47058 C1055.32762,3218.46974 1055.46461,3218.43088 1055.54186,3218.38451 Z M1054.16874,3218.2353 C1054.23359,3218.10588 1054.25473,3218 1054.21572,3218 C1054.17671,3218 1054.03009,3218.10588 1053.88982,3218.2353 C1053.74289,3218.37092 1053.72296,3218.47059 1053.84284,3218.47059 C1053.95723,3218.47059 1054.10389,3218.36471 1054.16874,3218.2353 Z M1060.78883,3218.37082 C1062.07823,3217.19465 1062.5512,3216.68783 1062.64827,3216.37826 C1062.7513,3216.0497 1062.74474,3216.04733 1062.3875,3216.28421 C1062.18597,3216.41786 1061.9373,3216.73188 1061.83491,3216.98204 C1061.70571,3217.29765 1061.45089,3217.52269 1061.00238,3217.71726 C1060.24967,3218.04379 1060.01823,3218.24982 1059.90323,3218.69576 C1059.79639,3219.11013 1060.1008,3218.99843 1060.78883,3218.37082 Z M1058.73733,3218.8916 C1058.68025,3218.85368 1058.71368,3218.75851 1058.8116,3218.68012 C1059.14197,3218.41568 1058.7818,3218.3949 1058.38919,3218.65575 L1058,3218.91429 L1058.42056,3218.93742 C1058.65184,3218.95014 1058.79441,3218.92952 1058.73733,3218.8916 Z M1059.31585,3218.33573 L1059.41176,3218 L1059.18346,3218.33573 C1058.9266,3218.71345 1058.84323,3219.14068 1059.08518,3218.83933 C1059.15932,3218.74701 1059.26312,3218.52039 1059.31585,3218.33573 Z M1084.34843,3219.02607 C1084.02265,3218.80819 1083.73607,3218.57427 1083.71156,3218.50624 C1083.64119,3218.31079 1082.62325,3217.83078 1082.045,3217.72037 C1081.75543,3217.66508 1081.41485,3217.58781 1081.28816,3217.54866 C1081.16147,3217.50951 1081.05827,3217.53202 1081.05883,3217.59867 C1081.06124,3217.7822 1081.98498,3218.33524 1082.50137,3218.4615 C1082.75239,3218.52287 1083.04853,3218.62565 1083.15949,3218.6899 C1083.50727,3218.89125 1084.67129,3219.40052 1084.8091,3219.41162 C1084.8815,3219.41745 1084.67419,3219.24395 1084.34843,3219.02607 Z M1087.15558,3219.10314 C1087.12882,3218.9226 1087.06651,3218.77488 1087.0171,3218.77488 C1086.96766,3218.77488 1086.92516,3218.67148 1086.92264,3218.5451 C1086.91983,3218.40356 1086.86719,3218.4666 1086.78564,3218.70923 C1086.66526,3219.06731 1086.67262,3219.11765 1086.86651,3219.26262 C1087.17265,3219.49152 1087.21004,3219.4709 1087.15558,3219.10314 Z M1075.41172,3219.01711 C1075.41172,3218.50052 1075.30572,3218.34946 1075.09573,3218.56688 C1074.89486,3218.77483 1074.88829,3219.24021 1075.08482,3219.33913 C1075.36633,3219.48084 1075.41176,3219.43608 1075.41176,3219.01711 L1075.41172,3219.01711 Z M1056.70183,3219.1619 C1056.78907,3219.02447 1056.82894,3218.99235 1056.79043,3219.09051 C1056.7519,3219.18867 1056.76778,3219.26899 1056.82569,3219.26899 C1056.88359,3219.26899 1056.96118,3219.16735 1056.99811,3219.04314 C1057.09909,3218.70337 1057.08197,3218.65902 1056.88703,3218.7556 C1056.75779,3218.81963 1056.727,3218.78273 1056.77497,3218.62131 C1056.83371,3218.42371 1056.81535,3218.42206 1056.61127,3218.6066 C1056.48485,3218.72093 1056.30851,3218.94886 1056.21937,3219.11312 C1056.06972,3219.38897 1056.07589,3219.41176 1056.30027,3219.41176 C1056.43387,3219.41176 1056.61456,3219.29933 1056.70183,3219.1619 L1056.70183,3219.1619 Z M1054.67247,3219.42765 C1054.58647,3219.37012 1054.43023,3219.47383 1054.32529,3219.65814 C1054.17367,3219.92448 1054.20579,3219.94595 1054.48169,3219.76276 C1054.67267,3219.63599 1054.75846,3219.48519 1054.67247,3219.42765 Z M1052.35294,3219.58094 C1052.35294,3219.48789 1052.24707,3219.41176 1052.11765,3219.41176 C1051.98827,3219.41176 1051.88235,3219.5379 1051.88235,3219.69206 C1051.88235,3219.84622 1051.98827,3219.92235 1052.11765,3219.86124 C1052.24707,3219.80012 1052.35294,3219.67399 1052.35294,3219.58094 Z M1089.05059,3218.84826 C1089.01426,3218.4863 1088.97219,3218.44566 1088.6701,3218.48074 C1088.03946,3218.55399 1087.96523,3218.71043 1088.36336,3219.12726 C1088.81115,3219.59609 1089.11332,3219.47342 1089.05059,3218.84826 Z M1053.11151,3219.71865 C1053.33174,3219.52029 1053.35344,3219.41176 1053.17295,3219.41176 C1053.10265,3219.41176 1052.9813,3219.51918 1052.9033,3219.65046 C1052.73784,3219.92897 1052.84064,3219.96264 1053.11151,3219.71865 Z M1054.19846,3219.73444 C1054.25044,3219.65309 1054.3729,3219.63084 1054.47063,3219.68501 C1054.56834,3219.73916 1054.59992,3219.73162 1054.54076,3219.66825 C1054.4816,3219.60487 1054.50401,3219.42503 1054.59055,3219.26861 C1054.85263,3218.79491 1054.65648,3218.83928 1054.11952,3219.37516 C1053.75225,3219.74172 1053.67963,3219.88235 1053.85766,3219.88235 C1053.99311,3219.88235 1054.14649,3219.81579 1054.19846,3219.73444 L1054.19846,3219.73444 Z M1058.94118,3219.95533 C1058.94118,3219.78286 1058.65014,3219.94063 1058.53936,3220.17317 C1058.43001,3220.40268 1058.43237,3220.40355 1058.68468,3220.22628 C1058.82575,3220.12716 1058.94118,3220.00523 1058.94118,3219.95533 Z M1060.99315,3220.56506 C1061.97914,3219.49387 1062.03839,3218.95173 1061.0653,3219.90489 C1060.67402,3220.28817 1060.35348,3220.65132 1060.35296,3220.71188 C1060.35005,3220.9164 1060.75496,3220.82382 1060.99315,3220.56506 Z M1059.69596,3220.1518 C1059.73995,3220.04117 1059.82878,3219.95066 1059.89333,3219.95066 C1060.07346,3219.95066 1060.99668,3218.99262 1060.99668,3218.80569 C1060.99668,3218.60492 1061.6539,3218.16922 1061.81334,3218.26431 C1061.95728,3218.35017 1062.29804,3217.75128 1062.22521,3217.54042 C1062.19538,3217.45404 1061.65914,3217.88557 1061.03355,3218.49939 C1059.72936,3219.77903 1059.24295,3220.35294 1059.4626,3220.35294 C1059.54696,3220.35294 1059.65197,3220.26243 1059.69596,3220.1518 Z M1057.68395,3220.54912 C1058.14486,3220.14745 1058.09489,3219.83496 1057.57823,3219.8883 C1057.29565,3219.91746 1057.06424,3220.07801 1056.87293,3220.37762 L1056.58824,3220.82353 L1056.97868,3220.82353 C1057.19337,3220.82353 1057.51078,3220.70005 1057.68395,3220.54912 Z M1055.62563,3220.57172 C1055.89625,3220.53974 1056.11765,3220.46822 1056.11765,3220.41279 C1056.11765,3220.2815 1055.1159,3220.38101 1054.5558,3220.56795 C1054.02373,3220.74553 1054.20182,3220.92571 1054.7404,3220.75471 C1054.95667,3220.68605 1055.35501,3220.6037 1055.62563,3220.57172 Z M1074.81323,3220.87817 C1074.9907,3220.36803 1074.98952,3220.35294 1074.77211,3220.35294 C1074.61073,3220.35294 1074.47059,3220.73667 1074.47059,3221.17866 C1074.47059,3221.43125 1074.68679,3221.24165 1074.81323,3220.87817 Z M1051.83058,3221.15537 C1051.97021,3221.04415 1052.01007,3221.04415 1052.01007,3221.15537 C1052.01007,3221.37706 1052.38309,3221.32423 1052.68318,3221.06004 C1052.98961,3220.79028 1052.74592,3220.72917 1052.41501,3220.9928 C1052.26266,3221.11417 1052.15382,3221.12688 1052.04045,3221.03656 C1051.85835,3220.89149 1051.41176,3220.99016 1051.41176,3221.17546 C1051.41176,3221.3404 1051.61029,3221.33087 1051.83058,3221.15537 L1051.83058,3221.15537 Z M1058.43227,3221.5457 C1058.48435,3221.42546 1058.48322,3221.31577 1058.42963,3221.29812 C1058.31038,3221.25878 1058,3221.51932 1058,3221.65878 C1058,3221.85105 1058.33827,3221.76255 1058.43221,3221.5457 L1058.43227,3221.5457 Z M1071.5224,3221.83155 C1071.53387,3221.64859 1071.68618,3221.2629 1071.86088,3220.97446 C1072.03558,3220.68602 1072.14788,3220.41402 1072.11045,3220.37003 C1072.00911,3220.25088 1071.5928,3220.78515 1071.5928,3221.03435 C1071.5928,3221.15301 1071.49909,3221.29237 1071.38454,3221.34405 C1071.13923,3221.45472 1071.09435,3222.32377 1071.33892,3222.22793 C1071.42835,3222.19287 1071.51095,3222.0145 1071.5224,3221.83155 Z M1053.25918,3222 C1053.32729,3221.87059 1053.29267,3221.76471 1053.18265,3221.76471 C1053.07244,3221.76471 1052.92658,3221.87059 1052.85846,3222 C1052.79035,3222.12941 1052.82498,3222.23529 1052.935,3222.23529 C1053.04521,3222.23529 1053.19107,3222.12941 1053.25918,3222 Z M1052.78859,3222 C1052.85671,3221.87059 1052.82208,3221.76471 1052.71206,3221.76471 C1052.60189,3221.76471 1052.45599,3221.87059 1052.38788,3222 C1052.31976,3222.12941 1052.35439,3222.23529 1052.46441,3222.23529 C1052.57458,3222.23529 1052.72048,3222.12941 1052.78859,3222 Z M1074.75744,3221.95114 C1074.8561,3221.78761 1074.93874,3221.5489 1074.9411,3221.42066 C1074.9473,3221.08237 1074.58981,3221.48251 1074.5001,3221.91423 C1074.41409,3222.32809 1074.52093,3222.3434 1074.75744,3221.95114 Z M1060.35294,3222.40678 C1060.35294,3222.24227 1060.24707,3222.18623 1060.11765,3222.28223 C1059.98822,3222.37824 1059.88235,3222.51283 1059.88235,3222.58134 C1059.88235,3222.64984 1059.98822,3222.70588 1060.11765,3222.70588 C1060.24707,3222.70588 1060.35294,3222.57129 1060.35294,3222.40678 Z M1059.48011,3222.23525 C1059.62389,3221.98895 1059.89917,3221.60352 1060.09181,3221.37873 C1060.4791,3220.92677 1060.43067,3220.71238 1059.97929,3220.8807 C1059.74902,3220.96655 1058.94118,3222.31941 1058.94118,3222.61912 C1058.94118,3222.83984 1059.25948,3222.61312 1059.48011,3222.23525 Z M1056.71139,3222.11449 C1057.11192,3221.99938 1057.52941,3221.6079 1057.52941,3221.3474 C1057.52941,3221.31743 1057.30802,3221.29346 1057.03738,3221.29413 C1056.60746,3221.29524 1056.51338,3221.35592 1056.2917,3221.77537 C1056.01017,3222.30809 1056.0174,3222.31392 1056.71139,3222.11449 Z M1055.0299,3222.46221 C1055.23488,3222.22003 1055.23183,3222.20856 1054.97655,3222.26024 C1054.82769,3222.29038 1054.70588,3222.40592 1054.70588,3222.517 C1054.70588,3222.78229 1054.76783,3222.77181 1055.0299,3222.46221 Z M1106.73262,3222.91477 C1106.46789,3222.63507 1105.7839,3222.23529 1105.57003,3222.23529 C1105.35593,3222.23529 1106.03795,3222.82511 1106.45467,3223.0003 C1107.04449,3223.24828 1107.0474,3223.24739 1106.73262,3222.91477 Z M1050.64708,3223.55588 C1050.94289,3223.43696 1051.88235,3222.16311 1051.88235,3221.88097 C1051.88235,3221.71446 1051.80106,3221.724 1051.48418,3221.92774 C1051.03703,3222.21522 1050,3223.33124 1050,3223.52496 C1050,3223.67413 1050.31549,3223.68921 1050.64708,3223.55588 Z M1073.94673,3223.37057 C1074.0499,3223.20868 1073.99942,3223.13566 1073.82807,3223.19939 C1073.66382,3223.26052 1073.52941,3223.38757 1073.52941,3223.48171 C1073.52941,3223.74339 1073.74592,3223.68572 1073.94673,3223.37057 Z M1071.05106,3223.13852 C1071.16387,3222.89791 1071.20902,3222.70324 1071.15141,3222.70591 C1071.09378,3222.70865 1070.94874,3222.94136 1070.8291,3223.22321 C1070.56904,3223.83599 1070.75775,3223.76398 1071.05106,3223.13852 Z M1056.68435,3223.53556 C1057.07654,3223.45019 1057.21628,3223.11611 1056.83057,3223.18602 C1056.31633,3223.27922 1056.11765,3223.37491 1056.11765,3223.52937 C1056.11765,3223.6143 1056.17967,3223.66469 1056.25548,3223.64135 C1056.33128,3223.61801 1056.52428,3223.5704 1056.68435,3223.53556 Z M1058.79898,3223.65741 C1059.06749,3223.31946 1058.92422,3223.00274 1058.63108,3223.28624 C1058.52405,3223.38974 1058.33827,3223.72503 1058.21826,3224.03133 L1058,3224.58824 L1058.28255,3224.27 C1058.43796,3224.09498 1058.67035,3223.81931 1058.79898,3223.65741 Z M1055.04079,3223.88235 C1055.15812,3223.75294 1055.20928,3223.64706 1055.15446,3223.64706 C1055.09967,3223.64706 1054.95885,3223.75294 1054.84155,3223.88235 C1054.72422,3224.01176 1054.67309,3224.11765 1054.72788,3224.11765 C1054.78267,3224.11765 1054.92349,3224.01176 1055.04079,3223.88235 Z M1057.05882,3224.31286 C1057.05882,3224.14342 1056.94989,3224.07668 1056.7813,3224.14283 C1056.62867,3224.20273 1056.55005,3224.32825 1056.60657,3224.42177 C1056.76861,3224.68994 1057.05882,3224.62005 1057.05882,3224.31286 Z M1056.11765,3224.28913 C1056.11765,3224.12463 1056.01179,3224.06858 1055.88237,3224.16458 C1055.75296,3224.26059 1055.64706,3224.39519 1055.64706,3224.46369 C1055.64706,3224.53219 1055.75296,3224.58824 1055.88237,3224.58824 C1056.01179,3224.58824 1056.11765,3224.45364 1056.11765,3224.28913 Z M1073.56138,3224.16238 C1073.52246,3224.05757 1073.49058,3224.14331 1073.49058,3224.35294 C1073.49058,3224.56256 1073.52246,3224.64831 1073.56138,3224.5435 C1073.60031,3224.4387 1073.60031,3224.26719 1073.56138,3224.16238 Z M1072.58824,3224.30794 C1072.58824,3224.15378 1072.48233,3224.07765 1072.35296,3224.13876 C1072.22355,3224.19988 1072.11765,3224.32601 1072.11765,3224.41906 C1072.11765,3224.51211 1072.22355,3224.58824 1072.35296,3224.58824 C1072.48233,3224.58824 1072.58824,3224.4621 1072.58824,3224.30794 Z M1059.50446,3224.67497 C1059.56199,3224.57733 1059.61005,3224.33294 1059.61125,3224.13189 C1059.61386,3223.93083 1059.68818,3223.76634 1059.77954,3223.76634 C1059.8709,3223.76634 1059.90847,3223.72394 1059.86308,3223.67212 C1059.73686,3223.52809 1059.13823,3224.02834 1058.7857,3224.57246 L1058.47059,3225.05882 L1058.93521,3224.95567 C1059.19076,3224.89893 1059.44693,3224.77262 1059.50446,3224.67497 Z M1050.4576,3224.71514 C1050.49453,3224.64534 1050.44998,3224.58824 1050.35829,3224.58824 C1050.26676,3224.58824 1050.13727,3224.70741 1050.07051,3224.85307 C1049.96022,3225.09384 1049.96923,3225.10537 1050.16983,3224.97997 C1050.29119,3224.90411 1050.42067,3224.78493 1050.4576,3224.71514 Z M1073.52941,3225.27449 C1073.52941,3224.98651 1073.17318,3224.98706 1073.08774,3225.27539 C1073.01808,3225.51007 1073.07425,3225.58208 1073.25641,3225.49167 C1073.4066,3225.41707 1073.52941,3225.31943 1073.52941,3225.27466 L1073.52941,3225.27449 Z M1070.39186,3225.31191 C1070.50502,3225.19228 1070.63636,3224.97604 1070.68372,3224.83139 C1070.83177,3224.37927 1070.1997,3224.60811 1069.92919,3225.10457 C1069.70754,3225.51142 1069.70805,3225.52941 1069.94197,3225.52941 C1070.07628,3225.52941 1070.27878,3225.43153 1070.39194,3225.31191 L1070.39186,3225.31191 Z M1049.47385,3225.32602 C1049.60871,3224.99897 1049.48787,3224.96687 1049.22143,3225.25895 C1049.01501,3225.48514 1049.00863,3225.52941 1049.18231,3225.52941 C1049.29653,3225.52941 1049.42772,3225.43789 1049.47385,3225.32602 Z M1072.578,3225.23642 C1072.6142,3225.09271 1072.55349,3225.03254 1072.40954,3225.06944 C1072.28571,3225.10117 1072.15899,3225.22824 1072.12787,3225.35181 C1072.09169,3225.49552 1072.15241,3225.5557 1072.29636,3225.5188 C1072.42016,3225.48706 1072.54688,3225.35999 1072.578,3225.23642 Z M1047.88499,3225.76143 C1048.07956,3225.76143 1048.32284,3225.58659 1048.53603,3225.29358 C1048.72324,3225.03626 1048.92469,3224.82531 1048.98373,3224.82481 C1049.04275,3224.82432 1049.09103,3224.7316 1049.09103,3224.61879 C1049.09103,3224.50598 1049.18762,3224.379 1049.30567,3224.33659 C1049.72517,3224.18591 1049.51216,3224.05022 1049.01942,3224.15424 C1048.5555,3224.25218 1048.0481,3224.65487 1047.36637,3225.46613 C1047.08411,3225.802 1047.12886,3226.17841 1047.41879,3225.90703 C1047.50433,3225.82695 1047.71413,3225.76143 1047.88499,3225.76143 Z M1073.52941,3225.99858 C1073.52941,3225.74054 1073.49167,3225.52941 1073.44555,3225.52941 C1073.27244,3225.52941 1072.9759,3226.1676 1073.0807,3226.3146 C1073.29838,3226.61995 1073.52941,3226.45725 1073.52941,3225.99858 Z M1071.93683,3226.80127 C1072.20857,3226.59871 1072.17173,3226.47059 1071.84178,3226.47059 C1071.54797,3226.47059 1071.17647,3226.68162 1071.17647,3226.84851 C1071.17647,3226.99425 1071.72361,3226.96026 1071.93683,3226.80127 Z M1069.62307,3226.40532 C1069.64706,3226.40532 1069.70448,3226.30244 1069.75064,3226.17669 C1069.89553,3225.78178 1068.87961,3226.11172 1068.60135,3226.54992 L1068.35294,3226.94118 L1068.96614,3226.67325 C1069.30342,3226.52589 1069.59903,3226.40532 1069.62307,3226.40532 Z M1052.7294,3227.20908 C1052.78119,3227.18193 1052.82353,3227.11004 1052.82353,3227.04933 C1052.82353,3226.86188 1052.48969,3226.92711 1052.1786,3227.17535 L1051.88235,3227.41176 L1052.25883,3227.3351 C1052.46588,3227.29293 1052.67764,3227.23622 1052.7294,3227.20908 Z M1057.94321,3225.91285 C1058.04436,3225.55067 1058.03226,3225.52941 1057.72497,3225.52941 C1057.45911,3225.52941 1057.39969,3225.58799 1057.39969,3225.85011 C1057.39969,3226.02649 1057.35527,3226.23041 1057.30098,3226.30327 C1057.24667,3226.37612 1057.16998,3226.65534 1057.13054,3226.92375 L1057.05882,3227.41176 L1057.44748,3226.85403 C1057.66124,3226.54728 1057.88432,3226.12375 1057.94321,3225.91285 Z M1055.64706,3227.16458 C1055.64706,3226.96555 1055.57439,3226.92378 1055.37212,3227.00657 C1055.04898,3227.13883 1055.0198,3226.91013 1055.26283,3226.15018 C1055.46831,3225.5076 1055.46981,3225.39638 1055.26929,3225.66772 C1055.09368,3225.90542 1054.64958,3227.22057 1054.71181,3227.3187 C1054.73365,3227.35313 1054.95299,3227.39341 1055.19925,3227.40821 C1055.53234,3227.42824 1055.647,3227.36585 1055.647,3227.16458 L1055.64706,3227.16458 Z M1054.01062,3227.00378 C1054.33257,3226.4763 1054.33096,3226.47059 1053.85874,3226.47059 C1053.59768,3226.47059 1053.26516,3226.63473 1052.90543,3226.94118 L1052.35294,3227.41176 L1053.05728,3227.41176 C1053.69852,3227.41176 1053.7839,3227.37523 1054.01062,3227.00378 Z M1051.20068,3226.90757 C1051.36499,3226.75005 1051.45184,3226.57363 1051.39369,3226.51552 C1051.20528,3226.32728 1049.63922,3226.77104 1049.34477,3227.09608 L1049.05882,3227.41176 L1049.98039,3227.30286 C1050.55051,3227.23548 1051.01586,3227.08475 1051.20068,3226.90757 Z M1047.41088,3227.72347 C1047.75575,3227.6536 1048.14369,3227.50641 1048.273,3227.39639 C1048.40231,3227.28636 1048.63158,3227.1506 1048.78245,3227.09469 C1049.20807,3226.93696 1049.12125,3226.49138 1048.66488,3226.49138 C1048.42105,3226.49138 1048.273,3226.39856 1048.273,3226.24569 C1048.273,3226.11056 1048.2105,3226 1048.13413,3226 C1047.98023,3226 1046.23529,3227.67067 1046.23529,3227.81802 C1046.23529,3227.92533 1046.53261,3227.90141 1047.41088,3227.72347 Z M1046.3112,3227.02239 C1046.7871,3226.55175 1047.17647,3226.11019 1047.17647,3226.04114 C1047.17644,3225.7933 1045.73622,3226.72255 1045.22829,3227.29814 C1044.71829,3227.87605 1044.71583,3227.88572 1045.07781,3227.88194 C1045.30777,3227.87953 1045.77066,3227.55692 1046.3112,3227.02239 Z M1069.26794,3228.096 C1069.33154,3227.85729 1069.30497,3227.84554 1068.89294,3227.9303 C1068.64905,3227.98048 1068.40641,3228.01761 1068.35373,3228.01281 C1068.05042,3227.9852 1067.88235,3228.04884 1067.88235,3228.19128 C1067.88235,3228.31039 1068.05571,3228.35294 1068.54092,3228.35294 C1069.11555,3228.35294 1069.2082,3228.32019 1069.26794,3228.096 Z M1049.41175,3228.25669 C1049.7353,3228.20185 1050,3228.09406 1050,3228.01716 C1050,3227.85802 1049.0011,3227.83292 1048.47059,3227.97873 C1048.27644,3228.03208 1048.11765,3228.13968 1048.11765,3228.21784 C1048.11765,3228.38339 1048.58202,3228.39734 1049.41175,3228.25669 Z M1048.11765,3229.00425 C1048.11765,3228.71793 1047.76348,3228.78917 1047.66181,3229.09594 C1047.61167,3229.24721 1047.69351,3229.32973 1047.84416,3229.2793 C1047.99459,3229.22888 1048.11765,3229.10511 1048.11765,3229.00425 Z M1055.52609,3228.42732 C1055.75627,3227.861 1055.69623,3227.80557 1055.00923,3227.95003 C1054.32075,3228.09482 1053.9555,3228.66699 1054.49416,3228.75701 C1055.25942,3228.88491 1055.3521,3228.85529 1055.52609,3228.42732 Z M1073.05882,3228.58823 C1073.05882,3228.45883 1073.00198,3228.35294 1072.93256,3228.35294 C1072.86313,3228.35294 1072.72888,3228.45883 1072.63412,3228.58823 C1072.53942,3228.71765 1072.59603,3228.82353 1072.76039,3228.82353 C1072.92451,3228.82353 1073.05882,3228.71765 1073.05882,3228.58823 Z M1072.11765,3228.93502 C1072.11765,3228.82484 1072.01178,3228.7904 1071.8824,3228.8585 C1071.75297,3228.92659 1071.64706,3229.07245 1071.64706,3229.18263 C1071.64706,3229.29281 1071.75297,3229.32724 1071.8824,3229.25915 C1072.01178,3229.19105 1072.11765,3229.04519 1072.11765,3228.93502 Z M1070.40482,3228.60823 C1070.62305,3228.56448 1070.82544,3228.4634 1070.85453,3228.3836 C1070.88368,3228.3038 1071.1763,3228.23851 1071.50493,3228.23851 C1072.05314,3228.23851 1072.10348,3228.20224 1072.11528,3227.79875 C1072.12782,3227.36888 1072.11237,3227.36151 1071.4975,3227.471 C1070.87038,3227.58238 1069.2947,3228.50238 1069.29412,3228.75749 C1069.29412,3228.83097 1069.4545,3228.84534 1069.6509,3228.78943 C1069.84731,3228.73351 1070.18658,3228.65198 1070.40482,3228.60823 Z M1058.73883,3229.13958 C1058.99814,3228.93444 1059.01092,3228.7663 1058.76155,3228.84203 C1058.65904,3228.87315 1058.54495,3228.99004 1058.50802,3229.10177 C1058.42659,3229.34809 1058.46704,3229.35471 1058.73893,3229.13958 L1058.73883,3229.13958 Z M1067.66382,3229.88056 C1068.88002,3229.47108 1069.19756,3229.24822 1068.33907,3229.40668 C1067.75825,3229.51388 1067.73979,3229.5044 1067.81117,3229.13549 C1067.85186,3228.92525 1067.79811,3228.63555 1067.69158,3228.49172 C1067.51825,3228.2575 1067.4693,3228.2912 1067.22263,3228.81471 C1067.07119,3229.13618 1066.90188,3229.43357 1066.84641,3229.47557 C1066.66129,3229.61572 1066.37745,3230.23927 1066.50059,3230.23527 C1066.56734,3230.23303 1067.09078,3230.07349 1067.66382,3229.88056 Z M1072.0288,3230.82016 C1071.89167,3230.65125 1071.72781,3230.67202 1071.66465,3230.86634 C1071.60153,3231.06065 1071.71374,3231.19885 1071.91403,3231.17346 C1072.13536,3231.14533 1072.18037,3231.00684 1072.0288,3230.82018 L1072.0288,3230.82016 Z M1048.50601,3230.95191 C1049.32587,3230.86473 1050.1566,3230.73942 1050.35209,3230.67343 C1050.54756,3230.60743 1051.21836,3230.58072 1051.84272,3230.61406 C1052.94198,3230.67276 1052.96727,3230.66692 1052.64112,3230.42986 C1052.34358,3230.2136 1052.05428,3230.19684 1050.16092,3230.28617 C1048.98207,3230.34179 1047.94054,3230.45206 1047.84642,3230.53121 C1047.7523,3230.61036 1047.5907,3230.65848 1047.48729,3230.63816 C1047.38389,3230.61784 1047.17153,3230.64249 1047.01538,3230.69294 C1046.8592,3230.7434 1046.50328,3230.81863 1046.22441,3230.86012 C1045.94553,3230.90162 1045.56224,3230.99911 1045.37261,3231.07679 C1044.95904,3231.24619 1046.20542,3231.19651 1048.50601,3230.95191 Z M1071.08017,3230.43115 C1071.1064,3230.37362 1071.2617,3230.32656 1071.42533,3230.32656 C1071.58903,3230.32656 1071.68297,3230.29185 1071.63415,3230.24944 C1071.5501,3230.17643 1069.41069,3230.40388 1069.04968,3230.5242 C1068.95653,3230.55524 1068.86752,3230.7147 1068.85194,3230.87856 L1068.82353,3231.17647 L1069.92803,3230.8561 C1070.53552,3230.6799 1071.05399,3230.48867 1071.08017,3230.43114 L1071.08017,3230.43115 Z M1058.67371,3231.00638 C1058.84424,3230.88621 1058.94118,3230.62557 1058.94118,3230.28719 C1058.94118,3229.62619 1058.6022,3229.33658 1058.14765,3229.60924 C1057.89182,3229.76272 1057.73551,3229.73955 1057.4314,3229.50304 C1057.06424,3229.21747 1057.02934,3229.21958 1056.80861,3229.54073 C1056.54198,3229.92859 1056.03735,3229.84795 1056.03735,3229.41748 C1056.03735,3229.22495 1055.92978,3229.29187 1055.68867,3229.63437 C1055.42086,3230.01484 1055.25251,3230.10715 1054.96272,3230.03241 C1053.79276,3229.73072 1053.04607,3229.71146 1052.87764,3229.97863 C1052.72789,3230.21622 1052.84605,3230.26738 1053.78372,3230.3709 C1055.44125,3230.55391 1056.99145,3230.83432 1057.3256,3231.01157 C1057.74386,3231.23346 1058.35475,3231.23111 1058.67371,3231.00639 L1058.67371,3231.00638 Z M1068.71766,3230.48962 C1068.98159,3230.18116 1068.78924,3230.16136 1067.71568,3230.38649 C1066.9076,3230.55595 1066.78711,3230.6088 1067.10073,3230.6562 C1067.81812,3230.76462 1068.54656,3230.68958 1068.71766,3230.48962 Z M1065.98364,3230.92194 C1066.04082,3230.78194 1066.17378,3230.60084 1066.27912,3230.51949 C1066.38441,3230.43814 1066.47059,3230.31756 1066.47059,3230.25154 C1066.47059,3230.18552 1066.25572,3230.32677 1065.99311,3230.56544 C1065.48015,3231.03162 1065.4101,3231.17647 1065.69764,3231.17647 C1065.79774,3231.17647 1065.92645,3231.06193 1065.98364,3230.92194 Z M1044.02189,3230.82083 C1044.05125,3230.65762 1044.24402,3230.47729 1044.46148,3230.40972 C1045.00752,3230.24006 1044.94543,3230.20314 1044.21034,3230.26043 C1043.85916,3230.2878 1043.6116,3230.36284 1043.66028,3230.42718 C1043.70896,3230.49152 1043.67261,3230.54416 1043.57946,3230.54416 C1043.39179,3230.54416 1043.34717,3230.97169 1043.52006,3231.11299 C1043.71242,3231.27018 1043.9679,3231.12146 1044.02189,3230.82083 Z M1041.98753,3231.51939 C1042.04596,3231.43478 1041.89342,3231.20024 1041.64861,3230.9982 C1041.20619,3230.63309 1041.20014,3230.63232 1040.6642,3230.87255 C1040.14291,3231.10621 1039.97572,3231.3733 1040.24429,3231.54335 C1040.48296,3231.69446 1041.87993,3231.67526 1041.98753,3231.51941 L1041.98753,3231.51939 Z M1072.10492,3232.00651 C1072.14871,3231.95433 1072.07578,3231.88089 1071.94291,3231.84332 C1071.81001,3231.80576 1071.73827,3231.73088 1071.78357,3231.67694 C1071.89123,3231.54858 1070.46026,3231.86624 1070.25734,3232.01574 C1070.15292,3232.09265 1070.4191,3232.12575 1071.0634,3232.11598 C1071.59247,3232.10796 1072.06116,3232.0587 1072.10492,3232.00651 Z M1073.52708,3206.89151 C1073.3442,3206.47595 1073.19177,3206.10261 1073.18841,3206.06185 C1073.18497,3206.02109 1073.02643,3205.63063 1072.83603,3205.19416 C1072.42438,3204.25063 1072.10858,3203.20918 1072.11785,3202.82583 C1072.12521,3202.51745 1072.45843,3202.31789 1072.45973,3202.62103 C1072.45973,3202.72684 1072.55472,3203.0082 1072.66983,3203.24627 C1072.78491,3203.48435 1073.09241,3204.3609 1073.35316,3205.19416 C1073.61391,3206.02743 1073.86747,3206.74165 1073.91662,3206.78133 C1074.02028,3206.86498 1074.03087,3207.64706 1073.92816,3207.64706 C1073.89036,3207.64706 1073.70979,3207.30706 1073.52691,3206.89151 L1073.52708,3206.89151 Z M1073.44534,3211.94525 C1073.2764,3211.7196 1073.13819,3211.4885 1073.13819,3211.43171 C1073.13819,3211.37492 1072.98778,3211.18884 1072.80398,3211.01821 C1072.26502,3210.51785 1071.65288,3209.79399 1071.65288,3209.65701 C1071.65288,3209.58731 1071.51922,3209.53027 1071.35582,3209.53027 C1071.18809,3209.53027 1071.05877,3209.4361 1071.05877,3209.31395 C1071.05877,3209.19496 1070.95604,3209.06013 1070.83051,3209.0143 C1070.70495,3208.96848 1070.50271,3208.74799 1070.3811,3208.52432 C1070.17082,3208.13757 1070.17554,3208.11765 1070.47715,3208.11765 C1070.8116,3208.11765 1072.54408,3209.70745 1072.54408,3210.01435 C1072.54408,3210.10751 1072.74457,3210.36644 1072.98966,3210.58974 C1073.23472,3210.81305 1073.43522,3211.07922 1073.43522,3211.18122 C1073.43522,3211.28323 1073.4943,3211.36669 1073.56645,3211.36669 C1073.6386,3211.36669 1073.73129,3211.47794 1073.7724,3211.6139 C1073.81348,3211.74986 1073.89526,3211.97235 1073.95415,3212.10832 C1074.12619,3212.50584 1073.78263,3212.39571 1073.44534,3211.94525 Z M1068.72236,3217.2041 C1068.63334,3217.02054 1068.19046,3216.48983 1067.73819,3216.02474 C1066.87095,3215.13288 1066.80531,3215.00152 1067.09812,3214.74384 C1067.23758,3214.62112 1067.44839,3214.78219 1067.9965,3215.43026 C1069.21768,3216.87416 1069.29412,3216.98218 1069.29412,3217.26389 C1069.29412,3217.646 1068.91765,3217.60664 1068.72236,3217.2041 Z M1063.60314,3231.48292 C1063.65478,3231.15359 1063.76375,3230.93469 1063.87611,3230.93469 C1063.97895,3230.93469 1064.17991,3230.82519 1064.32267,3230.69136 C1064.46544,3230.55752 1064.74231,3230.33489 1064.93796,3230.19663 C1065.13358,3230.05837 1065.48016,3229.58908 1065.70807,3229.15375 C1066.55324,3227.5395 1066.8858,3226.98509 1067.04053,3226.93247 C1067.12783,3226.90277 1067.16462,3226.82125 1067.12225,3226.7513 C1067.07987,3226.68135 1067.11023,3226.62413 1067.18953,3226.62413 C1067.26892,3226.62413 1067.33387,3226.55409 1067.33387,3226.4685 C1067.33387,3226.38291 1067.54356,3225.96054 1067.79985,3225.52991 C1068.05612,3225.09928 1068.31189,3224.55923 1068.36816,3224.32979 C1068.49435,3223.8153 1069.29295,3222.61334 1069.74254,3222.26119 C1070.1215,3221.96437 1071.77511,3219.52556 1071.72075,3219.34368 C1071.70122,3219.27804 1071.84061,3219.01628 1072.03068,3218.76199 C1072.2208,3218.5077 1072.37655,3218.18597 1072.37683,3218.04703 C1072.37683,3217.90809 1072.50976,3217.57541 1072.67162,3217.30774 C1072.83345,3217.04007 1073.1769,3216.41434 1073.43482,3215.91723 C1073.69274,3215.42013 1074.02645,3214.77876 1074.1764,3214.49197 C1074.36882,3214.12393 1074.54017,3213.97053 1074.75882,3213.97053 C1074.92919,3213.97053 1075.14609,3213.87526 1075.2408,3213.75882 C1075.38825,3213.57754 1075.45432,3213.57437 1075.70041,3213.73675 C1075.85849,3213.84106 1076.22441,3213.96478 1076.51359,3214.01168 C1076.9289,3214.07904 1077.20154,3214.27357 1077.81126,3214.93756 C1078.23583,3215.3999 1078.65021,3215.77817 1078.73215,3215.77817 C1078.81407,3215.77817 1079.02737,3215.89203 1079.20612,3216.0312 C1079.55487,3216.30269 1081.61743,3216.89555 1082.20242,3216.89246 C1082.55065,3216.89067 1082.82965,3217.02214 1084.68028,3218.0606 C1085.18869,3218.3459 1085.66792,3218.5578 1085.74526,3218.5315 C1085.92579,3218.4701 1084.81243,3216.77006 1083.9421,3215.77817 C1083.573,3215.35754 1083.17575,3214.8987 1083.05924,3214.75852 C1082.7709,3214.41152 1082.23231,3213.29754 1082.10879,3212.79272 C1082.05323,3212.56556 1081.90108,3212.19012 1081.7707,3211.95841 C1081.64033,3211.7267 1081.48953,3211.31812 1081.43557,3211.05045 C1081.29055,3210.3309 1080.63332,3209.1133 1079.94735,3208.29334 C1079.1186,3207.3027 1078.89787,3206.96805 1078.29332,3205.78563 C1078.00544,3205.22255 1077.6909,3204.73092 1077.59434,3204.69311 C1077.49778,3204.65531 1077.41876,3204.56251 1077.41876,3204.4869 C1077.41876,3204.41129 1077.29194,3204.16769 1077.13694,3203.94557 C1076.98191,3203.72346 1076.89506,3203.54172 1076.94397,3203.54172 C1076.99282,3203.54172 1076.85101,3203.30707 1076.62878,3203.02028 C1076.40655,3202.73349 1076.01902,3202.09212 1075.76763,3201.59501 C1075.51625,3201.09791 1075.27281,3200.6599 1075.22669,3200.62166 C1075.18056,3200.58342 1075.11831,3200.48956 1075.08833,3200.41308 C1075.05837,3200.33661 1074.61986,3199.63314 1074.1139,3198.84983 C1073.60797,3198.06652 1073.19402,3197.39793 1073.19402,3197.36409 C1073.19402,3197.33024 1073.12837,3197.1264 1073.04815,3196.91111 C1072.96793,3196.69582 1072.91913,3196.51967 1072.9397,3196.51967 C1072.96022,3196.51967 1072.85728,3196.37627 1072.71079,3196.20101 L1072.44446,3195.88235 L1072.28024,3196.27054 C1072.18996,3196.48404 1072.1133,3196.89538 1072.1099,3197.18462 C1072.10639,3197.47387 1072.01699,3197.92242 1071.91094,3198.1814 C1071.80487,3198.44038 1071.75376,3198.68866 1071.79736,3198.73314 C1071.84096,3198.77761 1071.80136,3198.814 1071.70958,3198.814 C1071.6177,3198.814 1071.57045,3198.86093 1071.60459,3198.91829 C1071.63873,3198.97565 1071.48983,3199.39801 1071.27371,3199.85688 C1071.04732,3200.33753 1070.87915,3200.92696 1070.87697,3201.24739 C1070.87447,3201.5533 1070.78449,3201.96002 1070.67612,3202.15121 C1070.56774,3202.34241 1070.43517,3202.5927 1070.38153,3202.70742 C1070.32789,3202.82213 1070.14683,3203.10371 1069.97916,3203.33315 C1069.60799,3203.84108 1068.96925,3205.29232 1068.96925,3205.62775 C1068.96925,3205.76183 1068.88042,3205.94677 1068.7718,3206.03873 C1068.6632,3206.13069 1068.50304,3206.43557 1068.41589,3206.71625 C1068.32874,3206.99692 1068.12488,3207.47685 1067.96289,3207.78276 C1067.80085,3208.08867 1067.51783,3208.79262 1067.33389,3209.34708 C1067.14995,3209.90155 1066.95205,3210.3552 1066.89411,3210.3552 C1066.83617,3210.3552 1066.78874,3210.43906 1066.78874,3210.54157 C1066.78874,3210.64407 1066.61339,3211.09772 1066.39906,3211.54968 C1066.18474,3212.00164 1065.90339,3212.62172 1065.77389,3212.92764 C1065.64437,3213.23355 1065.39646,3213.7967 1065.22298,3214.17909 C1064.90176,3214.88729 1064.54618,3215.79157 1064.53957,3215.91722 C1064.53707,3215.95546 1064.4989,3216.04932 1064.45367,3216.1258 C1064.40845,3216.20228 1064.29434,3216.51514 1064.20006,3216.82105 C1064.1058,3217.12696 1063.8694,3217.7214 1063.67473,3218.14203 C1063.48005,3218.56266 1063.31489,3218.93809 1063.30768,3218.97633 C1063.30042,3219.01457 1063.21552,3219.32744 1063.11889,3219.67159 C1063.02225,3220.01574 1062.9165,3220.44652 1062.88389,3220.62889 C1062.85125,3220.81126 1062.67395,3221.3256 1062.48986,3221.77187 C1062.30577,3222.21814 1062.15512,3222.69987 1062.15512,3222.84239 C1062.15512,3222.9849 1062.10912,3223.14843 1062.05293,3223.20579 C1061.99669,3223.26315 1061.94769,3223.35179 1061.94401,3223.40278 C1061.94025,3223.45376 1061.88927,3223.63927 1061.83055,3223.81501 C1061.76635,3224.0071 1061.7845,3224.20921 1061.876,3224.32172 C1061.99074,3224.46274 1061.97429,3224.56395 1061.8094,3224.7322 C1061.60844,3224.93724 1061.61363,3224.95551 1061.87285,3224.95551 C1062.34044,3224.95551 1062.24132,3225.50108 1061.75571,3225.60017 C1061.4204,3225.66859 1061.34492,3225.76291 1061.28552,3226.18766 C1061.2466,3226.46595 1061.22703,3226.85007 1061.24202,3227.04127 C1061.26505,3227.33568 1061.21194,3227.38805 1060.89452,3227.38341 C1060.6134,3227.3793 1060.51423,3227.44879 1060.49769,3227.66151 C1060.29999,3230.20112 1060.30241,3230.51758 1060.51972,3230.5207 C1060.94085,3230.52676 1061.89145,3231.07439 1062.29516,3231.54354 C1062.67417,3231.98398 1063.14862,3232.21161 1063.41538,3232.081 C1063.47139,3232.05357 1063.55589,3231.78443 1063.60312,3231.48291 L1063.60314,3231.48292 Z M1072.95673,3232.33169 C1073.0725,3232.21683 1073.09036,3231.83857 1073.00751,3231.25523 C1072.93725,3230.76057 1072.87585,3230.22233 1072.87108,3230.05913 C1072.85653,3229.55778 1072.5756,3229.73027 1072.44162,3230.32288 C1072.19085,3231.43223 1072.17844,3231.77039 1072.38146,3231.96176 C1072.64155,3232.2069 1072.32195,3232.39493 1071.64011,3232.39791 C1071.38513,3232.39887 1071.17647,3232.45034 1071.17647,3232.51197 C1071.17647,3232.68879 1072.7581,3232.52863 1072.95673,3232.33169 Z M1070.67431,3232.28486 C1070.56383,3232.06855 1070.31094,3232.06217 1069.90208,3232.26535 L1069.29412,3232.56746 L1070.06635,3232.58697 C1070.59872,3232.60044 1070.78756,3232.50658 1070.67431,3232.28486 Z M1072.47101,3233.67986 C1072.30477,3233.49118 1072.14666,3233.22831 1072.11964,3233.0957 C1072.06659,3232.83531 1072.0557,3232.83469 1070.34405,3232.99363 C1069.23855,3233.09629 1068.73843,3233.16059 1068.40072,3233.24346 C1068.28621,3233.27156 1068.03635,3233.33225 1067.84549,3233.37832 C1067.07595,3233.56408 1066.05427,3233.58901 1065.91771,3233.42536 C1065.71425,3233.1816 1065.91465,3232.95588 1066.38843,3232.89551 L1066.8044,3232.84248 L1066.42267,3232.65384 C1066.13922,3232.51376 1066.04097,3232.3634 1066.04097,3232.06971 L1066.04097,3231.67421 L1065.60662,3231.91932 C1065.36772,3232.05413 1064.91838,3232.29437 1064.60808,3232.45319 C1064.14569,3232.68985 1064.08435,3232.76458 1064.26813,3232.8673 C1064.45775,3232.97328 1064.4641,3233.03103 1064.30928,3233.2412 C1064.15535,3233.45013 1063.90544,3233.49178 1062.74251,3233.50241 C1061.25938,3233.51597 1061.04381,3233.46118 1061.04381,3233.07077 C1061.04381,3232.90242 1060.89567,3232.78417 1060.59268,3232.7107 C1059.81056,3232.52105 1059.3781,3232.5214 1059.3781,3232.71172 C1059.3781,3232.8097 1059.27837,3232.97218 1059.15646,3233.07279 C1058.96955,3233.22703 1058.91407,3233.21886 1058.80254,3233.02067 C1058.6567,3232.76155 1057.78886,3232.68894 1057.64299,3232.92367 C1057.59581,3232.99959 1057.44262,3233.06171 1057.30261,3233.06171 C1057.1626,3233.06171 1057.01691,3233.14239 1056.97885,3233.241 C1056.88901,3233.47385 1055.98804,3233.74844 1055.76457,3233.61109 C1055.54678,3233.47725 1055.86412,3233.14279 1056.73891,3232.58407 C1057.44277,3232.13453 1057.30638,3231.99056 1056.39325,3232.21921 C1056.05868,3232.30298 1055.53151,3232.37153 1055.22175,3232.37153 C1054.75767,3232.37153 1054.65858,3232.32459 1054.65858,3232.10476 C1054.65858,3231.80048 1054.82758,3231.73472 1055.9444,3231.6044 C1056.38438,3231.55306 1056.77305,3231.46495 1056.80805,3231.40861 C1056.84308,3231.35227 1056.24251,3231.26308 1055.47349,3231.21041 C1054.22056,3231.1246 1054.05595,3231.14051 1053.88966,3231.36349 C1053.71147,3231.60241 1053.69625,3231.60185 1053.50824,3231.34955 C1053.33098,3231.1117 1053.17925,3231.09406 1051.90919,3231.16365 C1050.93309,3231.21714 1050.4656,3231.19209 1050.37326,3231.08135 C1050.23897,3230.92027 1049.39469,3230.88289 1049.15924,3231.02759 C1049.08888,3231.07082 1048.75148,3231.10726 1048.40941,3231.10855 C1048.06737,3231.10982 1047.25657,3231.20256 1046.60762,3231.31458 C1045.9587,3231.4266 1044.89681,3231.56157 1044.24786,3231.6145 C1043.59894,3231.66744 1043.02754,3231.73493 1042.97811,3231.76447 C1042.92868,3231.79401 1042.36648,3231.84994 1041.72883,3231.88876 C1040.50256,3231.9634 1040.35295,3231.98076 1038.18724,3232.2997 C1037.85836,3232.34814 1037.57309,3232.32602 1037.52483,3232.24836 C1037.46946,3232.15926 1037.29236,3232.16314 1037.01428,3232.25953 C1036.76323,3232.34657 1036.22367,3232.36995 1035.69915,3232.31651 C1034.68787,3232.21348 1033.92183,3232.47595 1034.00456,3232.89714 C1034.118,3233.47456 1033.32782,3233.81189 1032.78788,3233.41655 C1032.52331,3233.22282 1032.52316,3233.2105 1032.7787,3232.73448 C1032.92192,3232.46784 1033.12495,3232.21694 1033.22985,3232.17691 C1033.33476,3232.13687 1033.42059,3232.0134 1033.42059,3231.90252 C1033.42059,3231.63425 1034.76659,3231.34703 1035.82177,3231.39014 C1036.66179,3231.42446 1037.70586,3231.16493 1038.57545,3230.70562 C1038.85304,3230.55899 1039.1483,3230.43902 1039.23154,3230.43902 C1039.31477,3230.43902 1039.712,3230.12686 1040.11425,3229.74532 C1040.74194,3229.14999 1040.90153,3229.06382 1041.23972,3229.13769 C1041.52386,3229.19975 1041.70221,3229.15259 1041.87903,3228.96867 C1042.17386,3228.66201 1042.91626,3228.00191 1044.06776,3227.02264 C1044.53644,3226.62405 1045.20097,3226.01842 1045.54454,3225.67679 C1045.88808,3225.33515 1046.24177,3225.05564 1046.33051,3225.05564 C1046.5239,3225.05564 1047.44037,3224.14171 1047.44037,3223.94884 C1047.44037,3223.8743 1047.50729,3223.81331 1047.5891,3223.81331 C1047.89999,3223.81331 1049.10609,3222.20981 1049.10609,3221.79645 C1049.10609,3221.55709 1049.7181,3220.91457 1049.9461,3220.91457 C1050.0185,3220.91457 1050.07775,3220.85252 1050.07775,3220.77669 C1050.07775,3220.70086 1050.3325,3220.37776 1050.6439,3220.0587 C1050.95527,3219.73964 1051.30728,3219.28923 1051.42615,3219.05778 C1051.54502,3218.82634 1051.7275,3218.58731 1051.83167,3218.5266 C1051.93586,3218.46588 1052.02108,3218.34106 1052.02108,3218.24922 C1052.02108,3218.02088 1052.53321,3217.72127 1053.05087,3217.64675 C1053.28612,3217.61289 1053.57228,3217.45178 1053.68679,3217.28874 C1053.8013,3217.1257 1054.09888,3216.77225 1054.34805,3216.5033 C1054.59722,3216.23435 1054.93628,3215.71925 1055.10155,3215.35863 C1055.26679,3214.99802 1055.48455,3214.70296 1055.58548,3214.70296 C1055.68638,3214.70296 1055.76895,3214.63053 1055.76895,3214.542 C1055.76895,3214.37219 1055.84566,3214.27521 1056.67898,3213.39163 C1056.96537,3213.08795 1057.45557,3212.49787 1057.76829,3212.08035 C1058.08104,3211.66283 1058.45153,3211.19696 1058.59161,3211.04508 C1058.7317,3210.89321 1058.94224,3210.5826 1059.05949,3210.35484 C1059.17673,3210.12708 1059.34835,3209.84756 1059.44083,3209.73368 C1059.53335,3209.6198 1059.75261,3209.18565 1059.92811,3208.7689 C1060.10931,3208.33855 1060.59809,3207.63033 1061.05936,3207.12974 C1061.50605,3206.64497 1061.84258,3206.20175 1061.80719,3206.14482 C1061.77184,3206.0879 1061.99128,3205.83166 1062.29488,3205.57541 C1062.59847,3205.31915 1062.84718,3205.05852 1062.84754,3204.99622 C1062.84754,3204.93392 1063.09808,3204.58828 1063.40346,3204.22814 C1063.70887,3203.868 1063.9587,3203.4738 1063.9587,3203.35216 C1063.9587,3203.23051 1064.01359,3203.11028 1064.08063,3203.08497 C1064.28409,3203.00817 1064.93036,3201.98092 1064.93036,3201.73431 C1064.93036,3201.60735 1065.11942,3201.36448 1065.35046,3201.19461 C1065.58153,3201.02474 1066.12808,3200.34942 1066.56505,3199.6939 C1067.00203,3199.03838 1067.48448,3198.36674 1067.63716,3198.20138 C1067.78986,3198.036 1068.16463,3197.60274 1068.47001,3197.23857 C1069.58044,3195.91439 1071.70308,3193.99501 1072.05157,3194.00001 C1072.39945,3194.005 1072.86809,3194.70895 1073.12511,3195.61253 C1073.47714,3196.85026 1074.10297,3198.09663 1075.05192,3199.45003 C1075.4778,3200.05739 1075.92008,3200.7207 1076.0348,3200.92406 C1076.14952,3201.12742 1076.4243,3201.59329 1076.64543,3201.95933 C1076.86656,3202.32536 1077.32046,3203.09792 1077.65409,3203.67612 C1077.98771,3204.25433 1078.39142,3204.87549 1078.55118,3205.05648 C1079.0755,3205.65036 1080.3014,3207.30813 1080.58088,3207.80118 C1080.73147,3208.0669 1081.05082,3208.61315 1081.29053,3209.01507 C1081.53022,3209.41699 1081.72661,3209.78969 1081.72694,3209.84328 C1081.72949,3209.98277 1082.8274,3212.12559 1082.97212,3212.26981 C1083.04095,3212.3384 1083.26208,3212.27183 1083.48548,3212.11537 C1083.7013,3211.96416 1084.01716,3211.79744 1084.1874,3211.7449 C1084.35764,3211.69235 1084.48256,3211.59092 1084.46502,3211.5195 C1084.44743,3211.44807 1084.58445,3211.3121 1084.76935,3211.21733 C1085.50177,3210.84201 1086.2365,3209.3464 1085.92885,3208.85713 C1085.82017,3208.68433 1085.79547,3208.57638 1085.66342,3207.69766 C1085.5903,3207.21083 1085.61394,3207.11101 1085.80235,3207.11101 C1085.94351,3207.11101 1086.03176,3207.22855 1086.03556,3207.42159 C1086.04296,3207.80126 1086.35262,3208.99676 1086.47491,3209.11839 C1086.7018,3209.34402 1088.17284,3206.76126 1088.30959,3205.89719 C1088.32514,3205.79898 1088.43825,3205.60202 1088.561,3205.45949 C1088.91612,3205.04703 1089.08325,3204.67181 1089.08325,3204.28693 C1089.08325,3204.02751 1089.18382,3203.89134 1089.44953,3203.79087 C1089.65098,3203.71471 1089.83578,3203.67226 1089.8602,3203.69654 C1089.93237,3203.76829 1090.3322,3205.35572 1090.33641,3205.58711 C1090.33896,3205.70402 1090.53148,3205.98602 1090.7652,3206.21378 L1091.19012,3206.62788 L1091.01103,3206.21378 C1090.91252,3205.98602 1090.71957,3205.63479 1090.58224,3205.43327 C1090.22663,3204.91147 1090.26105,3204.62637 1090.67957,3204.62637 C1090.87772,3204.62637 1091.02658,3204.70601 1091.02658,3204.81203 C1091.02658,3204.91414 1091.15868,3205.11601 1091.32015,3205.26064 C1091.58908,3205.50155 1091.87116,3206.01105 1091.92424,3206.35181 C1091.99827,3206.82683 1092.47787,3207.54144 1092.8946,3207.79754 C1093.49279,3208.1652 1095.32645,3210.13864 1095.33484,3210.42386 C1095.33815,3210.53774 1095.60389,3210.9556 1095.92526,3211.35245 C1097.77773,3213.63993 1098.24639,3214.1528 1099.11308,3214.841 C1100.21748,3215.71794 1100.7278,3216.19472 1101.02087,3216.62339 C1101.13538,3216.7909 1101.57511,3217.28142 1101.99801,3217.71344 C1102.42092,3218.14547 1102.92157,3218.68529 1103.11053,3218.91305 C1103.49662,3219.37833 1104.40091,3220.08635 1104.60911,3220.08635 C1104.68418,3220.08635 1104.76642,3220.13294 1104.79187,3220.18988 C1104.8676,3220.35931 1105.98996,3221.19064 1106.14299,3221.19064 C1106.28843,3221.19064 1107.84177,3222.42936 1108.91551,3223.40161 C1109.24944,3223.70397 1109.63219,3223.95135 1109.76608,3223.95135 C1109.89997,3223.95135 1110.08464,3224.04135 1110.17644,3224.15134 C1110.26822,3224.26134 1110.57258,3224.42644 1110.85277,3224.51823 C1111.13296,3224.61002 1111.51837,3224.7865 1111.70923,3224.91042 C1112.8465,3225.64877 1113.40729,3225.88105 1115.80412,3226.60655 C1116.56755,3226.83764 1117.35582,3227.14072 1117.55579,3227.28006 C1117.75578,3227.4194 1118.0681,3227.59692 1118.24984,3227.67455 C1118.4316,3227.75217 1118.67399,3227.8732 1118.78853,3227.94348 C1119.43516,3228.34037 1121.08346,3229.08313 1121.40163,3229.12101 C1121.60583,3229.14533 1121.8241,3229.17231 1121.88669,3229.18096 C1122.16576,3229.21958 1121.88414,3229.80511 1121.53129,3229.92166 C1121.22206,3230.02359 1120.97521,3229.96102 1120.21259,3229.58738 C1119.69656,3229.33455 1119.25339,3229.08071 1119.2278,3229.0233 C1119.20218,3228.96589 1119.12491,3228.95354 1119.05603,3228.99586 C1118.98717,3229.03818 1118.85195,3229.0077 1118.75556,3228.92814 C1118.5298,3228.74179 1116.70155,3227.8094 1116.42874,3227.74149 C1115.59612,3227.53421 1113.71846,3226.96845 1113.02791,3226.71678 C1112.56985,3226.54984 1111.98239,3226.35067 1111.72244,3226.27419 C1110.97659,3226.05476 1109.50503,3225.23333 1108.78746,3224.6359 C1108.42645,3224.33532 1108.00434,3224.08939 1107.84952,3224.08939 C1107.57899,3224.08939 1107.08809,3223.90397 1105.7388,3223.29214 C1105.00534,3222.95957 1103.13324,3221.1632 1101.9663,3219.67225 C1101.52061,3219.10285 1101.10997,3218.59289 1101.05373,3218.53901 C1100.99749,3218.48513 1100.73285,3218.23182 1100.46563,3217.9761 C1100.19844,3217.72039 1099.82448,3217.2986 1099.63461,3217.0388 C1099.44477,3216.77901 1098.66394,3215.92648 1097.89951,3215.14431 C1096.18842,3213.39358 1095.82183,3212.95924 1095.02224,3211.7352 C1094.67506,3211.20376 1094.02442,3210.39325 1093.57636,3209.93405 C1093.12829,3209.47486 1092.46943,3208.77605 1092.11222,3208.38115 C1091.75499,3207.98625 1091.36461,3207.66315 1091.24467,3207.66315 C1091.12473,3207.66315 1091.02658,3207.611 1091.02658,3207.54727 C1091.02658,3207.48354 1090.88002,3207.36498 1090.70088,3207.28381 L1090.37513,3207.13623 L1090.40842,3211.50625 C1090.42678,3213.90976 1090.48656,3216.17043 1090.5414,3216.52995 C1090.63855,3217.16704 1090.40073,3218.91746 1090.18273,3219.16962 C1090.07628,3219.29276 1090.51014,3220.6974 1090.7395,3220.97224 C1090.81147,3221.05845 1091.04254,3221.14316 1091.25301,3221.16048 C1091.46348,3221.1778 1091.68506,3221.26932 1091.74543,3221.36385 C1091.8058,3221.45838 1091.85614,3221.48854 1091.85732,3221.43087 C1091.85987,3221.32884 1092.44261,3221.58998 1094.1498,3222.45736 C1095.87603,3223.33441 1096.5353,3223.63322 1097.41183,3223.93594 C1099.61335,3224.69623 1100.67783,3225.10133 1101.11328,3225.34455 C1101.37071,3225.48834 1101.93933,3225.64561 1102.37689,3225.69406 C1103.16893,3225.78176 1105.42733,3226.7367 1106.14085,3227.28561 C1106.32295,3227.42568 1106.56062,3227.54028 1106.66902,3227.54028 C1106.77744,3227.54028 1107.1594,3227.67344 1107.51785,3227.83619 C1108.51868,3228.29061 1109.92069,3228.75208 1110.45951,3228.80444 C1110.72648,3228.83039 1111.0611,3228.96697 1111.20312,3229.10797 C1111.43832,3229.34144 1111.44181,3229.38375 1111.24235,3229.58209 C1111.06403,3229.75944 1110.96466,3229.76955 1110.70695,3229.63658 C1110.53291,3229.54678 1109.96464,3229.41515 1109.44408,3229.34408 C1108.92354,3229.27301 1108.42382,3229.15765 1108.3336,3229.08774 C1108.10814,3228.91302 1106.57326,3228.23137 1106.57326,3228.30596 C1106.57326,3228.33908 1107.276,3228.71665 1108.13486,3229.14499 C1108.99377,3229.57334 1109.69648,3229.91041 1109.69648,3229.89405 C1109.69648,3229.8337 1110.534,3230.06637 1110.66815,3230.16399 C1110.7445,3230.21954 1111.05467,3230.30947 1111.3574,3230.36384 C1111.66016,3230.41821 1112.09741,3230.56331 1112.32907,3230.68629 C1112.56075,3230.80927 1112.79967,3230.89628 1112.86001,3230.87965 C1113.06219,3230.82393 1113.51375,3231.13671 1113.51375,3231.33246 C1113.51375,3231.46762 1113.34568,3231.5237 1112.95658,3231.51836 C1112.65013,3231.51415 1112.37174,3231.46622 1112.33794,3231.41184 C1112.30416,3231.35746 1112.00882,3231.30253 1111.68167,3231.28978 C1111.3545,3231.27703 1110.86771,3231.20185 1110.59988,3231.1227 C1108.7874,3230.58709 1108.00765,3230.28558 1106.78146,3229.64623 C1106.01803,3229.24816 1105.01567,3228.739 1104.55402,3228.51478 C1104.09236,3228.29055 1103.59859,3227.97956 1103.45672,3227.82368 C1103.31488,3227.66781 1103.06482,3227.54028 1102.90108,3227.54028 C1102.73731,3227.54028 1102.54397,3227.48163 1102.47144,3227.40995 C1102.13537,3227.07781 1099.21382,3225.60778 1098.88978,3225.60778 C1098.71217,3225.60778 1097.3485,3225.09366 1096.4886,3224.70247 C1096.24802,3224.59303 1095.97805,3224.50349 1095.88867,3224.50349 C1095.7993,3224.50349 1095.46518,3224.35283 1095.14619,3224.16869 C1094.60419,3223.85579 1094.02351,3223.69062 1093.28225,3223.63849 C1093.11048,3223.62642 1092.96993,3223.57454 1092.96993,3223.52323 C1092.96993,3223.47192 1092.75732,3223.39027 1092.4975,3223.3418 C1092.23765,3223.29332 1091.98975,3223.16218 1091.94662,3223.05037 C1091.90346,3222.93855 1091.7725,3222.84706 1091.65559,3222.84706 C1091.53868,3222.84706 1091.44301,3222.79743 1091.44301,3222.73676 C1091.44301,3222.67609 1091.23093,3222.55019 1090.97174,3222.45698 C1090.7125,3222.36377 1090.30174,3222.11499 1090.05886,3221.90414 C1089.81602,3221.69328 1089.34098,3221.43963 1089.00328,3221.34046 C1088.66555,3221.2413 1088.3892,3221.11474 1088.3892,3221.05922 C1088.3892,3220.89458 1087.27949,3220.61339 1086.40019,3220.55521 C1085.45983,3220.493 1084.63919,3220.28408 1082.97562,3219.68338 C1082.32669,3219.44906 1081.76452,3219.25995 1081.72633,3219.26314 C1081.55329,3219.27762 1080.61586,3218.7896 1080.61586,3218.68504 C1080.61586,3218.62064 1080.52982,3218.56796 1080.42464,3218.56796 C1080.31948,3218.56796 1080.14862,3218.46634 1080.04497,3218.34213 C1079.56331,3217.76502 1078.10814,3217.18589 1077.44749,3217.30841 C1077.34628,3217.32717 1077.05375,3217.18344 1076.79739,3216.98899 C1075.92304,3216.32581 1075.88102,3216.39932 1075.9145,3218.53345 C1075.94886,3220.72311 1075.8849,3221.13244 1075.37249,3222.0019 C1075.16661,3222.35127 1075.01765,3222.75166 1075.04151,3222.89165 C1075.06548,3223.03164 1074.97664,3223.22488 1074.84435,3223.32107 C1074.70603,3223.42164 1074.59651,3223.6954 1074.58667,3223.96522 C1074.57724,3224.22331 1074.52128,3224.51141 1074.46229,3224.60544 C1074.40327,3224.69946 1074.32039,3225.07216 1074.27808,3225.43365 C1074.23576,3225.79514 1074.14205,3226.37043 1074.06988,3226.71206 C1073.99768,3227.0537 1073.89051,3227.83375 1073.83167,3228.44551 C1073.77286,3229.05727 1073.67384,3229.63968 1073.61161,3229.73976 C1073.54944,3229.83984 1073.49149,3230.74979 1073.48285,3231.76188 C1073.46857,3233.43026 1073.44127,3233.62151 1073.18955,3233.8106 C1072.82827,3234.08203 1072.82459,3234.08135 1072.47091,3233.6799 L1072.47101,3233.67986 Z" transform="translate(-1010 -3194)"/>
</svg>
