<svg xmlns="http://www.w3.org/2000/svg" width="300" height="200" viewBox="0 0 300 200">
  <g fill="none" fill-rule="evenodd">
    <rect width="299" height="199" x=".5" y=".5" fill="#EFF0F4"/>
    <path fill="#798291" fill-rule="nonzero" d="M218.811743,81.2557259 C217.525567,79.9518203 216.876576,79.5202107 215.974871,79.369072 C215.331839,79.2612875 214.569411,78.9594922 214.280556,78.6984216 C213.991701,78.4373404 213.494404,78.0838506 213.175533,77.9128769 C212.856662,77.7419033 212.186342,76.8903274 211.686039,76.0204809 C211.18568,75.1506398 210.488685,74.0563594 210.13707,73.5887441 C209.111459,72.224682 208.831068,71.5782671 209.091244,71.1775259 C209.394689,70.7100271 210.624732,71.247226 210.624732,71.8472589 C210.624732,72.0604047 210.824931,72.3929834 211.069625,72.5863263 C211.31432,72.7796637 212.005467,73.7736673 212.605452,74.7952253 C213.716266,76.6862958 215.133978,77.8595282 216.764977,78.2374655 C217.223625,78.3437336 217.598853,78.5431737 217.598853,78.6806652 C217.598853,78.8181567 218.00805,79.1321042 218.508131,79.3783186 C219.713281,79.9716551 222.210789,82.367052 221.985752,82.7137341 C221.547708,83.3885305 220.391898,82.8575934 218.811743,81.2557259 Z M104.534345,87.6093948 C104.453887,87.3879594 104.323383,86.62704 104.244349,85.9184523 C104.063427,84.2957417 103.426141,82.5998895 102.624347,81.6074079 C101.806449,80.5949801 101.787806,78.9913223 102.593997,79.0000354 C103.739488,79.0123982 106.50046,86.1064847 105.921025,87.5485275 C105.6921,88.1181493 104.73453,88.1601827 104.534345,87.6093948 Z M219.271409,89.3506604 C218.522385,88.8805612 217.66393,88.4959395 217.363713,88.4959395 C216.815806,88.4959395 214.395104,87.0440108 213.360336,86.0947169 C212.832447,85.6104928 212.896354,85 213.474785,85 C213.624368,85 214.795704,85.5887542 216.077754,86.3083516 C217.359803,87.0279437 218.848106,87.8276896 219.385041,88.0855719 C220.49282,88.6175694 221.292562,89.6126786 220.897681,89.9676592 C220.752241,90.0984061 220.020434,89.8207543 219.271409,89.3506604 Z M195.01032,94.0795029 C192.305149,90.8916275 192.604079,91.0401228 188.329202,90.7607966 C186.842883,90.6636799 185.406404,90.4670299 185.13696,90.3237877 C184.867463,90.1805507 184.432102,90.063353 184.169336,90.063353 C183.776121,90.063353 181.433128,89.1569018 178.064284,87.701497 C177.74436,87.563271 177.155366,87.4117185 176.755421,87.3647156 C175.779998,87.2500852 175.735767,86.1487817 176.701041,86.0109486 C177.538805,85.8913234 180.073037,86.7729572 181.354336,87.6297843 C182.459086,88.3684935 185.06399,89.1897011 186.780437,89.34036 C191.14073,89.7230624 191.980577,89.8428114 192.825446,90.2022734 C193.34553,90.4235524 193.967375,90.8927524 194.207332,91.2449484 C194.447288,91.5971391 195.232648,92.4653334 195.952518,93.1742681 C197.033176,94.2384398 197.185312,94.513218 196.82511,94.7498363 C196.148617,95.1942513 195.868437,95.0907566 195.01032,94.0795029 Z M101.008153,95.0246254 C100.416065,94.4837216 99.8402531,93.7782149 99.7285633,93.4568305 C99.616931,93.1354513 99.3946404,92.8725065 99.2345843,92.8725065 C99.0745282,92.8725065 98.9435837,92.7445286 98.9435837,92.5881083 C98.9435837,92.4316931 98.4516102,91.6781437 97.8502968,90.9135587 C96.9465787,89.7643697 96.8315079,89.466936 97.1866914,89.197662 C97.4229648,89.0185003 97.8096093,88.9480355 98.04594,89.0410584 C98.5121829,89.2246386 100.503686,91.5988682 100.503686,91.9711381 C100.503686,92.0966974 101.065344,92.8871387 101.751872,93.7276645 C102.438342,94.5681956 103,95.4251388 103,95.6319943 C103,96.3026351 102.110093,96.0312775 101.008153,95.0246254 Z M188.851018,99.7089239 C188.851018,99.5386379 188.550289,99.3984492 188.182738,99.3973973 C187.815132,99.3962599 187.131579,99.1873586 186.663658,98.9329729 C186.195791,98.6785931 185.641682,98.4704593 185.432432,98.4704593 C185.094774,98.4704593 182.285883,97.3051085 179.791903,96.1303241 C179.211338,95.8568555 178.04699,95.7415667 176.450395,95.7994755 C174.259653,95.8789351 174,95.8294989 174,95.3325949 C174,93.6174692 179.175936,93.5348822 181.128462,95.2188529 C181.373496,95.4301936 181.741102,95.5400064 181.945279,95.4628952 C182.14951,95.3857726 182.316539,95.4456658 182.316539,95.5959022 C182.316539,95.7461727 182.81779,96.0560788 183.43043,96.284575 C184.043015,96.5130654 184.61387,96.8112125 184.699076,96.9471081 C184.784227,97.0830037 185.197981,97.2592375 185.618499,97.3387313 C186.516866,97.508534 189.462621,98.7604124 189.888103,99.1531957 C190.077825,99.328315 190.024967,99.5290225 189.739621,99.717078 C189.163038,100.097073 188.851018,100.094213 188.851018,99.7089467 L188.851018,99.7089239 Z M225.996518,104.955856 C225.677551,104.883082 225.111089,104.620678 224.737782,104.372742 C224.364475,104.1248 224.059051,104.03205 224.059051,104.166621 C224.059051,104.301197 223.899132,104.249187 223.703639,104.051044 C223.508147,103.852901 222.726447,103.690779 221.966506,103.690779 C221.104249,103.690779 220.319232,103.490017 219.878475,103.156752 C218.670217,102.243245 215.376267,100.738524 214.187753,100.55717 C213.564015,100.461988 212.764311,100.220993 212.410695,100.021621 C212.057023,99.8222486 211.701013,99.6430174 211.619585,99.6233282 C210.97001,99.466317 209.842581,98.7960816 209.102058,98.1266899 C208.613381,97.6849278 207.899185,97.2002699 207.514944,97.0496599 C206.924821,96.8183471 206.875431,96.7036969 207.196846,96.3111825 C207.655281,95.7512085 208.822961,95.9704906 209.694411,96.780237 C210.020232,97.0829456 210.886569,97.6241898 211.619585,97.983005 C212.352602,98.3418147 213.183854,98.7596201 213.466704,98.9114596 C213.749554,99.0632936 214.431276,99.1875209 214.981691,99.1875209 C215.551906,99.1875209 216.324793,99.4605442 216.778332,99.8221824 C217.216151,100.171249 217.650869,100.379278 217.744373,100.284483 C217.942477,100.083677 219.534323,100.856829 220.272344,101.51231 C220.551658,101.760401 221.484628,102.142009 222.345579,102.360327 C226.256795,103.352122 226.873244,103.586142 226.9742,104.117472 C227.104855,104.805208 226.733234,105.123917 225.996518,104.955856 Z M187.640053,107.621024 C187.000998,107.380283 186.179909,106.967715 185.815427,106.704197 C185.451048,106.440686 184.834419,106.140315 184.445244,106.036717 C183.611163,105.814689 181.860774,103.936072 182.008835,103.421861 C182.218657,102.693339 182.950456,102.916363 184.00137,104.029128 C184.596295,104.659028 185.313865,105.174407 185.595965,105.174407 C185.878064,105.174407 186.399062,105.301753 186.753697,105.4574 C188.591211,106.263841 189.682078,106.523855 191.192899,106.5155 C192.978911,106.505607 193.290241,106.689126 192.777235,107.449411 C192.342176,108.09424 189.177011,108.199971 187.640053,107.621024 Z M179.259068,108.576604 C178.688785,108.341935 177.170496,107.557441 175.885143,106.833278 C174.599788,106.109114 173.387236,105.51662 173.190595,105.51662 C172.709056,105.51662 171.749462,104.339104 172.060965,104.130475 C172.687292,103.710947 174.340846,104.29206 177.478518,106.034413 C179.583521,107.203302 180.920402,108.139179 180.981452,108.486631 C181.097021,109.144267 180.690298,109.165507 179.259068,108.576604 Z M99.1993574,74.2263201 C99.7066828,73.6464408 100.062814,73.1036141 99.9907261,73.0200285 C99.7846694,72.7810712 96.5102374,74.7520605 96.5102374,75.115069 C96.5102374,75.2938201 96.3111416,75.4400673 96.0678024,75.4400673 C95.4737007,75.4400673 94.7972471,76.4278329 95.0572218,76.9155904 C95.3138932,77.3971303 97.8865052,75.7268846 99.1993574,74.2263201 Z M90.14193,81.2849123 C90.6371968,80.8916115 91.2578503,80.216612 91.5211848,79.7849123 L92,79 L91.1381326,79.5610985 C90.2985524,80.1076303 88.6821965,82 89.0549109,82 C89.1575103,82 89.6467188,81.6782132 90.14193,81.2849123 Z M94.2101913,82.2205882 C94.6449371,81.7997767 95.0002944,81.2965712 94.9999998,81.1023485 C94.9997052,80.8845581 94.7492171,81.019894 94.3466784,81.4554791 C93.987737,81.8439202 93.5103268,82.3471256 93.2858596,82.5737145 C92.5363099,83.3301851 93.4079615,82.9972066 94.2101913,82.2205882 Z M86.1604804,84.4850707 C87.4695426,84.0540174 87.8223014,83.7570894 87.955596,82.9742877 C88.0468428,82.4384276 87.9927812,82 87.8363173,82 C87.4641792,82 84.206684,84.3354014 84.0381349,84.7231027 C83.8537107,85.1470899 84.3030795,85.0966904 86.1604804,84.4850707 Z M85.5255192,85.8086665 C85.9127085,85.363899 86.1014171,85 85.9449743,85 C85.7884875,85 85.6604369,85.1179149 85.6604369,85.2620384 C85.6604369,85.4061571 85.4177612,85.5258815 85.1211626,85.5280856 C84.4030401,85.5334274 84.1184586,85.7925303 84.0244345,86.5265555 C83.9579661,87.0454542 84.0112289,87.0974576 84.38398,86.8766523 C84.6246307,86.7340303 85.13833,86.253434 85.5255192,85.8086665 Z M78.5780063,88.585252 C79.6200707,88.1854801 80.2929396,87.3888839 79.8735492,87.0514963 C79.6929816,86.9062131 79.5162612,87.0036973 77.7839246,88.2040347 C76.4923509,89.0989946 76.8239307,89.2581752 78.5780063,88.585252 Z M72.8111984,94.2428438 C72.5198045,93.8838919 72.1715407,93.9280506 72.0374107,94.3409742 C71.9032064,94.7538749 72.1416599,95.0475587 72.5673321,94.9936098 C73.0376403,94.9338187 73.1332887,94.6395416 72.8111984,94.2428894 L72.8111984,94.2428438 Z M69.3826312,95.6394541 C70.0325368,95.412883 70.6528742,95.2173776 70.7612189,95.2049834 C71.2234066,95.1521492 71.3568165,94.6587658 70.9088976,94.6587658 C70.6381171,94.6587658 70.4165449,94.4496479 70.4165449,94.1940629 C70.4165449,93.7502501 70.845475,93.4284685 72.4844264,92.6427535 C73.0989044,92.3481969 73.1407883,92.2490176 72.7338309,92.0524798 C72.4576251,91.9191121 72.0074274,92.0479914 71.699863,92.3477994 C71.4002196,92.6401438 70.3674452,93.5939278 69.404821,94.4673063 C67.5365932,96.1623003 67.5343146,96.283793 69.3825769,95.6394541 L69.3826312,95.6394541 Z M75,96.2646694 C75,96.1191078 74.7749518,96 74.499954,96 C74.2249564,96 74,96.2860197 74,96.6355945 C74,96.9851693 74.2249564,97.1042661 74.499954,96.9002639 C74.7749518,96.6962507 75,96.4102309 75,96.2646694 Z M70.96625,96.0710184 C70.8439402,95.8882309 70.523543,96.0706477 70.2541264,96.4763915 C69.8648798,97.062742 69.9104632,97.130933 70.476428,96.8087433 C70.8680812,96.5857979 71.0884867,96.2538168 70.96625,96.0710184 Z M81.3334953,96.702677 C81.2603738,96.5391518 81.3054859,96.3155612 81.4341594,96.2058013 C81.5626207,96.0960532 81.7815185,95.6908768 81.9205894,95.305415 C82.0931443,94.8271455 81.9861144,94.9088671 81.5835429,95.5627395 C80.9416183,96.6053408 80.8422698,97 81.2217123,97 C81.3563273,97 81.4066168,96.8662023 81.3334953,96.702677 Z M72.7224971,97.8015416 C72.9295896,97.457187 73.0465888,97.1116182 72.982403,97.0336148 C72.7905108,96.800286 70.9250695,97.8343887 70.3246511,98.5069444 C69.7946318,99.1007345 69.8315235,99.1145141 71.0562151,98.779973 C71.7655888,98.5861955 72.5154046,98.1459031 72.7224971,97.8015416 Z M81.8175246,99.6923793 C81.984077,99.5112176 82.0485428,99.2394587 81.9607105,99.0884614 C81.8729538,98.937464 81.7366494,98.9845734 81.6578915,99.193149 C81.5791335,99.4017247 81.3757165,99.6633464 81.2058746,99.7745364 C80.9313751,99.9542352 80.9313751,99.9792042 81.2058746,99.9992313 C81.3757165,100.011586 81.6509722,99.8735346 81.8175246,99.6923793 Z M80.1705691,102.728381 C80.7050482,101.988965 81.0727628,101.278912 80.9877899,101.150482 C80.7288221,100.759304 79.1121966,101.189689 78.6743171,101.766382 C78.3587199,102.182002 77.8445441,102.310832 76.4695911,102.318831 C74.7583905,102.328768 74.7124045,102.348372 75.4638566,102.747035 C75.8968771,102.976823 76.4731196,103.103287 76.7443504,103.028063 C77.0155811,102.952844 77.5116517,103.149267 77.8466844,103.464557 C78.7532163,104.317525 79.1016111,104.20717 80.1705691,102.728381 Z M53.4781798,104.151509 C54.0355439,103.864941 54.750418,103.630471 55.0667713,103.630471 C55.3831245,103.630471 56.7895716,103.288169 58.1921796,102.869801 C60.0953114,102.302113 60.7423614,101.988307 60.7423614,101.63291 C60.7423614,100.983478 61.1847654,100.770061 63.028711,100.530015 C63.89507,100.417232 64.6890725,100.192803 64.793155,100.031289 C64.8971842,99.8697694 65.7594375,99.4281479 66.7092438,99.0499023 C68.051919,98.5152116 68.2746939,98.3501272 67.7103449,98.3079892 C66.3873985,98.2092167 66.3009652,98.1935134 66.1190341,98.0190122 C65.9230795,97.8309967 63.0179401,99.0902092 62.765572,99.4725418 C62.5905726,99.7376927 59.4687368,101.148036 58.8703156,101.232291 C58.6546323,101.262675 58.3017542,101.418941 58.0860709,101.579601 C57.470747,102.037867 55.2095115,102.962092 53.7743244,103.341893 C52.2648079,103.741371 50,104.685473 50,104.915243 C50,105.21289 52.4678008,104.671023 53.4781798,104.151509 Z M31.274039,108.810146 C30.7833154,108.321915 30.9760515,107.777415 31.657459,107.727155 C32.02133,107.700297 32.6498688,107.65673 33.0541879,107.630294 C34.683237,107.523776 34.9079968,107.476255 34.7101303,107.280169 C34.281132,106.855182 37.3703633,105.994515 40.3178911,105.717822 C42.0031031,105.559631 43.936134,105.230794 44.6135454,104.987085 C45.2909567,104.743376 46.4137293,104.364504 47.1085836,104.145149 C47.8033838,103.925799 48.5581813,103.593159 48.7858572,103.405959 C49.3674135,102.927797 51.3452128,101.94952 51.7303609,101.94952 C51.9068961,101.94952 52.573615,101.574254 53.2119282,101.115588 C53.8502955,100.656922 54.7033241,100.213675 55.1076432,100.130602 C58.0480427,99.5263988 60.8456047,98.1176362 63.2706553,96.0199438 C64.3605403,95.0771875 66.1344249,93.8817498 67.2126991,93.3634073 C68.2909194,92.8450701 69.873634,91.9102269 70.7297948,91.2859816 C71.5859554,90.6617362 72.7726674,89.8232509 73.3669144,89.4226833 C76.92327,87.0253877 77.9316647,86.310552 78.4011652,85.8539942 C78.6894862,85.5735984 79.1006097,85.3441798 79.3147849,85.3441798 C79.7370869,85.3441798 81.0354767,84.0762517 83.1928893,81.5569973 C85.3352352,79.0553826 86.8386196,77.7354876 89.220684,76.2649403 C91.3434808,74.9544242 92.2449498,74.2909561 93.8060634,72.8901761 C94.2078443,72.5296658 94.6521256,72.2347013 94.7932889,72.2347013 C95.0883603,72.2347013 97.1947402,70.4316202 98.281655,69.2486539 C98.6865142,68.808029 99.1985149,68.4475187 99.4194404,68.4475187 C99.640366,68.4475187 99.8973114,68.2508758 99.9904122,68.0105374 C100.083513,67.7701936 100.295366,67.573556 100.461263,67.573556 C101.168484,67.573556 101.913291,66.2658595 101.755872,65.3005627 C101.625456,64.5009951 101.70781,64.2975627 102.244544,64.0959975 C102.605175,63.9605239 103.035955,63.9694749 103.220429,64.116275 C103.402094,64.2608172 103.767855,64.2965354 104.033171,64.195662 C104.794719,63.906128 107.100315,66.2629062 106.928208,67.1549795 C106.766632,67.9923947 107.618526,69.6894072 109.188118,71.6566447 C109.822435,72.4517234 110.755226,73.7919333 111.260963,74.6348967 C111.766645,75.4778548 113.16629,77.7406879 114.371309,79.6634114 C117.192308,84.1647127 117.333904,84.4914737 116.671451,84.9713746 C115.482363,85.8327965 113.987511,84.8910782 113.332457,82.8679521 C113.124924,82.2270461 112.777092,81.5060201 112.55946,81.2656817 C111.094472,79.6478582 110.682376,79.094311 110.682376,78.744255 C110.682376,78.5258527 110.285402,77.9356242 109.80024,77.4326368 C109.315079,76.9296494 108.918104,76.3947051 108.918104,76.2438709 C108.918104,75.9100423 107.709467,74.8800236 107.300882,74.8656261 C107.139143,74.8599014 106.623038,74.0754696 106.154024,73.1223875 C105.330373,71.4486377 104.747304,70.888146 104.186809,71.2313268 C104.039706,71.3214142 103.919333,71.5297636 103.919333,71.6943158 C103.919333,71.8588733 103.514528,72.4082901 103.019754,72.915242 C99.5622239,76.4578809 97.744327,78.5175063 97.744327,78.892168 C97.744327,79.0263414 97.4797132,79.3734013 97.1562903,79.663406 C96.8328134,79.9534161 96.5681456,80.2976938 96.5681456,80.4284698 C96.5681456,80.6846878 92.9614053,86.0319219 92.2208647,86.8736227 C91.9741258,87.1540184 91.8589377,87.3834316 91.9648912,87.3834316 C92.0707908,87.3834316 91.9260092,87.6256587 91.6429264,87.9217038 C91.3598977,88.2177597 90.8636658,88.8296727 90.5401889,89.2815171 C90.216766,89.7333668 89.3820984,90.7037678 88.6853541,91.4379713 C87.4676985,92.7210674 85.8470199,95.1769857 84.948359,97.1010145 C84.7130687,97.6046331 84.0660069,98.6066059 83.5103718,99.3276265 C82.9547369,100.048647 82.2710072,101.359597 81.9910026,102.240846 C81.710944,103.122091 81.1728058,104.141971 80.7951101,104.507243 C80.4174145,104.87252 80.0299442,105.527995 79.9340892,105.963853 C79.5738364,107.601483 79.1399238,108.336312 78.3862064,108.585227 C77.7280741,108.802565 77.556345,108.734301 77.2396185,108.129445 C76.7163312,107.130212 76.7738442,106.680588 77.4723167,106.310244 C77.9260484,106.06967 78.0548991,105.757098 77.9869095,105.061876 C77.9045012,104.219303 77.7886112,104.120554 76.7200574,103.982742 C74.8264486,103.738519 66.1461974,104.246819 63.5494719,104.753985 C62.6469228,104.93026 61.8247299,104.446432 62.0478695,103.870366 C62.1260656,103.668447 61.9528245,103.470445 61.6628294,103.430361 C60.5767787,103.280244 57.9180039,103.433571 57.7654999,103.655398 C57.5498667,103.968671 56.5969869,104.32542 55.6380049,104.451862 C55.2019321,104.509356 53.3687524,105.041636 51.5643022,105.634706 C48.9204862,106.503634 48.1783255,106.647935 47.7418207,106.377882 C47.3238928,106.119293 46.9169816,106.141764 45.9599977,106.476273 C45.277888,106.714712 44.5429637,107.05518 44.3268444,107.232883 C44.1107252,107.410586 43.9339198,107.466641 43.9339198,107.357453 C43.9339198,107.24826 43.7685093,107.261298 43.5663767,107.386398 C43.035421,107.714994 42.6484908,107.774761 39.3017741,108.045125 C37.6436175,108.179079 36.1219261,108.42342 35.9202256,108.5881 C35.4364683,108.983147 31.6307276,109.165007 31.274039,108.810125 L31.274039,108.810146 Z M160.583349,37.2034178 C160.812489,36.9637076 161,36.5389689 161,36.2595488 C161,35.8326896 160.804775,35.902168 159.777778,36.6944417 C159.105601,37.2130571 158.430609,37.6373708 158.277808,37.6373708 C158.125008,37.6373708 158,37.7450149 158,37.8765803 C158,38.250581 160.107193,37.7014982 160.583349,37.2034178 Z M158.609379,37.736379 C158.527834,37.5913927 158.609427,37.4145867 158.790736,37.3434831 C158.972045,37.2723848 159.050795,37.1308024 158.965683,37.0288636 C158.880619,36.9269249 158.596608,37.1037256 158.334573,37.4217595 C157.894024,37.9564549 157.892,38 158.308066,38 C158.555498,38 158.691118,37.8813705 158.609524,37.736379 L158.609379,37.736379 Z M156.68639,41.5000061 C156.941666,41.2250015 157.066702,41 156.964126,41 C156.861619,41 156.568818,41.2250015 156.313542,41.5000061 C156.058334,41.7749985 155.933299,42 156.035875,42 C156.138382,42 156.431114,41.7749985 156.68639,41.5000061 Z M158.839235,40.1070633 C158.966887,39.4981771 159.032132,39 158.984317,39 C158.802136,39 157.455344,41.77854 157.633177,41.7874686 C157.736038,41.7925707 157.637481,41.9384331 157.410111,42.1114838 C157.184548,42.2845232 157,42.6159818 157,42.8480465 C157,43.6235152 158.602827,41.2348411 158.839235,40.1070633 Z M154.686413,44.5 C154.941694,44.2250015 155.066664,44 154.964154,44 C154.861644,44 154.568838,44.2250015 154.313557,44.5 C154.058276,44.7749985 153.933306,45 154.035884,45 C154.138394,45 154.431132,44.7749985 154.686413,44.5 Z M152.268842,45.0169318 C152.799162,44.4635244 153.576153,43.3744277 153.995419,42.5967237 C154.739494,41.2164804 155.351567,40.8152358 155.598971,41.5455636 C155.674514,41.7686045 155.80149,41.7042657 155.928523,41.3785885 C156.051999,41.0617897 156.01293,40.9230726 155.831188,41.0335818 C155.664069,41.1352347 155.527268,40.9381072 155.527268,40.5955062 C155.527268,39.2587944 154.613703,40.1158939 152.173877,43.7414695 C150.570664,46.1238578 150.616621,46.740915 152.268842,45.0169318 Z M153.553455,48.4088783 C154.237945,47.5337608 154.993857,46.6548555 155.233306,46.4557572 C155.847913,45.9446765 156.23874,45 155.835531,45 C155.649736,45 155.124109,45.4959234 154.667526,46.1020393 C154.210943,46.708161 153.639847,47.3815632 153.398579,47.5984989 C152.448967,48.4520542 151.649474,50 152.158242,50 C152.241137,50 152.869035,49.2839958 153.553455,48.4088783 Z M148.836884,50.5414592 C149.184588,50.2675359 149.469061,49.8725517 149.469061,49.6637239 C149.469061,49.4548906 149.585745,49.2388945 149.728267,49.1837197 C149.870916,49.1285613 150.258932,48.6574885 150.590637,48.1369225 C151.115462,47.3132069 151.126571,47.1680102 150.676087,47.0175297 C150.301974,46.8925392 149.822351,47.4258779 148.945315,48.9420678 C147.716704,51.0659162 147.69112,51.4442203 148.836884,50.5414592 Z M153.387269,51.6786442 C153.392859,51.56589 153.608438,51.2583663 153.870476,50.9952665 C155.131409,49.7293422 156.408053,47.9249941 156.688764,47.0120767 L157,46 L156.127119,46.6183407 C155.646987,46.9584256 155.246634,47.3480752 155.23741,47.4842287 C155.228465,47.620377 154.878037,48.1349598 154.459515,48.6277348 C154.040937,49.1205147 153.698449,49.71641 153.698449,49.9519589 C153.698449,50.1875077 153.458718,50.6008125 153.165708,50.8704186 C152.091337,51.8590358 151.865863,52.2345986 152.065731,52.7023879 C152.249275,53.1318779 152.326371,53.1145883 152.825232,52.5320217 C153.130654,52.1754202 153.383523,51.7914033 153.387269,51.6786442 Z M147.594861,51.6114848 C147.871825,50.8478045 148.048792,50.1427112 147.988057,50.0446077 C147.927356,49.9465041 147.877685,50.0157013 147.877685,50.1983853 C147.877685,50.3810692 147.771104,50.7108695 147.640878,50.9312822 C147.390973,51.3542179 146.896436,53 147.019286,53 C147.058857,53 147.317897,52.3751707 147.594861,51.6114848 Z M150,53.2646703 C150,53.1190972 149.775044,53 149.500046,53 C149.225048,53 149,53.2860207 149,53.6355966 C149,53.9851726 149.225048,54.1042698 149.500046,53.9002559 C149.775044,53.696253 150,53.4102323 150,53.2646703 Z M149.533514,55.563875 C149.659037,55.3240005 149.833797,54.8307696 149.921827,54.4678148 C150.059789,53.8989082 150.030489,53.8708807 149.709575,54.2646632 C149.217975,54.8678128 148.813668,56 149.089808,56 C149.208309,56 149.407948,55.8037431 149.533514,55.563875 Z M148.984112,56.3810344 C149.047472,56.058302 148.922155,55.944186 148.593248,56.0250146 C148.326959,56.0904451 148.067175,56.3577249 148.015888,56.618963 C147.952528,56.9416956 148.077845,57.055818 148.406752,56.9749829 C148.673002,56.9095589 148.932825,56.6422791 148.984112,56.3810344 Z M144.234305,57.1883204 C145.361065,56.0414118 146.072671,54.8778894 146.072671,54.18265 C146.072671,53.8455914 146.276132,53.5821727 146.536364,53.5821727 C146.791372,53.5821727 147,53.4383391 147,53.2625405 C147,52.5505629 146.163786,53.2972743 144.635892,55.3736505 C143.748812,56.5790702 143.013761,57.6649048 143.00235,57.786614 C142.961476,58.2200928 143.457017,57.9795843 144.234305,57.1883204 Z M199,59.2646592 C199,59.1190972 198.775023,59 198.500092,59 C198.225069,59 198,59.2860097 198,59.6355966 C198,59.9851726 198.225069,60.1042698 198.500092,59.9002559 C198.775023,59.696253 199,59.4102323 199,59.2646592 Z M147.267046,59.6650773 C148.165347,58.2414583 148.207747,58 147.559195,58 C147.148907,58 145,60.4453632 145,60.9122727 C145,60.998758 145.338151,61.0259907 145.751481,60.9727819 C146.213544,60.9132902 146.79716,60.4097739 147.267046,59.6650773 Z M148.88351,64.8460709 C149.127004,64.7515832 149.326282,64.4273356 149.326282,64.1255364 C149.326282,63.823732 149.609724,63.2805381 149.956147,62.9184384 C150.30257,62.5563438 150.619277,62.1109284 150.659945,61.9286282 C150.700561,61.7463333 151.027807,61.1248563 151.387032,60.547574 C151.746309,59.9702866 152.134017,58.9884307 152.248669,58.3656695 C152.363269,57.7429032 152.652469,56.8512199 152.891284,56.3841518 C153.1301,55.9170784 153.451176,55.2850218 153.60485,54.9795783 C153.758525,54.6741348 154.171477,53.8779894 154.522528,53.210368 C154.873578,52.5427415 155.076301,51.9980764 154.973063,52.0000051 C154.744325,52.0041642 153.508245,53.8516732 153.081205,54.827353 C152.910873,55.2166372 152.563164,55.7099228 152.308617,55.9235404 C152.054069,56.137158 151.845794,56.5511052 151.845794,56.8434218 C151.845794,57.1357384 151.734484,57.3749081 151.598495,57.3749081 C151.462507,57.3749081 151.273769,57.5978315 151.179014,57.8702888 C151.084362,58.1427461 150.567606,59.1299672 150.030748,60.0641141 C149.493838,60.9982558 148.921864,62.2402428 148.759707,62.8240806 C148.597549,63.4079237 148.351587,63.885613 148.21308,63.885613 C148.074624,63.885613 147.98028,64.140379 148.003519,64.4517595 C148.048763,65.0563041 148.184597,65.1172701 148.88351,64.8460864 L148.88351,64.8460709 Z M194.536313,63.9195167 C194.441966,63.8370297 194.768963,63.4007495 195.263014,62.9500016 C196.546787,61.778802 196.053165,61.6561591 194.555624,62.7742356 C192.795516,64.0883543 191.594565,65.6738969 192.127483,65.9799949 C192.545885,66.2203241 194.882192,64.2218533 194.536313,63.9195167 Z M144.218927,65.8895581 C145.102126,65.0055962 146.179304,63.2806237 145.974697,63.0779045 C145.536139,62.6432731 143.640533,64.1072865 142.860071,65.4833973 L142,67 L142.808936,66.7455591 C143.253912,66.6056038 143.888387,66.2204086 144.218927,65.8895581 Z M138.886798,67.4124606 C139.106051,67.068447 138.998782,66.9132802 138.634538,67.0487103 C138.285619,67.1786029 138,67.4485759 138,67.6486399 C138,68.2046945 138.460079,68.0821641 138.886798,67.4124606 Z M136.733109,66.3836265 C136.733109,66.165892 136.851638,65.9877366 136.996452,65.9877366 C137.32652,65.9877366 138.320055,64.5634958 138.320055,64.0903791 C138.320055,63.8968995 138.507057,63.6700519 138.7357,63.5862746 C138.964233,63.5024972 139.063909,63.2989492 138.957129,63.1339469 C138.688867,62.7193296 137.99977,63.3020495 137.457508,64.4020114 C137.220286,64.8833905 136.746607,65.6935269 136.405009,66.2023289 C135.908541,66.9417888 135.879141,67.092516 136.2585,66.9534699 C136.519549,66.8577975 136.733109,66.6013713 136.733109,66.3836265 Z M147.239807,67.6064169 C147.897582,66.3331008 148.18677,65.6732089 147.873162,66.1610901 C147.795396,66.2821472 147.529322,66.3119119 147.282053,66.2272378 C146.907264,66.0989041 146,67.8866093 146,68.7535023 C146,69.3665886 146.633028,68.780826 147.239807,67.6064169 Z M189.935935,68.2607127 C190.177229,67.7848561 189.68747,68.0065801 189.288944,68.5536058 C188.893946,69.0958315 188.894368,69.0975889 189.349383,68.8067289 C189.601376,68.6456344 189.865334,68.3999288 189.935935,68.2607127 Z M143.699217,69.0721476 C144.280904,67.7477093 143.943634,67.6006775 143.327023,68.9098794 C143.044603,69.509444 142.921135,70 143.052662,70 C143.18419,70 143.475117,69.5824689 143.699217,69.0721476 Z M141.846195,69.1044811 C142.020121,68.7154588 142.382754,68.0499338 142.65189,67.6255334 C143.129229,66.8729422 143.127259,66.8638757 142.574001,67.2582125 C141.872797,67.7579732 140.570886,70.2317671 141.140323,69.9823927 C141.354595,69.8885563 141.672216,69.4934976 141.846195,69.1044811 Z M141.987453,71.1059934 C141.844942,70.7412922 141,71.3970466 141,71.8723342 C141,72.0644498 141.2352,72.0371172 141.55301,71.8080376 C141.857161,71.5888302 142.05266,71.272898 141.987453,71.1059804 L141.987453,71.1059934 Z M135,73.4999969 C135,73.2250002 134.838987,73 134.642211,73 C134.445434,73 134.180587,73.2250002 134.05372,73.4999969 C133.913239,73.8045681 134.05372,74 134.411509,74 C134.735227,74 135,73.7749998 135,73.4999969 Z M199.661367,73.8392198 C199.8476,73.8377085 200,73.651246 200,73.4249278 C200,72.8705585 198.636066,72.8538915 198.184689,73.4027479 C197.79451,73.8772468 198.037265,74.1043435 198.773987,73.9540037 C199.075801,73.8924176 199.475085,73.8407652 199.661367,73.8392198 Z M143.721982,73.5748589 C144.389607,73.9557286 145.382215,70.8450553 144.84775,70.0468177 C144.535961,69.5812229 142.949412,72.718283 143.001241,73.6978121 C143.01951,74.0531881 143.096307,74.096525 143.216882,73.8203782 C143.319526,73.5854199 143.546804,73.4749324 143.721982,73.5748589 Z M190.138805,74.8462807 C190.438261,74.7413957 190.555579,74.4084591 190.457743,73.9413485 C190.343399,73.3950243 190.090494,73.2023555 189.487819,73.2023555 C188.249151,73.2023555 188.733718,72.5148551 190.334598,72.0009941 C191.351376,71.6746277 191.781138,71.3485051 191.924554,70.7944196 C192.032708,70.3767961 192.361478,69.7795168 192.655168,69.4671384 C193.161888,68.9280879 193.147018,68.9112636 192.362874,69.136656 C190.698934,69.6149459 189.29761,69.8334689 188.865359,69.6820662 C188.62168,69.5967089 188.0624,69.8813716 187.622442,70.3146451 C186.841211,71.0840792 186.835627,71.1257108 187.381554,72.1031535 C187.689022,72.6535606 188.266326,73.4231222 188.664589,73.8132904 C189.062791,74.2034587 189.388648,74.6328267 189.388648,74.7674493 C189.388648,75.0562559 189.50457,75.0684379 190.138805,74.8462807 Z M143,76.4999969 C143,76.2250002 142.937415,76 142.860203,76 C142.783264,76 142.512786,76.2250002 142.259247,76.4999969 C141.881558,76.9095016 141.906864,77 142.399044,77 C142.72959,77 143,76.7749998 143,76.4999969 Z M173.089335,76.0276255 C171.889652,74.990819 171.358815,74.7785293 171.04905,75.2116819 C170.765684,75.6079428 171.758794,76.5016308 172.775075,76.7649658 C174.341501,77.1708285 174.360557,77.1261842 173.089335,76.0276255 Z M193.298559,76.4499819 C193.895896,76.0923545 194.378554,75.4252989 194.678301,74.5429581 C195.249229,72.8627086 195.077365,72.5983478 194.025064,73.538083 C193.542612,73.9689499 192.97451,74.1884881 192.632426,74.0762897 C192.022707,73.8763342 191,74.4828187 191,75.0443258 C191,75.3430318 192.09993,77 192.298203,77 C192.342903,77 192.793295,76.7524896 193.298559,76.4499819 Z M134,77.5000092 C134,77.2250046 133.775023,77 133.5,77 C133.224977,77 133,77.2250046 133,77.5000092 C133,77.7750046 133.224977,78 133.5,78 C133.775023,78 134,77.7750046 134,77.5000092 Z M139.965129,77.6732609 C140.04674,77.4811151 140.190959,77.3935586 140.28563,77.4787035 C140.380301,77.563842 140.612162,77.4860898 140.800853,77.3059011 C141.091243,77.0286609 141.073455,76.9000376 140.685356,76.4692121 C140.082708,75.8001236 139.938359,75.8236905 139.344214,76.6881886 C138.94028,77.2759643 138.906177,77.4736656 139.167065,77.7141698 C139.592823,78.1066305 139.785245,78.0967694 139.965129,77.6732609 Z M199,77.5000046 C199,77.2250026 198.713983,77 198.364369,77 C198.014866,77 197.89572,77.2250026 198.099735,77.5000046 C198.303749,77.7749974 198.589766,78 198.735255,78 C198.880854,78 199,77.7749974 199,77.5000046 Z M131.956545,78.1731605 C132.0637,77.9412934 131.976847,77.9421894 131.649535,78.1764189 C131.398477,78.3561614 131.125737,78.6488478 131.043473,78.8268416 C130.936277,79.0587087 131.023171,79.0578072 131.350483,78.8235831 C131.601581,78.643846 131.874321,78.3511597 131.956545,78.1731659 L131.956545,78.1731605 Z M139.175636,78.7147735 C140.29248,78.3165438 140.271982,78 139.129503,78 C138.630982,78 138.22311,78.0480558 138.22311,78.1067949 C138.22311,78.1655293 138.152389,78.3953503 138.065973,78.6175082 C137.877351,79.1020386 138.0479,79.1169801 139.175826,78.7147735 L139.175636,78.7147735 Z M194.753343,78.7765915 C194.884194,78.6404648 195.286666,78.5893687 195.647763,78.6630471 C196.461946,78.8291902 197.151733,78.3312588 196.970946,77.7079152 C196.896281,77.4507531 196.822499,77.1700916 196.806941,77.0842311 C196.766857,76.8644978 195.327633,77.0947578 193.944527,77.5421084 C192.809875,77.9091154 192.793366,77.9365373 193.3896,78.4647559 C194.072525,79.0697191 194.399652,79.14452 194.753343,78.7765915 Z M131,79.5000046 C131,79.2250026 130.774931,79 130.5,79 C130.224977,79 130,79.2250026 130,79.5000046 C130,79.7749974 130.224977,80 130.5,80 C130.774931,80 131,79.7749974 131,79.5000046 Z M130.955082,80.5 C131.084957,80.2250046 130.923508,80 130.595628,80 C130.268029,80 130,80.2250046 130,80.5 C130,80.7749954 130.1618,81 130.359454,81 C130.557248,81 130.825278,80.7749954 130.955082,80.5 Z M170,80.4667134 C170,80.1671511 169.746886,79.960062 169.437543,80.006512 C169.128199,80.0530153 168.939287,80.2980643 169.017773,80.5511766 C169.217386,81.1951301 170,81.127839 170,80.4667028 L170,80.4667134 Z M196.919329,80.1160366 C196.8291,79.954896 196.551682,79.9625442 196.302881,80.1330139 C195.919184,80.3959167 195.907464,80.5058232 196.225643,80.856932 C196.618518,81.2905145 197.218304,80.6498941 196.919329,80.1160199 L196.919329,80.1160366 Z M127.776453,81.8170885 C127.940563,81.7185496 128.283048,81.2693921 128.537431,80.8189626 L129,80 L128.358119,80.4393359 C127.421283,81.080564 126.693818,82.0046491 127.129537,81.9999824 C127.321188,81.9981909 127.612293,81.9156274 127.776453,81.8170885 Z M124.858568,81.5000031 C124.996372,81.2250002 125.041295,81 124.958404,81 C124.875514,81 124.563936,81.2250002 124.265866,81.5000031 C123.953649,81.7881984 123.911284,82 124.16603,82 C124.409106,82 124.720764,81.7749998 124.858568,81.5000031 Z M138.926262,81.7879957 C141.666242,79.2886397 142.671291,78.2116462 142.877567,77.5538119 C143.09652,76.8556139 143.082581,76.850575 142.323445,77.3539445 C141.895176,77.6379467 141.366752,78.3052493 141.149176,78.8368321 C140.874639,79.5075133 140.333136,79.985723 139.380057,80.3991698 C137.780559,81.0930487 137.288732,81.5308773 137.044368,82.4784901 C136.817327,83.3590295 137.464205,83.1216721 138.926262,81.7879957 Z M134.566826,82.8946433 C134.445537,82.8140663 134.51657,82.6118417 134.724642,82.445256 C135.426695,81.8833213 134.661332,81.8391647 133.827019,82.3934652 L133,82.9428715 L133.893701,82.9920077 C134.385168,83.0190431 134.688115,82.9752327 134.566826,82.8946433 Z M135.796187,81.7134349 L136,81 L135.514858,81.7134349 C134.969027,82.5160758 134.791872,83.4239384 135.306004,82.7835806 C135.463558,82.5873883 135.684135,82.1058238 135.796187,81.7134349 Z M188.990419,83.180397 C188.298127,82.7173972 187.689155,82.2203142 187.637068,82.0757699 C187.487534,81.660423 185.324412,80.640408 184.095629,80.4057833 C183.480287,80.2882858 182.756558,80.1240901 182.487337,80.0408959 C182.218115,79.9577015 181.998823,80.0055395 182.000005,80.1471788 C182.005142,80.5371745 183.968081,81.712387 185.065413,81.9806898 C185.598822,82.1111089 186.228136,82.3295136 186.463917,82.4660376 C187.202953,82.8939126 189.676495,83.9761107 189.969346,83.9996969 C190.123194,84.0120804 189.682659,83.6433968 188.990419,83.180397 Z M194.955597,83.3441791 C194.898745,82.9605243 194.766342,82.6466222 194.661333,82.6466222 C194.556284,82.6466222 194.465964,82.4268952 194.460604,82.1583332 C194.454649,81.8575751 194.342772,81.9915204 194.169476,82.5071118 C193.913682,83.2680262 193.929325,83.3750072 194.341342,83.6830676 C194.991884,84.1694759 195.071326,84.1256525 194.955597,83.3441791 Z M169.999907,83.1613674 C169.999907,82.0636014 169.774645,81.7426075 169.328436,82.2046143 C168.901575,82.6465235 168.887609,83.635443 169.305237,83.8456455 C169.903446,84.146779 170,84.0516745 170,83.1613674 L169.999907,83.1613674 Z M130.241393,83.4690367 C130.426766,83.1770059 130.51149,83.1087402 130.429658,83.317332 C130.347783,83.5259293 130.381534,83.6965963 130.504585,83.6965963 C130.627635,83.6965963 130.792508,83.4806269 130.870973,83.2166637 C131.085567,82.4946556 131.049183,82.4004176 130.634929,82.6056437 C130.360299,82.741707 130.294868,82.663311 130.396813,82.3202886 C130.521633,81.9003858 130.482616,81.8968808 130.04894,82.2890282 C129.78031,82.5319729 129.405591,83.0163244 129.21616,83.3653704 C128.898155,83.951566 128.911275,84 129.388068,84 C129.671977,84 130.055932,83.7610673 130.241393,83.469031 L130.241393,83.4690367 Z M125.92899,84.033764 C125.746245,83.9114989 125.414228,84.1318957 125.191249,84.5235472 C124.869045,85.0895235 124.937302,85.1351432 125.523592,84.7458549 C125.929426,84.476476 126.111735,84.1560366 125.92899,84.033764 Z M121,84.359507 C121,84.1617736 120.775023,84 120.5,84 C120.225069,84 120,84.2680322 120,84.5956279 C120,84.9232166 120.225069,85.0849972 120.5,84.9551279 C120.775023,84.8252586 121,84.5572263 121,84.359507 Z M198.982505,82.8025484 C198.905304,82.0333851 198.815907,81.9470184 198.173957,82.0215759 C196.833853,82.1772203 196.676109,82.5096688 197.522145,83.3954259 C198.473696,84.391695 199.115805,84.1310179 198.982505,82.8025484 Z M122.611954,84.6521359 C123.079947,84.2306141 123.126069,84 122.742512,84 C122.593132,84 122.335273,84.228248 122.169503,84.5072178 C121.8179,85.0990652 122.036359,85.1706206 122.611954,84.6521359 Z M124.921736,84.6856887 C125.032181,84.51282 125.292413,84.4655419 125.500093,84.5806361 C125.707715,84.6957248 125.774828,84.6797022 125.649116,84.5450241 C125.523404,84.4103405 125.571023,84.0281902 125.754923,83.6957947 C126.311849,82.6891737 125.89502,82.7834688 124.753983,83.9222119 C123.973523,84.7011603 123.819216,85 124.197526,85 C124.485354,85 124.81129,84.8585573 124.921736,84.6856943 L124.921736,84.6856887 Z M135,85.1550742 C135,84.7885805 134.381552,85.123837 134.146141,85.6179799 C133.913774,86.1056923 133.918785,86.1075459 134.454947,85.7308535 C134.754714,85.5202102 135,85.2611091 135,85.1550742 Z M139.360433,86.4507553 C141.455676,84.1744764 141.581578,83.0224156 139.513765,85.0478922 C138.682303,85.8623679 138.001145,86.6340566 138.000033,86.7627554 C137.993855,87.1973403 138.854291,87.0006191 139.360433,86.4507553 Z M136.603911,85.5725717 C136.697393,85.3374875 136.886148,85.1451434 137.023336,85.1451434 C137.406106,85.1451434 139.367944,83.1093236 139.367944,82.7121018 C139.367944,82.285448 140.764548,81.3595968 141.103342,81.5616642 C141.409221,81.7441174 142.133334,80.4714722 141.978577,80.0233934 C141.915189,79.8398308 140.775664,80.7568431 139.446299,82.0612019 C136.67489,84.780436 135.641265,86 136.108029,86 C136.287294,86 136.510428,85.807656 136.603911,85.5725717 Z M132.32839,86.4168871 C133.307821,85.5633361 133.201644,84.8992995 132.103748,85.0126291 C131.503248,85.0746082 131.011505,85.4157694 130.604986,86.0524442 L130,87 L130.82969,87 C131.285917,87 131.960397,86.7375992 132.32839,86.4168871 Z M127.954464,86.4649114 C128.52953,86.3969522 129,86.2449759 129,86.1271784 C129,85.8481789 126.871292,86.0596461 125.681082,86.4568877 C124.55043,86.8342481 124.928874,87.2171247 126.07335,86.8537595 C126.532928,86.7078507 127.379398,86.5328669 127.954464,86.4649114 Z M168.728108,87.1161121 C169.105248,86.0320622 169.102724,86 168.640742,86 C168.297795,86 168,86.8154175 168,87.754656 C168,88.2914096 168.459421,87.8885131 168.728108,87.1161121 Z M119.889979,87.7051639 C120.186698,87.4688222 120.271399,87.4688222 120.271399,87.7051639 C120.271399,88.1762474 121.064068,88.0639921 121.701753,87.5025853 C122.352922,86.9293475 121.83508,86.7994944 121.1319,87.3596921 C120.808154,87.6176031 120.576874,87.6446275 120.335962,87.4526801 C119.948996,87.1444175 119,87.3540974 119,87.7478607 C119,88.0983412 119.421873,88.0780972 119.889979,87.7051685 L119.889979,87.7051639 Z M133.91857,88.5346102 C134.02925,88.2790931 134.026834,88.046017 133.912962,88.0084965 C133.659553,87.9248993 133,88.4785618 133,88.7749096 C133,89.1834892 133.718819,88.9954152 133.91844,88.5346102 L133.91857,88.5346102 Z M161.73509,89.1420399 C161.759474,88.7532557 162.083134,87.9336664 162.454371,87.3207296 C162.825607,86.7077927 163.064248,86.129799 162.984701,86.0363092 C162.769361,85.7831189 161.884701,86.9184395 161.884701,87.4480031 C161.884701,87.7001424 161.685563,87.9962903 161.442154,88.1061082 C160.920873,88.3412886 160.825504,90.1880052 161.345213,89.984347 C161.535248,89.9098545 161.71076,89.5308176 161.73509,89.1420399 Z M122.925764,89.5 C123.0705,89.2249954 122.99692,89 122.763121,89 C122.528932,89 122.218972,89.2249954 122.074236,89.5 C121.9295,89.7749954 122.00308,90 122.236879,90 C122.471068,90 122.781028,89.7749954 122.925764,89.5 Z M121.925764,89.5 C122.0705,89.2250046 121.99692,89 121.763121,89 C121.52901,89 121.218972,89.2250046 121.074236,89.5 C120.9295,89.7750046 121.00308,90 121.236879,90 C121.47099,90 121.781028,89.7750046 121.925764,89.5 Z M168.609568,89.3961683 C168.819215,89.0486801 168.994825,88.541408 168.999831,88.2688955 C169.013003,87.5500435 168.253342,88.4003283 168.062716,89.3177383 C167.87994,90.197183 168.106974,90.229718 168.609568,89.3961683 Z M138,90.3644141 C138,90.014827 137.775023,89.8957298 137.5,90.0997438 C137.224977,90.3037578 137,90.5897675 137,90.7353407 C137,90.8809138 137.224977,91 137.5,91 C137.775023,91 138,90.7139902 138,90.3644141 Z M136.145224,89.999912 C136.450769,89.4765141 137.035734,88.6574728 137.445095,88.1797992 C138.268078,87.2193949 138.16517,86.7638128 137.205998,87.1214808 C136.716672,87.3039111 135,90.1787459 135,90.8156306 C135,91.2846636 135.676401,90.8028867 136.145224,89.999912 Z M130.261701,89.7432951 C131.112831,89.4986928 132,88.6667932 132,88.1132264 C132,88.0495404 131.529533,87.9986019 130.954433,88.0000293 C130.040854,88.0023768 129.840922,88.1313265 129.369864,89.0226535 C128.771604,90.1546812 128.786965,90.167086 130.261701,89.7432951 Z M126.688539,90.4821922 C127.124119,89.9675639 127.117632,89.9431983 126.57517,90.0530152 C126.258851,90.1170512 126,90.362578 126,90.5986256 C126,91.1623575 126.131642,91.140097 126.688539,90.4821922 Z M236.556822,91.4438827 C235.994263,90.8495147 234.540781,90 234.086317,90 C233.631343,90 235.080635,91.2533618 235.966177,91.6256431 C237.219549,92.1526021 237.225721,92.1506962 236.556822,91.4438827 Z M117.375037,92.8062479 C118.003645,92.5535436 120,89.8466095 120,89.2470572 C120,88.8932169 119.827252,88.9135068 119.153889,89.3464409 C118.203687,89.957337 116,92.3288795 116,92.7405348 C116,93.0575311 116.670425,93.0895676 117.375037,92.8062479 Z M166.886793,92.4124606 C167.106045,92.068447 166.998777,91.9132802 166.634653,92.0487103 C166.285617,92.1786029 166,92.4485759 166,92.6486399 C166,93.2046945 166.460076,93.0821641 166.886793,92.4124606 Z M160.733495,91.9193532 C160.973221,91.4080676 161.069175,90.9943835 160.946755,91.0000577 C160.824282,91.0058715 160.516069,91.5003901 160.261844,92.0993125 C159.709213,93.4014734 160.110216,93.2484609 160.733495,91.9193532 Z M130.204238,92.7630557 C131.037643,92.5816445 131.334593,91.8717322 130.514957,92.0202891 C129.42221,92.2183447 129,92.4216818 129,92.7499079 C129,92.9303901 129.131801,93.0374692 129.292905,92.9878715 C129.453967,92.9382694 129.864085,92.837104 130.204238,92.7630557 Z M134.697822,93.0219861 C135.268425,92.303852 134.963976,91.6308194 134.341047,92.2332532 C134.113614,92.4531905 133.718831,93.1656861 133.463808,93.8165748 L133,95 L133.600429,94.323757 C133.93066,93.9518233 134.424485,93.3660254 134.697822,93.0219861 Z M126.711671,93.5 C126.960999,93.225 127.069721,93 126.953222,93 C126.836802,93 126.537546,93.225 126.288295,93.5 C126.038967,93.775 125.930323,94 126.046744,94 C126.163165,94 126.462421,93.775 126.711671,93.5 Z M131,94.4148247 C131,94.0547779 130.768507,93.9129427 130.410252,94.0535103 C130.085916,94.1808024 129.918856,94.4475354 130.038951,94.6462528 C130.38329,95.2161134 131,95.0676071 131,94.4148247 Z M129,94.3644095 C129,94.0148309 128.775044,93.8957327 128.500046,94.0997372 C128.225048,94.3037527 128,94.5897756 128,94.7353387 C128,94.8809019 128.225048,95 128.500046,95 C128.775044,95 129,94.7139881 129,94.3644095 Z M166.034343,94.0950606 C165.970102,93.8723382 165.917476,94.0545439 165.917476,94.5000005 C165.917476,94.9454393 165.970102,95.1276629 166.034343,94.9049465 C166.098585,94.6822301 166.098585,94.3177769 166.034343,94.0950606 Z M164,94.4043744 C164,94.0767801 163.774952,93.9150071 163.500046,94.044869 C163.225048,94.1747377 163,94.4427689 163,94.6404944 C163,94.8382271 163.225048,95 163.500046,95 C163.774952,95 164,94.7319689 164,94.4043744 Z M136.196977,95.1843213 C136.319219,94.9768273 136.421347,94.457499 136.423903,94.0302608 C136.42946,93.6030162 136.587375,93.2534624 136.781518,93.2534624 C136.975662,93.2534624 137.055508,93.1633697 136.959048,93.0532536 C136.690836,92.7471894 135.418736,93.8102188 134.669611,94.9664731 L134,96 L134.987331,95.7807948 C135.530366,95.6602296 136.074734,95.3918155 136.196977,95.1843213 Z M116.972408,95.2696664 C117.050884,95.1213516 116.95621,95 116.761362,95 C116.566856,95 116.2917,95.2532445 116.149838,95.5627706 C115.915475,96.0744182 115.934615,96.0989166 116.360883,95.832442 C116.618776,95.6712357 116.893932,95.4179812 116.972408,95.2696664 Z M166,96.4582928 C166,95.8463345 165.243018,95.8475047 165.061457,96.4601956 C164.913429,96.9589082 165.032778,97.1119288 165.419873,96.9197994 C165.73902,96.7612706 166,96.5537964 166,96.4586448 L166,96.4582928 Z M159.332708,96.5377986 C159.573175,96.2835898 159.852256,95.8240949 159.952895,95.5167045 C160.267508,94.5559418 158.924354,95.0422263 158.349523,96.0972162 C157.878518,96.961763 157.879616,97 158.376695,97 C158.662098,97 159.092399,96.7920074 159.332865,96.5377986 L159.332708,96.5377986 Z M114.881938,96.5677947 C115.168514,95.8728038 114.911733,95.8046013 114.345532,96.4252717 C113.906904,96.9059274 113.893347,97 114.262405,97 C114.505133,97 114.783913,96.8055064 114.881938,96.5677947 Z M163.978255,96.377399 C164.055185,96.0720143 163.926162,95.9441412 163.620263,96.022558 C163.357142,96.0899876 163.08786,96.3600057 163.021722,96.6225944 C162.944841,96.9279859 163.073864,97.0558589 163.379763,96.977442 C163.642835,96.9100124 163.912117,96.6399879 163.978255,96.377399 Z M111.505608,97.4930303 C111.919055,97.4930303 112.436031,97.1215094 112.889069,96.4988493 C113.286881,95.9520479 113.714958,95.5037848 113.840433,95.5027186 C113.965852,95.5016732 114.068432,95.3046434 114.068432,95.0649304 C114.068432,94.8252121 114.273703,94.5553658 114.524541,94.4652636 C115.415987,94.1450608 114.96334,93.856711 113.916265,94.077769 C112.930447,94.28588 111.852213,95.1415992 110.403529,96.8655197 C109.803741,97.5792594 109.898838,98.3791182 110.514932,97.8024343 C110.696695,97.6322658 111.142529,97.4930303 111.505608,97.4930303 Z M166,97.9969927 C166,97.448647 165.919807,97 165.821801,97 C165.453925,97 164.823785,98.3561582 165.046481,98.668523 C165.509054,99.3173852 166,98.9716594 166,97.9969927 Z M162.615768,99.7027047 C163.193204,99.2722555 163.114935,99 162.41379,99 C161.78943,99 161,99.448434 161,99.8030912 C161,100.112777 162.162661,100.040543 162.615768,99.7027047 Z M157.699033,98.861299 C157.750002,98.861299 157.872013,98.6426774 157.970113,98.3754754 C158.278004,97.5362908 156.11918,98.2374 155.527876,99.1685865 L155,100 L156.303046,99.4306495 C157.01976,99.1175122 157.647938,98.861299 157.699033,98.861299 Z M121.799985,100.569285 C121.910033,100.511595 122,100.358835 122,100.229827 C122,99.8314932 121.290594,99.9701159 120.629527,100.497627 L120,101 L120.80001,100.837081 C121.240003,100.747481 121.689987,100.62697 121.799985,100.569285 Z M132.879331,97.8148154 C133.094265,97.0451708 133.068556,97 132.41557,97 C131.850608,97 131.724343,97.1244822 131.724343,97.6814797 C131.724343,98.0562975 131.629946,98.489629 131.514577,98.6444427 C131.399164,98.7992618 131.236208,99.3925929 131.152405,99.9629603 L131,101 L131.825889,99.8148126 C132.280133,99.1629625 132.754186,98.2629643 132.879331,97.8148154 Z M128,100.474734 C128,100.051794 127.845578,99.9630279 127.415746,100.138951 C126.729088,100.420013 126.66707,99.9340293 127.183512,98.3191232 C127.620168,96.9536485 127.623344,96.7173131 127.197246,97.2939043 C126.824067,97.7990174 125.880368,100.593704 126.0126,100.80223 C126.058996,100.875395 126.525094,100.960991 127.048404,100.992446 C127.756221,101.035003 127.999871,100.902441 127.999871,100.474734 L128,100.474734 Z M124.522577,100.133028 C125.206716,99.0121303 125.203295,99 124.199824,99 C123.645068,99 122.93846,99.3488055 122.174036,99.9999977 L121,101 L122.496721,101 C123.859365,101 124.040796,100.92236 124.522577,100.133028 Z M118.551449,99.9285781 C118.900602,99.5938565 119.085161,99.2189555 118.961582,99.0954762 C118.561223,98.6954805 115.233335,99.6384629 114.607643,100.329179 L114,101 L115.958322,100.768581 C117.169831,100.625405 118.158706,100.30509 118.551449,99.9285781 Z M110.49812,101.662364 C111.230972,101.513897 112.055339,101.201123 112.330128,100.967326 C112.604917,100.733517 113.092098,100.445021 113.412706,100.326208 C114.317148,99.9910298 114.132651,99.044176 113.162876,99.044176 C112.644741,99.044176 112.330128,98.8469428 112.330128,98.522088 C112.330128,98.2349412 112.197322,98 112.03503,98 C111.707999,98 108,101.550179 108,101.863298 C108,102.091323 108.631794,102.040504 110.49812,101.662364 Z M108.1613,100.172571 C109.172588,99.1724747 110,98.234153 110,98.0874164 C109.999941,97.5607558 106.939473,99.5354152 105.86012,100.758539 C104.776362,101.986603 104.771135,102.007164 105.540348,101.999113 C106.02902,101.994002 107.012648,101.308452 108.1613,100.172571 Z M156.94437,102.454004 C157.079519,101.946746 157.023056,101.921766 156.14749,102.10188 C155.629233,102.208511 155.113615,102.28742 155.001685,102.277229 C154.357133,102.218555 154,102.353779 154,102.656469 C154,102.909583 154.368391,103 155.399451,103 C156.62054,103 156.81743,102.930403 156.94437,102.454004 Z M114.749966,102.795467 C115.437518,102.678926 116,102.449868 116,102.286461 C116,101.94829 113.877347,101.894957 112.749996,102.204802 C112.33744,102.318172 112,102.546815 112,102.712903 C112,103.064704 112.986792,103.094337 114.749966,102.795467 Z M112,104.384036 C112,103.77561 111.247396,103.926977 111.031349,104.578865 C110.924797,104.90032 111.098715,105.075675 111.418847,104.968513 C111.738505,104.861362 112,104.598349 112,104.384036 Z M127.742942,103.158053 C128.232069,101.954633 128.104495,101.836829 126.644612,102.143822 C125.181585,102.451486 124.405429,103.667349 125.550094,103.85864 C127.176265,104.130429 127.373223,104.067493 127.742942,103.158053 Z M165,103.499998 C165,103.225004 164.879206,103 164.731683,103 C164.584159,103 164.298879,103.225004 164.097513,103.499998 C163.896275,103.775001 164.016555,104 164.36583,104 C164.714591,104 165,103.775001 165,103.499998 Z M163,104.236912 C163,104.002778 162.775023,103.92961 162.500092,104.074313 C162.225069,104.219008 162,104.528961 162,104.763086 C162,104.997219 162.225069,105.070388 162.500092,104.925693 C162.775023,104.780989 163,104.471037 163,104.236912 Z M159.360232,103.542488 C159.823991,103.449527 160.254053,103.234722 160.315871,103.065152 C160.377813,102.895576 160.999647,102.756839 161.69798,102.756839 C162.86292,102.756839 162.969894,102.679754 162.99498,101.822351 C163.021615,100.908872 162.988786,100.893212 161.682185,101.125873 C160.349568,101.362559 157.001239,103.317558 157,103.859675 C157,104.015817 157.340804,104.046354 157.758168,103.927536 C158.175532,103.808718 158.896474,103.635449 159.360232,103.542488 Z M134.570016,104.671618 C135.121054,104.235691 135.148198,103.878378 134.618284,104.039318 C134.400454,104.105449 134.158022,104.353828 134.079547,104.591263 C133.906508,105.114682 133.992457,105.12875 134.570224,104.671618 L134.570016,104.671618 Z M153.53561,106.246192 C156.120051,105.376052 156.79482,104.902466 154.970519,105.239187 C153.736279,105.466986 153.697062,105.446857 153.84874,104.662924 C153.935198,104.216154 153.820987,103.600546 153.594616,103.294903 C153.226281,102.797182 153.122266,102.868797 152.59809,103.98125 C152.276271,104.664385 151.916503,105.296336 151.798612,105.385583 C151.405238,105.683412 150.802085,107.008459 151.063751,106.999959 C151.205595,106.995191 152.317901,106.656157 153.53561,106.246192 Z M162.811192,108.24285 C162.519788,107.883901 162.171587,107.928036 162.037378,108.340979 C161.903243,108.753877 162.141705,109.047558 162.567317,108.99361 C163.037642,108.933819 163.133293,108.639544 162.811192,108.242872 L162.811192,108.24285 Z M112.825265,108.522798 C114.567464,108.337559 116.332766,108.071263 116.74819,107.93103 C117.163558,107.790791 118.589008,107.734025 119.915783,107.804876 C122.251697,107.92961 122.30544,107.917203 121.612383,107.413448 C120.980106,106.95389 120.365336,106.918282 116.341963,107.108113 C113.836898,107.226312 111.62365,107.460626 111.423639,107.628816 C111.223629,107.797011 110.880231,107.899278 110.660496,107.856086 C110.440761,107.812915 109.989491,107.865292 109.657672,107.972499 C109.325799,108.079723 108.56947,108.239593 107.976862,108.327763 C107.384255,108.415934 106.569751,108.623117 106.166793,108.788174 C105.287965,109.148148 107.936528,109.042586 112.825265,108.522798 Z M160.795352,107.416192 C160.851097,107.293942 161.181103,107.193934 161.528837,107.193934 C161.876681,107.193934 162.076302,107.120192 161.972562,107.030056 C161.793957,106.874922 157.247726,107.358238 156.480572,107.613922 C156.282624,107.679894 156.093483,108.018746 156.060371,108.366939 L156,109 L158.34706,108.31922 C159.637988,107.944786 160.739719,107.538422 160.795352,107.416182 L160.795352,107.416192 Z M134.431641,108.638552 C134.794016,108.383197 135,107.829332 135,107.110282 C135,105.705646 134.279675,105.090223 133.313756,105.669645 C132.770113,105.995787 132.437958,105.946542 131.791727,105.443961 C131.011501,104.837114 130.937353,104.841604 130.46829,105.524049 C129.901711,106.348261 128.829373,106.176887 128.829373,105.262143 C128.829373,104.853015 128.600777,104.995215 128.088434,105.723047 C127.519319,106.531542 127.161585,106.727683 126.54579,106.568879 C124.059623,105.927778 122.47289,105.886846 122.114995,106.454594 C121.796763,106.959463 122.047862,107.068177 124.040412,107.288163 C127.562653,107.67705 130.856838,108.27292 131.566909,108.649586 C132.455712,109.121111 133.75384,109.116102 134.431641,108.638573 L134.431641,108.638552 Z M155.775025,107.54044 C156.335886,106.884957 155.927129,106.84289 153.645813,107.321293 C151.928646,107.681386 151.672603,107.793693 152.339047,107.894418 C153.863496,108.124822 155.411449,107.96535 155.775025,107.54044 Z M149.965241,108.459115 C150.086736,108.161626 150.369278,107.776789 150.593122,107.603918 C150.816872,107.431052 151,107.174822 151,107.034526 C151,106.894225 150.543415,107.194389 149.985366,107.701551 C148.89531,108.692192 148.746469,109 149.357486,109 C149.570195,109 149.843699,108.756604 149.965241,108.459115 Z M103.296519,108.244262 C103.358906,107.897446 103.768541,107.514237 104.230644,107.370652 C105.390986,107.010136 105.259036,106.931672 103.696983,107.053411 C102.950706,107.111568 102.424656,107.271024 102.528094,107.407747 C102.631532,107.544481 102.554297,107.656349 102.356342,107.656349 C101.957562,107.656349 101.862733,108.564832 102.230132,108.865096 C102.638894,109.199136 103.181788,108.883093 103.296519,108.244262 Z M98.9734994,109.72871 C99.0976545,109.54891 98.7735119,109.050516 98.2533031,108.62117 C97.3131509,107.845323 97.3003009,107.843686 96.161428,108.354179 C95.0536844,108.850694 94.6984125,109.418261 95.2691159,109.779616 C95.7762937,110.100732 98.7448561,110.059937 98.9734994,109.728737 L98.9734994,109.72871 Z M162.972963,110.763837 C163.066011,110.652942 162.911032,110.496896 162.628679,110.417064 C162.346265,110.337233 162.193829,110.178123 162.290085,110.063491 C162.518862,109.790726 159.478058,110.465757 159.04684,110.783456 C158.824965,110.946887 159.390579,111.017215 160.759725,110.996454 C161.883991,110.979418 162.879976,110.874731 162.972963,110.763837 Z M165.995039,57.3944553 C165.606416,56.5114037 165.282519,55.7180436 165.275368,55.6314379 C165.26806,55.5448265 164.931167,54.7150955 164.52657,53.7875922 C163.651816,51.7825801 162.980743,49.5695003 163.000422,48.7548886 C163.016082,48.0995908 163.724164,47.6755214 163.726931,48.3196808 C163.726931,48.544529 163.928785,49.1424238 164.173391,49.6483295 C164.417944,50.1542409 165.071374,52.016911 165.625468,53.7875922 C166.179563,55.5582791 166.718363,57.0760075 166.822814,57.160327 C167.043095,57.3380771 167.065593,59 166.847348,59 C166.767013,59 166.383297,58.2775069 165.994673,57.3944553 L165.995039,57.3944553 Z M165.82134,68.1336571 C165.46236,67.6541423 165.168649,67.1630724 165.168649,67.0423929 C165.168649,66.921708 164.849027,66.5262939 164.458455,66.1636878 C163.313172,65.100424 162.012368,63.562238 162.012368,63.2711463 C162.012368,63.1230232 161.728337,63.001831 161.381124,63.001831 C161.024694,63.001831 160.749879,62.8017093 160.749879,62.5421355 C160.749879,62.2892985 160.531581,62.0027661 160.264824,61.9053901 C159.998009,61.8080196 159.568252,61.3394702 159.309842,60.8641729 C158.862986,60.0423398 158.873014,60 159.513939,60 C160.224654,60 163.90616,63.37833 163.90616,64.0304951 C163.90616,64.2284613 164.332206,64.7786746 164.853026,65.2532057 C165.373789,65.7277367 165.799835,66.2933369 165.799835,66.5101023 C165.799835,66.7268621 165.925388,66.9042152 166.078707,66.9042152 C166.232026,66.9042152 166.428993,67.1406124 166.516347,67.4295375 C166.603643,67.7184625 166.777424,68.1912513 166.902571,68.4801819 C167.26816,69.3248995 166.538084,69.0908783 165.82134,68.1336571 Z M155.78502,79.308721 C155.595845,78.9186567 154.654718,77.790891 153.693664,76.8025809 C151.850775,74.907376 151.711282,74.6282278 152.333513,74.0806523 C152.62986,73.8198724 153.077821,74.162149 154.242573,75.5392962 C156.837577,78.6075882 157,78.8371253 157,79.4357591 C157,80.2477558 156.200004,80.1641057 155.78502,79.308721 Z M144.906679,109.651203 C145.016402,108.951386 145.247976,108.486224 145.486729,108.486224 C145.705271,108.486224 146.132304,108.253534 146.435678,107.969134 C146.739053,107.684728 147.3274,107.211648 147.743157,106.917843 C148.158861,106.624039 148.895331,105.626792 149.379646,104.701726 C151.17564,101.271437 151.882326,100.093314 152.211124,99.9814927 C152.396638,99.9183915 152.474821,99.7451508 152.384777,99.5965146 C152.294733,99.4478784 152.359248,99.3262669 152.527742,99.3262669 C152.696449,99.3262669 152.834467,99.1774517 152.834467,98.9955663 C152.834467,98.8136864 153.280062,97.916155 153.824689,97.0010628 C154.369264,96.0859653 154.912774,94.938357 155.032337,94.4508096 C155.300502,93.3575223 156.997517,90.8033402 157.952902,90.0550202 C158.758196,89.424285 162.272107,84.2418198 162.156587,83.8553114 C162.115102,83.7158354 162.411296,83.159592 162.815193,82.6192324 C163.219196,82.0788674 163.550174,81.3951896 163.550759,81.0999414 C163.550759,80.8046985 163.833231,80.0977514 164.177187,79.5289452 C164.52109,78.9601444 165.250912,77.6304718 165.798996,76.5741237 C166.347081,75.5177702 167.056214,74.1548593 167.374853,73.5454292 C167.783749,72.7633553 168.147862,72.4373704 168.612498,72.4373704 C168.974537,72.4373704 169.435449,72.234918 169.636706,71.987484 C169.950026,71.6022726 170.090438,71.5955382 170.613366,71.9405977 C170.94929,72.162255 171.726874,72.4251551 172.341388,72.524821 C173.223908,72.6679546 173.803266,73.0813358 175.098937,74.4923216 C176.001136,75.4747802 176.881688,76.278615 177.05582,76.278615 C177.229899,76.278615 177.683153,76.520568 178.063009,76.8162938 C178.804107,77.3932183 183.187029,78.6530499 184.430152,78.6464673 C185.170133,78.6426686 185.763,78.9220494 189.695594,81.1287841 C190.775967,81.7350288 191.794325,82.1853221 191.95867,82.1294329 C192.342303,81.9989543 189.976418,78.3863675 188.126971,76.278615 C187.342633,75.3847791 186.49846,74.4097441 186.250878,74.1118638 C185.638172,73.3744786 184.493656,71.0072666 184.231182,69.9345245 C184.113108,69.4518069 183.789789,68.6540012 183.512742,68.1616241 C183.235694,67.669247 182.915247,66.801014 182.800577,66.2322079 C182.492416,64.7031543 181.095797,62.1157557 179.638121,60.3733422 C177.877017,58.2682271 177.407967,57.5571067 176.123305,55.0444604 C175.511557,53.8479253 174.843165,52.8032011 174.637972,52.7228595 C174.432779,52.6425232 174.26487,52.4453347 174.26487,52.2846622 C174.26487,52.1239951 173.995375,51.6063514 173.665992,51.134346 C173.336557,50.662346 173.152,50.2761579 173.255926,50.2761579 C173.359746,50.2761579 173.058392,49.7775292 172.586151,49.1680991 C172.11391,48.5586636 171.290427,47.1957526 170.756224,46.1394045 C170.222021,45.0830565 169.704731,44.1522813 169.606709,44.0710224 C169.508687,43.989769 169.376412,43.7903176 169.312695,43.6278055 C169.249031,43.4652879 168.317207,41.9704278 167.242047,40.3058867 C166.166939,38.6413512 165.287291,37.2206084 165.287291,37.1486889 C165.287291,37.0767639 165.147784,36.6436026 164.977321,36.186108 C164.806859,35.7286081 164.703146,35.3542934 164.746865,35.3542934 C164.790478,35.3542934 164.571723,35.0495756 164.260423,34.6771494 L163.694468,34 L163.345513,34.8248903 C163.15367,35.2785752 162.990761,36.1526744 162.983527,36.7673249 C162.976081,37.3819755 162.7861,38.3351465 162.560749,38.8854749 C162.335346,39.4358033 162.22674,39.9633994 162.31939,40.0579155 C162.412041,40.1524262 162.3279,40.2297507 162.132866,40.2297507 C161.937619,40.2297507 161.837203,40.3294819 161.909749,40.4513647 C161.982295,40.5732528 161.66589,41.4707789 161.206627,42.4458736 C160.725557,43.4672415 160.368198,44.719785 160.363571,45.4006951 C160.358252,46.0507546 160.167047,46.9150423 159.936751,47.321331 C159.706454,47.7276195 159.424727,48.2594864 159.310748,48.5032628 C159.19677,48.7470337 158.81202,49.3453881 158.455726,49.8329354 C157.666973,50.9122925 156.309659,53.9961872 156.309659,54.7089789 C156.309659,54.9938893 156.120901,55.3868826 155.890072,55.5822966 C155.659297,55.7777106 155.318958,56.4255886 155.133763,57.0220218 C154.948569,57.6184552 154.515367,58.6383089 154.171145,59.2883739 C153.826817,59.9384335 153.225386,61.4343138 152.83452,62.6125501 C152.443654,63.7907864 152.02311,64.7547998 151.899984,64.7547998 C151.776858,64.7547998 151.67607,64.9330113 151.67607,65.1508266 C151.67607,65.3686419 151.303447,66.3326499 150.848013,67.2930764 C150.392578,68.253492 149.794711,69.5711609 149.519526,70.2212258 C149.244287,70.8712854 148.717476,72.0679886 148.348842,72.8805603 C147.666249,74.3854923 146.910632,76.3070832 146.896591,76.5740966 C146.891272,76.65535 146.810163,76.8548015 146.714055,77.017319 C146.617948,77.1798366 146.375472,77.8446675 146.175119,78.4947324 C145.974819,79.144792 145.472475,80.4079772 145.058792,81.3018131 C144.645109,82.1956491 144.294133,82.9934494 144.278815,83.0747082 C144.263391,83.155967 144.082983,83.8208033 143.877631,84.5521216 C143.672279,85.2834399 143.447567,86.1988631 143.378265,86.5863918 C143.30891,86.9739258 142.932138,88.066893 142.540953,89.0152234 C142.149768,89.963543 141.82964,90.9872226 141.82964,91.2900681 C141.82964,91.5929083 141.731883,91.9404153 141.61248,92.0622981 C141.492971,92.1841863 141.388832,92.3725565 141.381014,92.4808997 C141.373036,92.589243 141.264695,92.983441 141.13992,93.3569036 C141.003497,93.7650861 141.042057,94.1945628 141.236506,94.433656 C141.480312,94.7333324 141.445369,94.9483909 141.094978,95.3059264 C140.667945,95.7416437 140.678955,95.7804551 141.229805,95.7804551 C142.223431,95.7804551 142.012813,96.939785 140.980893,97.1503665 C140.268356,97.295763 140.107947,97.496175 139.981735,98.3987749 C139.899031,98.9901397 139.857439,99.8064015 139.889298,100.21269 C139.938229,100.838313 139.825368,100.949614 139.150859,100.939749 C138.553471,100.931012 138.342747,101.078687 138.307591,101.530712 C137.887472,106.927383 137.892631,107.599866 138.354395,107.606497 C139.249307,107.619358 141.269322,108.783089 142.127217,109.780032 C142.932617,110.715951 143.940816,111.199673 144.507676,110.922121 C144.626706,110.863839 144.806263,110.291907 144.906626,109.651176 L144.906679,109.651203 Z M164.783042,111.454851 C165.029056,111.210771 165.067021,110.406958 164.890949,109.167362 C164.741656,108.11621 164.611182,106.972445 164.601049,106.625654 C164.570125,105.560287 163.973152,105.926826 163.68845,107.186124 C163.155563,109.543494 163.129179,110.26208 163.560607,110.668742 C164.113299,111.189665 163.434146,111.589235 161.985239,111.59555 C161.443403,111.597609 161,111.706975 161,111.837927 C161,112.213678 164.360957,111.873336 164.783042,111.454851 Z M159.932909,111.355332 C159.698145,110.895676 159.160745,110.882108 158.291914,111.313866 L157,111.955852 L158.640995,111.997318 C159.772271,112.025932 160.173556,111.826482 159.932909,111.355332 Z M163.75089,114.319702 C163.397631,113.918756 163.061653,113.36015 163.00423,113.078365 C162.891497,112.52504 162.868365,112.523709 159.23111,112.861471 C156.881917,113.07962 155.819159,113.216246 155.101535,113.392349 C154.858192,113.452069 154.327247,113.581036 153.921657,113.67894 C152.286404,114.073676 150.11533,114.126652 149.825127,113.778896 C149.392776,113.260894 149.818627,112.781253 150.825424,112.652955 L151.709358,112.540274 L150.898178,112.139413 C150.295833,111.841735 150.087052,111.522224 150.087052,110.898124 L150.087052,110.057701 L149.164059,110.578553 C148.656408,110.86502 147.701563,111.375535 147.042174,111.713033 C146.059592,112.215931 145.929253,112.374725 146.319783,112.593008 C146.722719,112.818225 146.736207,112.940931 146.407217,113.387554 C146.080123,113.831518 145.54907,113.920043 143.077826,113.94262 C139.926174,113.971441 139.468091,113.855011 139.468091,113.025378 C139.468091,112.667645 139.153294,112.416356 138.509453,112.260245 C136.847439,111.857239 135.928455,111.857972 135.928455,112.262399 C135.928455,112.470603 135.716532,112.815875 135.457479,113.029671 C135.060285,113.357446 134.942406,113.340083 134.705401,112.918924 C134.39548,112.368287 132.551337,112.214007 132.241362,112.7128 C132.141088,112.874125 131.815565,113.006124 131.51805,113.006124 C131.220534,113.006124 130.910938,113.177578 130.830058,113.387129 C130.639154,113.881924 128.724587,114.465428 128.24971,114.173563 C127.786914,113.889164 128.461254,113.178424 130.320186,111.991151 C131.81589,111.035871 131.526067,110.729935 129.58566,111.215814 C128.874699,111.39384 127.754465,111.539495 127.096214,111.539495 C126.110056,111.539495 125.899487,111.439759 125.899487,110.97261 C125.899487,110.32603 126.258597,110.18629 128.631843,109.909352 C129.566808,109.800248 130.392723,109.613022 130.467102,109.493294 C130.541535,109.373578 129.265337,109.184046 127.631168,109.072119 C124.968694,108.889767 124.618902,108.923576 124.265534,109.397416 C123.886868,109.905113 123.854527,109.903933 123.455004,109.367787 C123.078343,108.862363 122.755907,108.82488 120.05703,108.972765 C117.982817,109.086421 116.9894,109.033192 116.793187,108.797864 C116.507806,108.455582 114.713719,108.376144 114.213381,108.683637 C114.063865,108.775503 113.346891,108.852925 112.620003,108.855673 C111.89317,108.858366 110.170211,109.055435 108.791194,109.293478 C107.412232,109.531521 105.155728,109.818327 103.776711,109.93082 C102.397748,110.043318 101.183524,110.186726 101.078483,110.249501 C100.973443,110.312277 99.7787752,110.431131 98.4237567,110.513612 C95.8179478,110.672234 95.500009,110.709124 90.8978868,111.386869 C90.1990066,111.489789 89.5928155,111.442803 89.4902668,111.277754 C89.3726039,111.088427 88.9962671,111.096663 88.4053528,111.301511 C87.8718613,111.486465 86.7252989,111.536144 85.6106983,111.422591 C83.4617267,111.203645 81.8338952,111.761393 82.0096851,112.65643 C82.2507531,113.883443 80.5716202,114.600277 79.4242452,113.760177 C78.8620422,113.348493 78.8617173,113.322312 79.4047431,112.310764 C79.7090846,111.744171 80.1405149,111.210993 80.363435,111.125926 C80.5863552,111.040859 80.7687541,110.778472 80.7687541,110.542853 C80.7687541,109.97279 83.6290116,109.362448 85.8712684,109.454055 C87.6563086,109.526985 89.8749462,108.97547 91.7228267,107.999444 C92.3127118,107.687857 92.9401384,107.432926 93.1170119,107.432926 C93.2938853,107.432926 94.1380022,106.76957 94.9927913,105.958803 C96.3266282,104.693719 96.6657485,104.510613 97.3844018,104.667581 C97.9882093,104.799462 98.3672005,104.699257 98.7429415,104.308421 C99.3694472,103.656761 100.947061,102.254059 103.393981,100.173102 C104.389944,99.326112 105.80206,98.0391459 106.532144,97.3131764 C107.262174,96.5872015 108.013764,95.9932255 108.202339,95.9932255 C108.613292,95.9932255 110.560796,94.051135 110.560796,93.6412829 C110.560796,93.4828875 110.702999,93.3532912 110.876838,93.3532912 C111.537473,93.3532912 114.100431,89.9458427 114.100431,89.0674466 C114.100431,88.5588122 115.400952,87.1934539 115.885472,87.1934539 C116.039322,87.1934539 116.165219,87.0616112 116.165219,86.900463 C116.165219,86.7393202 116.706565,86.0527408 117.368283,85.3747376 C118.029947,84.6967343 118.777962,83.7396066 119.030568,83.2477905 C119.283175,82.7559745 119.670942,82.2480242 119.892291,82.1190152 C120.113695,81.9900007 120.294794,81.7247586 120.294794,81.5295858 C120.294794,81.0443689 121.383066,80.4077059 122.483094,80.2493536 C122.982999,80.177388 123.591086,79.835041 123.834429,79.4885729 C124.077772,79.1421157 124.710129,78.3910371 125.239611,77.8195197 C125.769094,77.2480023 126.489589,76.1534131 126.84079,75.3870946 C127.191937,74.6207869 127.654679,73.993799 127.869148,73.993799 C128.083563,73.993799 128.259028,73.8398749 128.259028,73.6517537 C128.259028,73.2908969 128.422033,73.0848153 130.192826,71.2072078 C130.801401,70.5618878 131.843085,69.3079821 132.50762,68.4207459 C133.172209,67.5335043 133.959499,66.5435316 134.257177,66.2208043 C134.554855,65.8980716 135.002267,65.2380288 135.251406,64.7540402 C135.500546,64.2700515 135.865236,63.6760701 136.061774,63.4340784 C136.258366,63.1920814 136.724304,62.2695061 137.097228,61.3839022 C137.482287,60.4694129 138.520937,58.9644599 139.501136,57.9007063 C140.450348,56.8705571 141.16548,55.9287231 141.090288,55.8077515 C141.015151,55.6867853 141.481468,55.1422732 142.126609,54.5977395 C142.771751,54.0532004 143.300258,53.4993525 143.301017,53.3669658 C143.301017,53.234579 143.833425,52.5001034 144.482358,51.7347976 C145.131345,50.9694918 145.662236,50.1318327 145.662236,49.8733298 C145.662236,49.6148322 145.77887,49.3593352 145.921344,49.3055564 C146.353695,49.1423719 147.727024,46.9594587 147.727024,46.4354173 C147.727024,46.1656124 148.128768,45.6495223 148.619733,45.2885469 C149.110754,44.927577 150.272159,43.4925263 151.200731,42.0995431 C152.129303,40.70656 153.154519,39.2793313 153.478959,38.9279233 C153.803452,38.5765046 154.599843,37.6558256 155.248777,36.8819652 C157.608425,34.0680832 162.11905,29.9893975 162.859589,30.0000207 C163.598828,30.0106332 164.594682,31.506509 165.14085,33.4266203 C165.888919,36.056804 167.218801,38.7053304 169.235321,41.5813144 C170.140328,42.871949 171.080168,44.281492 171.323944,44.7136302 C171.567721,45.1457686 172.151647,46.1357466 172.62154,46.9135719 C173.091433,47.691397 174.055975,49.3330895 174.764932,50.5617623 C175.473888,51.7904458 176.331765,53.1104075 176.671264,53.4950213 C177.785432,54.7570237 180.390482,58.2797767 180.984376,59.3275148 C181.304373,59.892169 181.982993,61.0529489 182.492378,61.9070277 C183.001708,62.7611013 183.419054,63.5530838 183.419758,63.6669767 C183.425175,63.9633883 185.758225,68.5168832 186.065763,68.8233362 C186.212029,68.9691043 186.681922,68.8276458 187.156636,68.4951625 C187.615261,68.1738305 188.286459,67.8195673 188.648223,67.70791 C189.009988,67.5962418 189.275433,67.380706 189.238163,67.2289313 C189.200784,67.0771566 189.491961,66.788206 189.884875,66.586822 C191.441253,65.789264 193.00256,62.6110935 192.348806,61.5713984 C192.117868,61.204201 192.065375,60.9748151 191.784761,59.1075238 C191.629394,58.0730056 191.679612,57.8608906 192.080001,57.8608906 C192.379955,57.8608906 192.5675,58.1106719 192.575572,58.5208742 C192.591282,59.3276871 193.249316,61.8681226 193.509182,62.126577 C193.991318,62.6060351 197.117292,57.117688 197.407874,55.281523 C197.440919,55.0728395 197.681283,54.6542927 197.942123,54.3514166 C198.696747,53.4749384 199.051903,52.6775904 199.051903,51.8597341 C199.051903,51.3084666 199.265613,51.0190959 199.830254,50.8056071 C200.258326,50.6437586 200.651023,50.553547 200.70292,50.6051388 C200.856283,50.7576192 201.705925,54.1309085 201.714864,54.6226008 C201.720281,54.8710353 202.129392,55.4702852 202.626046,55.9542738 L203.528995,56.8342483 L203.148432,55.9542738 C202.93911,55.4702852 202.529077,54.7239257 202.23725,54.2956984 C201.481597,53.1868767 201.554729,52.5810276 202.444081,52.5810276 C202.865164,52.5810276 203.181478,52.7502779 203.181478,52.9755536 C203.181478,53.1925439 203.4622,53.6215307 203.805329,53.9288619 C204.376795,54.440804 204.976215,55.523477 205.089002,56.2475987 C205.246319,57.2570078 206.265468,58.7755523 207.151027,59.3197682 C208.422186,60.1010465 212.31871,64.2946057 212.336533,64.9007025 C212.343576,65.1426996 212.908271,66.0306577 213.59117,66.8739571 C217.527674,71.7348585 218.523582,72.824707 220.365287,74.2871239 C222.712151,76.1506172 223.796578,77.1637811 224.419345,78.0747042 C224.662689,78.4306535 225.597111,79.4730097 226.49578,80.3910653 C227.394449,81.3091208 228.458344,82.4562444 228.859871,82.9402331 C229.680315,83.9289506 231.601924,85.4334995 232.044351,85.4334995 C232.20389,85.4334995 232.37865,85.5324973 232.432714,85.6534958 C232.593661,86.0135392 234.978662,87.7801089 235.30386,87.7801089 C235.612915,87.7801089 238.913758,90.4123934 241.195453,92.4784292 C241.905059,93.1209316 242.718405,93.6466215 243.00292,93.6466215 C243.287435,93.6466215 243.679861,93.8378618 243.874935,94.0716058 C244.069958,94.3053445 244.716724,94.656176 245.312134,94.8512357 C245.907545,95.04629 246.726526,95.4213201 247.132116,95.6846392 C249.548808,97.2536388 250.740496,97.7472379 255.833747,99.2889143 C257.456052,99.779987 259.131123,100.424025 259.556053,100.720119 C259.981036,101.016218 260.644704,101.393446 261.0309,101.558408 C261.417151,101.72337 261.932224,101.980543 262.175621,102.129899 C263.549709,102.97329 267.052344,104.551647 267.728472,104.632156 C268.162395,104.683818 268.62622,104.741152 268.759214,104.759549 C269.352241,104.841599 268.753796,106.085862 268.003994,106.333521 C267.34688,106.550134 266.822328,106.41716 265.201755,105.623179 C264.105194,105.085912 263.163458,104.546513 263.109068,104.424507 C263.054626,104.302506 262.890428,104.276271 262.744053,104.366203 C262.597734,104.456134 262.310403,104.39136 262.105576,104.222304 C261.625824,103.826313 257.740783,101.844978 257.161083,101.700664 C255.391753,101.260197 251.401726,100.057953 249.9343,99.5231595 C248.960927,99.1684007 247.712575,98.7451779 247.160177,98.5826614 C245.575251,98.1163585 242.448193,96.370836 240.923344,95.101281 C240.156206,94.4625493 239.259217,93.9399463 238.930226,93.9399463 C238.355347,93.9399463 237.312201,93.5459322 234.444954,92.2458056 C232.886355,91.539084 228.908139,87.721794 226.428389,84.553525 C225.48129,83.3435561 224.608679,82.2598973 224.489174,82.1453956 C224.369669,82.0308939 223.807304,81.4926145 223.239467,80.9492228 C222.671684,80.4058258 221.877027,79.509534 221.473549,78.9574584 C221.070126,78.4053936 219.410875,76.5937774 217.786456,74.9316574 C214.150393,71.2113559 213.371392,70.2883765 211.672269,67.6872992 C210.934493,66.5579959 209.551901,64.8356486 208.599764,63.85986 C207.647627,62.8840769 206.247537,61.3991152 205.488471,60.5599476 C204.72935,59.7207801 203.899806,59.0341953 203.644924,59.0341953 C203.390042,59.0341953 203.181478,58.9233783 203.181478,58.7879533 C203.181478,58.6525174 202.870039,58.4005814 202.489369,58.2280934 L201.797152,57.914481 L201.867901,67.2007732 C201.906905,72.3082398 202.03394,77.1121571 202.150465,77.8761537 C202.356917,79.2299677 201.851541,82.9496119 201.388311,83.4854456 C201.162087,83.7471215 202.08405,86.7319831 202.57144,87.3160199 C202.724369,87.499212 203.21539,87.6792202 203.662638,87.7160245 C204.109887,87.7528181 204.580755,87.9473067 204.709036,88.1481844 C204.837316,88.349062 204.944307,88.4131517 204.946799,88.2906072 C204.952216,88.0737839 206.190547,88.6287038 209.818321,90.471888 C213.486563,92.335613 214.887519,92.9705953 216.750135,93.613879 C221.42837,95.2294981 223.690399,96.0903324 224.615721,96.6071713 C225.162756,96.9127139 226.371075,97.2469318 227.300893,97.3498838 C228.98398,97.5362379 233.783074,99.56548 235.299309,100.731922 C235.686265,101.029562 236.191316,101.273088 236.421657,101.273088 C236.652053,101.273088 237.463721,101.556054 238.225441,101.901903 C240.352202,102.867553 243.331476,103.848173 244.476468,103.959443 C245.043764,104.014574 245.754832,104.304812 246.056628,104.604429 C246.556424,105.10056 246.563846,105.190475 246.139999,105.611936 C245.761062,105.988803 245.549898,106.010298 245.002267,105.727731 C244.632431,105.536906 243.42487,105.257199 242.318666,105.106168 C241.212516,104.955137 240.150626,104.710015 239.958909,104.561451 C239.479807,104.190176 236.218185,102.741663 236.218185,102.900155 C236.218185,102.970548 237.711506,103.772873 239.536579,104.683107 C241.361762,105.593346 242.855029,106.309629 242.855029,106.274856 C242.855029,106.146617 244.63476,106.641041 244.919816,106.848474 C245.082064,106.966521 245.741181,107.157632 246.38448,107.273162 C247.027834,107.388693 247.957001,107.697037 248.449267,107.958368 C248.941588,108.219704 249.449294,108.404599 249.57752,108.369249 C250.007163,108.250847 250.966721,108.915517 250.966721,109.331473 C250.966721,109.618694 250.609561,109.737856 249.782725,109.726511 C249.131517,109.717568 248.539953,109.615715 248.468119,109.500158 C248.396341,109.384595 247.768752,109.267884 247.073555,109.240793 C246.378304,109.213696 245.343879,109.053932 244.774742,108.885743 C240.923235,107.747562 239.266259,107.106853 236.660613,105.748239 C235.038306,104.902333 232.908295,103.820376 231.927284,103.343897 C230.946273,102.867418 229.897005,102.206562 229.595534,101.875328 C229.294119,101.544095 228.762739,101.273088 228.414789,101.273088 C228.066784,101.273088 227.65594,101.148465 227.501819,100.996151 C226.787662,100.290356 220.579377,97.1665247 219.89079,97.1665247 C219.513369,97.1665247 216.61557,96.0740258 214.788275,95.2427556 C214.277049,95.0101968 213.703361,94.8199207 213.513432,94.8199207 C213.323503,94.8199207 212.613518,94.4997631 211.935656,94.1084586 C210.783893,93.4435459 209.549951,93.0925581 207.974775,92.981795 C207.60976,92.9561526 207.311107,92.8459067 207.311107,92.7368674 C207.311107,92.6278228 206.859307,92.4543274 206.307181,92.3513163 C205.755,92.2483106 205.228226,91.9696331 205.136566,91.7320266 C205.044851,91.4944199 204.766567,91.3000121 204.518132,91.3000121 C204.269696,91.3000121 204.066386,91.1945337 204.066386,91.0656162 C204.066386,90.9366934 203.615725,90.6691564 203.064952,90.4710908 C202.514072,90.2730197 201.641189,89.7443617 201.125087,89.2962884 C200.609039,88.8482206 199.599587,88.3092086 198.881963,88.0984835 C198.164285,87.8877636 197.577055,87.6188206 197.577055,87.5008335 C197.577055,87.150993 195.218923,86.5534562 193.350402,86.4298288 C191.352139,86.2976253 189.60827,85.8536732 186.073185,84.5771904 C184.694222,84.0792492 183.499608,83.6773915 183.418458,83.6841738 C183.050734,83.7149338 181.058701,82.6779054 181.058701,82.4557004 C181.058701,82.3188693 180.875868,82.206921 180.652352,82.206921 C180.428891,82.206921 180.065826,81.9909704 179.84556,81.7270319 C178.822024,80.5006648 175.729799,79.2700203 174.325917,79.5303657 C174.110852,79.5702299 173.489222,79.2648003 172.944463,78.8516136 C171.086452,77.4423401 170.997175,77.5985645 171.068304,82.1335871 C171.141329,86.7866077 171.00541,87.6564329 169.916541,89.5040346 C169.479043,90.2464454 169.162513,91.0972706 169.213219,91.3947541 C169.264141,91.6922324 169.075349,92.102871 168.794248,92.3072826 C168.500308,92.5209869 168.267582,93.1027181 168.246672,93.6760994 C168.226628,94.2245334 168.107719,94.8367392 167.982364,95.0365502 C167.856954,95.2363613 167.680839,96.0283436 167.590913,96.7965045 C167.500986,97.5646708 167.301848,98.7871539 167.148485,99.5131341 C166.995069,100.239114 166.767327,101.89672 166.642297,103.196707 C166.517321,104.496693 166.306915,105.734319 166.174679,105.946989 C166.042552,106.159659 165.919418,108.093308 165.901054,110.243991 C165.870717,113.789309 165.812698,114.195698 165.277798,114.597529 C164.510065,115.174304 164.502264,115.172877 163.750674,114.319794 L163.75089,114.319702 Z"/>
  </g>
</svg>
