<svg xmlns="http://www.w3.org/2000/svg" width="1200" height="1200" viewBox="0 0 1200 1200">
  <g fill="none" fill-rule="evenodd" transform="translate(-1073)">
    <rect width="1199" height="1199" x="1073.5" y=".5" stroke="#FFF"/>
    <path fill="#000" fill-rule="nonzero" d="M2207.70293,864.923354 C2193.0603,849.167828 2185.67179,843.952546 2175.40623,842.126286 C2168.08555,840.823891 2159.4056,837.177197 2156.11709,834.022594 C2152.82859,830.867863 2147.16706,826.596528 2143.53684,824.530596 C2139.90662,822.464665 2132.27528,812.17479 2126.57952,801.664145 C2120.88313,791.153564 2112.94811,777.93101 2108.9451,772.280657 C2097.26892,755.79824 2094.07678,747.987394 2097.03878,743.145104 C2100.49339,737.496161 2114.49695,743.987314 2114.49695,751.237711 C2114.49695,753.813223 2116.77614,757.831883 2119.56189,760.168109 C2122.34764,762.50427 2130.21609,774.515146 2137.04669,786.858972 C2149.69288,809.709407 2165.83299,823.885966 2184.40127,828.452708 C2189.62281,829.736781 2193.89463,832.146682 2193.89463,833.808038 C2193.89463,835.469393 2198.55319,839.262926 2204.24641,842.238017 C2217.96658,849.407499 2246.39975,878.351879 2243.83779,882.540954 C2238.85083,890.694744 2225.69238,884.279253 2207.70293,864.923354 Z M867.343452,939.746744 C866.53887,937.335558 865.233826,929.049991 864.443491,921.334259 C862.634267,903.664743 856.261412,885.198797 848.243471,874.391775 C840.064491,863.367562 839.878056,845.90551 847.939973,846.000385 C859.394882,846.135003 887.004595,923.381723 881.210246,939.083966 C878.920999,945.286515 869.345304,945.744211 867.343452,939.746744 Z M2217.9855,960.207925 C2209.74623,954.566735 2200.30323,949.951274 2197.00085,949.951274 C2190.97387,949.951274 2164.34614,932.52813 2152.9637,921.136603 C2147.15692,915.325913 2147.8599,908 2154.22264,908 C2155.86805,908 2168.75274,915.06505 2182.85529,923.70022 C2196.95783,932.335324 2213.32916,941.932275 2219.23545,945.026862 C2231.42102,951.410833 2240.21818,963.352143 2235.87449,967.61191 C2234.27466,969.180874 2226.22477,965.849052 2217.9855,960.207925 Z M1928.21859,1015.26087 C1895.88535,978.068988 1899.45828,979.801433 1848.36332,976.542627 C1830.59827,975.409599 1813.42892,973.115349 1810.20843,971.44419 C1806.9873,969.773092 1801.78369,968.405786 1798.64301,968.405786 C1793.94316,968.405786 1765.93881,957.830521 1725.67311,940.850798 C1721.84925,939.238162 1714.80938,937.470049 1710.02908,936.921682 C1698.37045,935.584328 1697.84179,922.735786 1709.37911,921.127733 C1719.39238,919.732106 1749.68249,930.017834 1764.99706,940.014151 C1778.20145,948.632424 1809.33627,958.213179 1829.85189,959.970867 C1881.96777,964.435728 1892.00595,965.8328 1902.10414,970.026523 C1908.32038,972.608111 1915.75292,978.082112 1918.62097,982.191065 C1921.48902,986.299956 1930.87594,996.42889 1939.48009,1004.6998 C1952.39653,1017.11513 1954.21492,1020.32088 1949.90965,1023.08142 C1941.82395,1028.26626 1938.47512,1027.05883 1928.21859,1015.26087 Z M823.089678,1022.15617 C816.576719,1015.58805 810.242784,1007.02118 809.014197,1003.11866 C807.786241,999.216194 805.341045,996.023293 803.580428,996.023293 C801.81981,996.023293 800.37942,994.469276 800.37942,992.569886 C800.37942,990.670559 794.967712,981.520316 788.353264,972.23607 C778.412365,958.281632 777.146587,954.669937 781.053606,951.400181 C783.652612,949.224646 787.905703,948.369002 790.50534,949.498566 C795.634012,951.727754 817.540551,980.557685 817.540551,985.078105 C817.540551,986.602754 823.718785,996.20097 831.270591,1006.40735 C838.821766,1016.6138 845,1027.01954 845,1029.53136 C845,1037.67485 835.211019,1034.3798 823.089678,1022.15617 Z M1862.49946,1075.70114 C1862.49946,1073.77123 1858.9659,1072.18242 1854.64717,1072.1705 C1850.32781,1072.15761 1842.29605,1069.79006 1836.79798,1066.90703 C1831.30054,1064.02405 1824.78977,1061.66521 1822.33108,1061.66521 C1818.3636,1061.66521 1785.35912,1048.4579 1756.05486,1035.14367 C1749.23322,1032.04436 1735.55213,1030.73776 1716.79215,1031.39406 C1691.05093,1032.2946 1688,1031.73432 1688,1026.10274 C1688,1006.66465 1748.81724,1005.72866 1771.75943,1024.81367 C1774.63858,1027.20886 1778.95795,1028.45341 1781.35703,1027.57948 C1783.75675,1026.70542 1785.71934,1027.38421 1785.71934,1029.08689 C1785.71934,1030.78996 1791.60903,1034.30223 1798.80755,1036.89185 C1806.00543,1039.48141 1812.71298,1042.86041 1813.71414,1044.40056 C1814.71466,1045.94071 1819.57627,1047.93802 1824.51736,1048.83895 C1835.07318,1050.76338 1869.6858,1064.95134 1874.68521,1069.40288 C1876.91444,1071.38757 1876.29336,1073.66225 1872.94054,1075.79355 C1866.1657,1080.10016 1862.49946,1080.06774 1862.49946,1075.7014 L1862.49946,1075.70114 Z M2289.30944,1143.49971 C2285.59347,1142.67493 2278.99419,1139.70102 2274.64516,1136.89107 C2270.29613,1134.08107 2266.73794,1133.0299 2266.73794,1134.55503 C2266.73794,1136.08023 2264.87489,1135.49079 2262.5974,1133.24517 C2260.31991,1130.99955 2251.21311,1129.16216 2242.35979,1129.16216 C2232.3145,1129.16216 2223.16905,1126.88686 2218.03424,1123.10986 C2203.95803,1112.75678 2165.58351,1095.70327 2151.73733,1093.64792 C2144.47077,1092.5692 2135.15423,1089.83792 2131.03459,1087.57837 C2126.91432,1085.31882 2122.76681,1083.28753 2121.81817,1083.06439 C2114.25061,1081.28493 2101.11607,1073.68893 2092.48898,1066.10249 C2086.79588,1061.09585 2078.4755,1055.60306 2073.9991,1053.89615 C2067.12417,1051.2746 2066.54877,1049.97523 2070.29326,1045.52673 C2075.63402,1039.18036 2089.2375,1041.66556 2099.38989,1050.84269 C2103.18571,1054.27338 2113.27853,1060.40748 2121.81817,1064.47406 C2130.35781,1068.54057 2140.0419,1073.27569 2143.3371,1074.99654 C2146.6323,1076.71733 2154.57437,1078.12524 2160.9867,1078.12524 C2167.6297,1078.12524 2176.63384,1081.2195 2181.91757,1085.31807 C2187.01816,1089.27416 2192.08263,1091.63182 2193.17195,1090.55747 C2195.47985,1088.28167 2214.02487,1097.04406 2222.62281,1104.47285 C2225.87682,1107.28454 2236.74591,1111.60944 2246.776,1114.0837 C2292.34166,1125.32404 2299.5233,1127.97627 2300.69943,1133.99802 C2302.22156,1141.79236 2297.89217,1145.40439 2289.30944,1143.49971 Z M1836.21883,1168.90706 C1828.37588,1166.30705 1818.29888,1161.85132 1813.82569,1159.00533 C1809.35377,1156.1594 1801.78606,1152.9154 1797.00981,1151.79655 C1786.77336,1149.39864 1765.29132,1129.10958 1767.10843,1123.5561 C1769.68352,1115.68807 1778.66469,1118.09672 1791.56227,1130.11458 C1798.86362,1136.91751 1807.67016,1142.4836 1811.13229,1142.4836 C1814.59442,1142.4836 1820.98848,1143.85893 1825.34082,1145.53992 C1847.89213,1154.24948 1861.28005,1157.05763 1879.82194,1156.9674 C1901.74118,1156.86055 1905.56205,1158.84256 1899.26606,1167.05364 C1893.92671,1174.01779 1855.08149,1175.15969 1836.21883,1168.90706 Z M1753.68912,1188.42733 C1747.03582,1185.8929 1729.32246,1177.42036 1714.32666,1169.5994 C1699.33087,1161.77843 1685.18443,1155.3795 1682.89027,1155.3795 C1677.27232,1155.3795 1666.07705,1142.66233 1669.71126,1140.40913 C1677.0184,1135.87822 1696.30987,1142.15424 1732.91604,1160.97166 C1757.47441,1173.59567 1773.07136,1183.70313 1773.7836,1187.45561 C1775.13191,1194.55808 1770.38681,1194.78747 1753.68912,1188.42733 Z M802.35306,780.650041 C807.832175,775.141187 811.678386,769.984334 810.899842,769.190271 C808.67443,766.920177 773.310564,785.644575 773.310564,789.093156 C773.310564,790.791291 771.160329,792.18064 768.532266,792.18064 C762.115967,792.18064 754.810268,801.564412 757.617996,806.198109 C760.390046,810.772738 788.174256,794.905404 802.35306,780.650041 Z M694.941873,866.372398 C700.554897,862.177189 707.58897,854.977195 710.573428,850.372398 L716,842 L706.232169,847.985051 C696.716927,853.814724 678.398227,874 682.622324,874 C683.785117,874 689.32948,870.567607 694.941873,866.372398 Z M737.732487,872.088234 C743.384182,866.196874 748.003827,859.151997 747.999998,856.432879 C747.996168,853.383813 744.739822,855.278516 739.506819,861.376708 C734.840582,866.814882 728.634249,873.859759 725.716175,877.032003 C715.972028,887.622592 727.3035,882.960892 737.732487,872.088234 Z M648.524564,892.50742 C660.960654,887.909519 664.311863,884.742287 665.578162,876.392403 C666.445007,870.676561 665.931421,866 664.445014,866 C660.909703,866 629.963498,890.910948 628.362282,895.046428 C626.610251,899.568959 630.879255,899.031364 648.524564,892.50742 Z M643.357269,916.512664 C648.77792,910.730686 651.419839,906 649.22964,906 C647.038825,906 645.246116,907.532893 645.246116,909.406499 C645.246116,911.280043 641.848657,912.83646 637.696277,912.865113 C627.642561,912.934557 623.65842,916.302894 622.342083,925.845222 C621.411525,932.590904 622.157204,933.266949 627.37572,930.39648 C630.74483,928.542394 637.93662,922.294642 643.357269,916.512664 Z M562.832068,956.608276 C573.947421,951.411241 581.124689,941.055491 576.651191,936.669452 C574.725137,934.780771 572.840119,936.048065 554.361862,951.652452 C540.585076,963.286929 544.121927,965.356278 562.832068,956.608276 Z M491.300786,1017.72853 C488.678241,1016.65168 485.543866,1016.78415 484.336696,1018.02292 C483.128857,1019.26162 485.274939,1020.14268 489.105989,1019.98083 C493.338762,1019.80146 494.199598,1018.91862 491.300786,1017.72867 L491.300786,1017.72853 Z M456.591574,1034.39454 C464.390442,1032.12883 471.83449,1030.17378 473.134626,1030.04983 C478.680879,1029.52149 480.281798,1024.58766 474.906772,1024.58766 C471.657406,1024.58766 468.998539,1022.49648 468.998539,1019.94063 C468.998539,1015.5025 474.1457,1012.28468 493.813117,1004.42753 C501.186853,1001.48197 501.689459,1000.49018 496.805971,998.524798 C493.491501,997.191121 488.089129,998.479914 484.398355,1001.47799 C480.802635,1004.40144 468.409342,1013.93928 456.857852,1022.67306 C434.439119,1039.623 434.411775,1040.83793 456.590923,1034.39454 L456.591574,1034.39454 Z M518,1040.58802 C518,1039.71465 516.649711,1039 514.999724,1039 C513.349738,1039 512,1040.71612 512,1042.81357 C512,1044.91102 513.349738,1045.6256 514.999724,1044.40158 C516.649711,1043.1775 518,1041.46139 518,1040.58802 Z M465.69625,1041.42611 C464.595462,1040.32939 461.711887,1041.42389 459.287138,1043.85835 C455.783918,1047.37645 456.194169,1047.7856 461.287852,1045.85246 C464.812731,1044.51479 466.79638,1042.5229 465.69625,1041.42611 Z M596.00243,1050.72945 C594.905606,1048.93067 595.582289,1046.47117 597.512391,1045.26381 C599.439311,1044.05659 602.722777,1039.59964 604.808841,1035.35957 C607.397165,1030.0986 605.791716,1030.99754 599.753144,1038.19013 C590.124274,1049.65875 588.634047,1054 594.325685,1054 C596.344909,1054 597.099253,1052.52823 596.00243,1050.72945 Z M499.854967,1061.01542 C502.202015,1057.57187 503.528006,1054.11618 502.800567,1053.33615 C500.62579,1051.00286 479.484121,1061.34389 472.679379,1068.06944 C466.672494,1074.00734 467.0906,1074.14514 480.970438,1070.79973 C489.010007,1068.86195 497.507919,1064.45903 499.854967,1061.01542 Z M591.080394,1076.23141 C593.745232,1074.60096 594.776686,1072.15513 593.371369,1070.79615 C591.967262,1069.43718 589.78639,1069.86116 588.526263,1071.73834 C587.266137,1073.61552 584.011464,1075.97012 581.293994,1076.97083 C576.902002,1078.58812 576.902002,1078.81284 581.293994,1078.99308 C584.011464,1079.10427 588.415556,1077.86181 591.080394,1076.23141 Z M571.87626,1117.58832 C577.755531,1109.20827 581.800391,1101.161 580.865689,1099.70546 C578.017043,1095.27211 560.234162,1100.14981 555.417488,1106.68566 C551.945919,1111.39603 546.289985,1112.8561 531.165502,1112.94675 C512.342295,1113.05937 511.836449,1113.28155 520.102422,1117.79973 C524.865648,1120.40399 531.204315,1121.83725 534.187854,1120.98471 C537.171392,1120.13223 542.628169,1122.35836 546.313528,1125.93164 C556.28538,1135.59861 560.117722,1134.34793 571.87626,1117.58832 Z M268.738157,1137.33326 C275.426526,1133.73069 284.005016,1130.78306 287.801255,1130.78306 C291.597495,1130.78306 308.47486,1126.47984 325.306156,1121.22035 C348.143737,1114.0837 355.908336,1110.13871 355.908336,1105.67087 C355.908336,1097.50658 361.217184,1094.82363 383.344532,1091.8059 C393.74084,1090.38806 403.26887,1087.56666 404.51786,1085.5362 C405.766211,1083.50567 416.11325,1077.95386 427.510926,1073.19877 C443.623028,1066.47695 446.296327,1064.4016 439.524139,1063.87186 C423.648782,1062.63015 422.611582,1062.43274 420.428409,1060.23901 C418.076954,1057.87539 383.215281,1073.70549 380.186864,1078.51195 C378.086871,1081.84528 340.624841,1099.5753 333.443787,1100.63452 C330.855587,1101.01649 326.62105,1102.98097 324.03285,1105.0007 C316.648963,1110.76176 289.514138,1122.38059 272.291893,1127.15522 C254.177695,1132.17724 227,1144.04595 227,1146.93449 C227,1150.67634 256.61361,1143.86429 268.738157,1137.33326 Z M3.22792431,1196.74707 C-2.55234278,1190.95339 -0.282091398,1184.49199 7.74425544,1183.89557 C12.030317,1183.57685 19.4339203,1183.05986 24.1964226,1182.74615 C43.3851056,1181.48214 46.0325664,1180.91823 43.7018841,1178.59133 C38.6486825,1173.54816 75.0369533,1163.33491 109.756089,1160.05148 C129.606319,1158.17429 152.375625,1154.27209 160.354901,1151.38008 C168.334176,1148.48806 181.559393,1143.99211 189.74413,1141.3891 C197.928231,1138.78615 206.819042,1134.83881 209.500852,1132.61738 C216.351045,1126.94319 239.647681,1115.3343 244.184367,1115.3343 C246.263788,1115.3343 254.117116,1110.88114 261.635852,1105.43831 C269.155225,1099.99547 279.203109,1094.73561 283.965611,1093.74981 C318.600782,1086.57993 351.55346,1069.86262 380.1183,1044.97 C392.956131,1033.78262 413.850842,1019.59676 426.551909,1013.44577 C439.252341,1007.29483 457.895247,996.201359 467.980024,988.793648 C478.064801,981.385936 492.043163,971.435911 499.042841,966.682509 C540.933402,938.234601 552.811353,929.751884 558.341632,924.334064 C561.737785,921.006702 566.580438,918.284267 569.103222,918.284267 C574.077547,918.284267 589.371371,903.238187 614.783684,873.343034 C640.018526,843.657206 657.726996,827.994452 685.785499,810.543958 C710.790071,794.9925 721.408537,787.119346 739.797002,770.496756 C744.529608,766.2187 749.762828,762.718456 751.4256,762.718456 C754.901267,762.718456 779.712464,741.321893 792.515308,727.284026 C797.284173,722.055278 803.315064,717.777222 805.917361,717.777222 C808.51966,717.777222 811.546237,715.443726 812.642878,712.59171 C813.73952,709.739631 816.234952,707.406198 818.189061,707.406198 C826.519465,707.406198 835.292598,691.8882 833.438357,680.433344 C831.902169,670.945142 832.872226,668.531078 839.194453,666.139171 C843.442349,664.53155 848.516541,664.637769 850.689469,666.379796 C852.829321,668.095031 857.137645,668.518887 860.26282,667.321855 C869.233143,663.886052 896.390924,691.853153 894.363664,702.43909 C892.460444,712.376417 902.494968,732.514299 920.983302,755.85885 C928.454966,765.293784 939.442373,781.197609 945.399478,791.200775 C951.355946,801.203877 967.842463,828.056164 982.036465,850.872482 C1015.26521,904.287924 1016.93307,908.165488 1009.13,913.860313 C995.123647,924.082518 977.51568,912.907461 969.799752,888.899698 C967.355207,881.29428 963.258069,872.738105 960.694574,869.886089 C943.438373,850.687917 938.584271,844.119157 938.584271,839.96516 C938.584271,837.373452 933.908277,830.369408 928.193528,824.400624 C922.478779,818.43184 917.802787,812.083833 917.802787,810.293935 C917.802787,806.332502 903.566165,794.109613 898.753411,793.938763 C896.848282,793.87083 890.769046,784.562239 885.244492,773.252331 C875.542649,753.390501 868.674645,746.739332 862.072532,750.811744 C860.339788,751.880782 858.921914,754.353195 858.921914,756.30588 C858.921914,758.258629 854.153686,764.778375 848.325711,770.794205 C807.599218,812.833519 786.186084,837.274408 786.186084,841.720393 C786.186084,843.312585 783.069179,847.431028 779.259559,850.872418 C775.449302,854.313871 772.331761,858.399299 772.331761,859.951175 C772.331761,862.991629 729.847715,926.445473 721.124836,936.433656 C718.218482,939.761018 716.861673,942.483388 718.109707,942.483388 C719.357106,942.483388 717.651713,945.357816 714.317261,948.870885 C710.983446,952.384082 705.138296,959.645449 701.328039,965.007336 C697.518419,970.369286 687.68681,981.884711 679.47981,990.59726 C665.136961,1005.82333 646.046874,1034.9669 635.461484,1057.79871 C632.689984,1063.77498 625.068197,1075.66506 618.523334,1084.22117 C611.978471,1092.77728 603.924771,1108.33388 600.626577,1118.79138 C597.327747,1129.24881 590.988981,1141.35139 586.540076,1145.68595 C582.091173,1150.02057 577.527133,1157.79887 576.398051,1162.97105 C572.154608,1182.40426 567.043521,1191.12424 558.165431,1194.07803 C550.413245,1196.65711 548.390436,1195.84704 544.659693,1188.66942 C538.495855,1176.81185 539.173304,1171.47631 547.400661,1167.08156 C552.745198,1164.22675 554.262939,1160.51756 553.462086,1152.2676 C552.491392,1142.26907 551.126316,1141.09724 538.539746,1139.46187 C516.234796,1136.56376 413.989512,1142.59559 383.4025,1148.61396 C372.771312,1150.70575 363.086644,1144.96433 365.715021,1138.12834 C366.636098,1135.73224 364.595479,1133.38262 361.179606,1132.90695 C348.38694,1131.12556 317.069046,1132.94505 315.272691,1135.57739 C312.732733,1139.29489 301.508695,1143.52832 290.212778,1145.02877 C285.076247,1145.71103 263.483095,1152.02742 242.22835,1159.06517 C211.086658,1169.37645 202.344695,1171.08883 197.203074,1167.88419 C192.280272,1164.81562 187.487237,1165.08227 176.214856,1169.05177 C168.180239,1171.88124 159.523514,1175.92147 156.97783,1178.03021 C154.432146,1180.13896 152.349544,1180.80414 152.349544,1179.50844 C152.349544,1178.21268 150.401162,1178.3674 148.020227,1179.85192 C141.766063,1183.75126 137.208386,1184.4605 97.7871758,1187.66882 C78.2556338,1189.25841 60.3315252,1192.15791 57.9556801,1194.11212 C52.2574697,1198.80001 7.42938453,1200.95808 3.22792431,1196.74682 L3.22792431,1196.74707 Z M1529.55572,335.644431 C1531.99988,332.528199 1534,327.006596 1534,323.374135 C1534,317.824965 1531.9176,318.728184 1520.96296,329.027742 C1513.79308,335.769743 1506.59316,341.28582 1504.96329,341.28582 C1503.33342,341.28582 1502,342.685193 1502,344.395544 C1502,349.257552 1524.47673,342.119476 1529.55572,335.644431 Z M1493.14069,354.836548 C1491.91751,353.096712 1493.14141,350.97504 1495.86104,350.121797 C1498.58067,349.268618 1499.76193,347.569629 1498.48525,346.346363 C1497.20929,345.123099 1492.94912,347.244707 1489.01859,351.061114 C1482.41037,357.477459 1482.38,358 1488.62098,358 C1492.33246,358 1494.36676,356.576446 1493.14286,354.836548 L1493.14069,354.836548 Z M1478.17751,390.000073 C1480.475,386.700018 1481.60032,384 1480.67714,384 C1479.75457,384 1477.11936,386.700018 1474.82188,390.000073 C1472.52501,393.299982 1471.39969,396 1472.32287,396 C1473.24544,396 1475.88003,393.299982 1478.17751,390.000073 Z M1506.7493,380.454463 C1508.53641,373.604492 1509.44985,368 1508.78044,368 C1506.22991,368 1487.37481,399.258575 1489.86448,399.359022 C1491.30454,399.41642 1489.92473,401.057372 1486.74155,403.004192 C1483.58367,404.950886 1481,408.679795 1481,411.290523 C1481,420.014546 1503.43957,393.141962 1506.7493,380.454463 Z M1453.17771,425 C1455.47524,421.700018 1456.59997,419 1455.67739,419 C1454.7548,419 1452.11954,421.700018 1449.82201,425 C1447.52448,428.299982 1446.39975,431 1447.32296,431 C1448.24554,431 1450.88018,428.299982 1453.17771,425 Z M1428.4648,442.858561 C1434.51045,436.58661 1443.36815,424.243513 1448.14777,415.429536 C1456.63023,399.786778 1463.60787,395.239339 1466.42827,403.516387 C1467.28946,406.044184 1468.73699,405.315012 1470.18517,401.624003 C1471.59279,398.033617 1471.1474,396.461489 1469.07554,397.713927 C1467.17038,398.865994 1465.61086,396.631882 1465.61086,392.749071 C1465.61086,377.59967 1455.19621,387.313464 1427.3822,428.403321 C1409.10557,455.403722 1409.62948,462.397036 1428.4648,442.858561 Z M1447.75782,470.815886 C1454.26047,461.364617 1461.44164,451.872439 1463.7164,449.722177 C1469.55517,444.202506 1473.26803,434 1469.43754,434 C1467.67249,434 1462.67904,439.355973 1458.3415,445.902025 C1454.00396,452.448139 1448.57854,459.720882 1446.2865,462.063788 C1437.26519,471.282185 1429.67001,488 1434.5033,488 C1435.2908,488 1441.25583,480.267155 1447.75782,470.815886 Z M1388.92677,507.841416 C1392.6356,504.759778 1395.66998,500.316206 1395.66998,497.966894 C1395.66998,495.617519 1396.91461,493.187563 1398.43485,492.566846 C1399.95644,491.946314 1404.09527,486.646746 1407.63346,480.790378 C1413.23159,471.523578 1413.3501,469.890114 1408.54493,468.197209 C1404.55439,466.791066 1399.43841,472.791127 1390.08336,489.848262 C1376.97818,513.741557 1376.70528,517.997478 1388.92677,507.841416 Z M1445.81486,508.38867 C1445.8786,506.971188 1448.33619,503.105176 1451.32342,499.797636 C1465.69807,483.883159 1480.25181,461.199925 1483.45191,449.72325 L1487,437 L1477.04916,444.773426 C1471.57565,449.048779 1467.01163,453.947231 1466.90647,455.658875 C1466.8045,457.370454 1462.80963,463.839495 1458.03847,470.03438 C1453.26668,476.229328 1449.36232,483.720583 1449.36232,486.681769 C1449.36232,489.642954 1446.62939,494.838786 1443.28907,498.228119 C1431.04124,510.65645 1428.47083,515.377811 1430.74934,521.258591 C1432.84174,526.657894 1433.72063,526.440539 1439.40765,519.116844 C1442.88946,514.633854 1445.77216,509.806213 1445.81486,508.38867 Z M1369.51777,515.263495 C1373.9492,506.608451 1376.78068,498.617394 1375.80891,497.505554 C1374.83769,496.393714 1374.04296,497.177948 1374.04296,499.248367 C1374.04296,501.318785 1372.33767,505.056521 1370.25405,507.554532 C1366.25556,512.347803 1358.34298,531 1360.30858,531 C1360.94172,531 1365.08635,523.918602 1369.51777,515.263495 Z M1399,540.588022 C1399,539.714583 1397.65026,539 1396.00028,539 C1394.35029,539 1393,540.716124 1393,542.81358 C1393,544.911035 1394.35029,545.625619 1396.00028,544.401535 C1397.65026,543.177518 1399,541.461394 1399,540.588022 Z M1399.00271,560.63875 C1400.88555,558.240005 1403.50695,553.307696 1404.82741,549.678148 C1406.89684,543.989082 1406.45734,543.708807 1401.64362,547.646632 C1394.26962,553.678128 1388.20502,565 1392.34712,565 C1394.12463,565 1397.11923,563.037431 1399.00271,560.63875 Z M1389.7458,573.42931 C1390.75955,570.524718 1388.75448,569.497674 1383.49196,570.225131 C1379.23135,570.814006 1375.0748,573.219524 1374.2542,575.570667 C1373.24045,578.47526 1375.24552,579.502362 1380.50804,578.774846 C1384.76803,578.18603 1388.9252,575.780512 1389.7458,573.42931 Z M1327.88593,584.259845 C1340.56198,570.496941 1348.56754,556.534673 1348.56754,548.1918 C1348.56754,544.147096 1350.85649,540.986072 1353.78409,540.986072 C1356.65294,540.986072 1359,539.260069 1359,537.150486 C1359,528.606755 1349.59259,537.567292 1332.40378,562.483806 C1322.42414,576.948843 1314.15481,589.978858 1314.02644,591.439368 C1313.56661,596.641113 1319.14144,593.755012 1327.88593,584.259845 Z M1968,602.587955 C1968,601.714583 1966.65014,601 1965.00055,601 C1963.35041,601 1962,602.716058 1962,604.81358 C1962,606.911035 1963.35041,607.625619 1965.00055,606.401535 C1966.65014,605.177518 1968,603.461394 1968,602.587955 Z M1369.18182,614.870876 C1378.7637,598.736528 1379.21597,596 1372.29808,596 C1367.92167,596 1345,623.714117 1345,629.005758 C1345,629.985924 1348.60694,630.294562 1353.0158,629.691528 C1357.94447,629.017289 1364.16971,623.310771 1369.18182,614.870876 Z M1384.72834,675.105488 C1387.68505,673.942562 1390.10485,669.951823 1390.10485,666.237372 C1390.10485,662.522856 1393.54665,655.837392 1397.75321,651.38078 C1401.95978,646.924231 1405.8055,641.442196 1406.29933,639.198501 C1406.79253,636.954871 1410.76623,629.305924 1415.12825,622.200911 C1419.49089,615.095835 1424.19878,603.011454 1425.59098,595.346702 C1426.98255,587.681886 1430.49427,576.707322 1433.39417,570.958791 C1436.29407,565.210195 1440.19285,557.431038 1442.0589,553.671733 C1443.92495,549.912428 1448.93936,540.113715 1453.20212,531.896837 C1457.46487,523.679895 1459.92651,516.976325 1458.67291,517.000063 C1455.89537,517.051252 1440.88583,539.789824 1435.70035,551.79819 C1433.63203,556.589381 1429.40985,562.660588 1426.31892,565.289729 C1423.22798,567.918868 1420.69892,573.013603 1420.69892,576.611346 C1420.69892,580.209089 1419.3473,583.152715 1417.69602,583.152715 C1416.04473,583.152715 1413.75291,585.896387 1412.60231,589.249708 C1411.45297,592.603029 1405.17808,604.753443 1398.65908,616.250635 C1392.13946,627.747763 1385.19407,643.033758 1383.22501,650.219454 C1381.25595,657.405215 1378.26928,663.284468 1376.5874,663.284468 C1374.90615,663.284468 1373.76055,666.420049 1374.04273,670.252425 C1374.59212,677.692973 1376.24153,678.443324 1384.72834,675.105679 L1384.72834,675.105488 Z M1932.26536,659.034201 C1931.25113,658.044356 1934.76635,652.808994 1940.0774,647.400019 C1953.87796,633.345624 1948.57152,631.873909 1932.47295,645.290827 C1913.5518,661.060251 1900.64158,680.086762 1906.37045,683.759939 C1910.86827,686.64389 1935.98356,662.662239 1932.26536,659.034201 Z M1331.0798,675.895581 C1339.4702,667.055962 1349.70339,649.806237 1347.75962,647.779045 C1343.59332,643.432731 1325.58506,658.072865 1318.17068,671.833973 L1310,687 L1317.6849,684.455591 C1321.91216,683.056038 1327.93968,679.204086 1331.0798,675.895581 Z M1265.43399,695.712145 C1266.53025,692.616023 1265.99391,691.219522 1264.17269,692.438393 C1262.42809,693.607426 1261,696.037183 1261,697.837759 C1261,702.842251 1263.30039,701.739477 1265.43399,695.712145 Z M1243.30857,693.603518 C1243.30857,690.990704 1244.6519,688.852839 1246.29313,688.852839 C1250.03389,688.852839 1261.29396,671.76195 1261.29396,666.084549 C1261.29396,663.762794 1263.41331,661.040623 1266.0046,660.035295 C1268.59464,659.029967 1269.7243,656.587391 1268.51413,654.607362 C1265.47383,649.631956 1257.66406,656.624594 1251.51843,669.824137 C1248.82991,675.600686 1243.46154,685.322322 1239.5901,691.427947 C1233.96347,700.301466 1233.63027,702.110192 1237.92967,700.441639 C1240.88822,699.29357 1243.30857,696.216455 1243.30857,693.603518 Z M1368.39807,702.206058 C1374.97582,687.775143 1377.8677,680.296368 1374.73162,685.825688 C1373.95396,687.197668 1371.29322,687.535002 1368.82053,686.575362 C1365.07264,685.120913 1356,705.381572 1356,715.20636 C1356,722.154671 1362.33028,715.516028 1368.39807,702.206058 Z M1878.97496,710.910691 C1882.83566,703.772841 1874.99952,707.098701 1868.62311,715.304087 C1862.30314,723.437472 1862.30989,723.463834 1869.59012,719.100934 C1873.62201,716.684516 1877.84534,712.998932 1878.97496,710.910691 Z M1329.39061,711.721476 C1336.37085,698.477093 1332.32361,697.006775 1324.92428,710.098794 C1321.53523,716.09444 1320.05362,721 1321.63195,721 C1323.21028,721 1326.70141,716.824689 1329.39061,711.721476 Z M1303.00053,723.447799 C1305.26158,719.298227 1309.9758,712.199294 1313.47457,707.672356 C1319.67998,699.644717 1319.65436,699.548008 1312.46202,703.754266 C1303.34636,709.085048 1286.42152,735.472183 1293.8242,732.812189 C1296.60973,731.811267 1300.73881,727.597308 1303.00053,723.447799 Z M1313.81179,743.953941 C1311.67413,740.671629 1299,746.573419 1299,750.851008 C1299,752.580048 1302.528,752.334055 1307.29515,750.272338 C1311.85742,748.299472 1314.78991,745.456082 1313.81179,743.953824 L1313.81179,743.953941 Z M1217,772.999963 C1217,769.700002 1215.55089,767 1213.7799,767 C1212.0089,767 1209.62528,769.700002 1208.48348,772.999963 C1207.21915,776.654817 1208.48348,779 1211.70358,779 C1214.61704,779 1217,776.299998 1217,772.999963 Z M1980.59778,777.427518 C1983.0188,777.403335 1985,774.419936 1985,770.798846 C1985,761.928937 1967.26886,761.662263 1961.40095,770.443967 C1956.32863,778.03595 1959.48444,781.669495 1969.06183,779.264059 C1972.98541,778.278682 1978.1761,777.452244 1980.59778,777.427518 Z M1333.21982,774.748589 C1339.89607,778.557286 1349.82215,747.450553 1344.4775,739.468177 C1341.35961,734.812229 1325.49412,766.18283 1326.01241,775.978121 C1326.1951,779.531881 1326.96307,779.96525 1328.16882,777.203782 C1329.19526,774.854199 1331.46804,773.749324 1333.21982,774.748589 Z M1872.43432,781.257848 C1875.52869,780.069151 1876.74098,776.29587 1875.73001,771.00195 C1874.54845,764.810275 1871.9351,762.626696 1865.70747,762.626696 C1852.90789,762.626696 1857.91508,754.835024 1874.45752,749.011266 C1884.96422,745.312447 1889.40509,741.616391 1890.88706,735.336755 C1892.00465,730.603689 1895.40194,723.834523 1898.43673,720.294236 C1903.67284,714.184997 1903.51919,713.994321 1895.41636,716.548768 C1878.22232,721.969387 1863.74197,724.445981 1859.27538,722.730083 C1856.75736,721.762701 1850.97814,724.988878 1846.4319,729.899311 C1838.35918,738.619564 1838.30148,739.09139 1843.94273,750.169073 C1847.11989,756.40702 1853.08537,765.128718 1857.20076,769.550625 C1861.31551,773.972532 1864.6827,778.838702 1864.6827,780.364425 C1864.6827,783.637567 1865.88056,783.77563 1872.43432,781.257848 Z M1320,800.999963 C1320,797.700002 1319.43673,795 1318.74183,795 C1318.04938,795 1315.61508,797.700002 1313.33323,800.999963 C1309.93402,805.914019 1310.16178,807 1314.5914,807 C1317.56631,807 1320,804.299998 1320,800.999963 Z M1676.28624,797.30388 C1663.48962,785.899009 1657.82736,783.563823 1654.5232,788.328501 C1651.50063,792.687371 1662.0938,802.517939 1672.93413,805.414624 C1689.64268,809.879113 1689.84594,809.388027 1676.28624,797.30388 Z M1909.58271,808.499819 C1916.75075,804.923545 1922.54265,798.252989 1926.13962,789.429581 C1932.99075,772.627086 1930.92838,769.983478 1918.30077,779.38083 C1912.51134,783.689499 1905.69412,785.884881 1901.58911,784.762897 C1894.27248,782.763342 1882,788.828187 1882,794.443258 C1882,797.430318 1895.19916,814 1897.57843,814 C1898.11484,814 1903.51954,811.524896 1909.58271,808.499819 Z M1217,815.000055 C1217,813.350028 1215.65014,812 1214,812 C1212.34986,812 1211,813.350028 1211,815.000055 C1211,816.650028 1212.34986,818 1214,818 C1215.65014,818 1217,816.650028 1217,815.000055 Z M1284.5118,817.732609 C1285.65436,815.811151 1287.67343,814.935586 1288.99882,815.787035 C1290.32421,816.63842 1293.57027,815.860898 1296.21194,814.059011 C1300.27741,811.286609 1300.02837,810.000376 1294.59499,805.692121 C1286.15791,799.001236 1284.13702,799.236905 1275.819,807.881886 C1270.16391,813.759643 1269.68648,815.736656 1273.3389,818.141698 C1279.29952,822.066305 1281.99343,821.967694 1284.5118,817.732609 Z M1980,821.000028 C1980,819.350016 1978.2839,818 1976.18622,818 C1974.0892,818 1973.37432,819.350016 1974.59841,821.000028 C1975.8225,822.649984 1977.5386,824 1978.41153,824 C1979.28512,824 1980,822.649984 1980,821.000028 Z M1193.30471,817.077926 C1195.0192,814.295521 1193.62955,814.306273 1188.39255,817.117027 C1184.37564,819.273937 1180.0118,822.786173 1178.69557,824.922099 C1176.98043,827.704504 1178.37073,827.693686 1183.60773,824.882997 C1187.62529,822.726152 1191.98913,819.213916 1193.30471,817.077991 L1193.30471,817.077926 Z M1284.28327,835.721603 C1298.80224,829.748156 1298.53577,825 1283.68354,825 C1277.20277,825 1271.90044,825.720838 1271.90044,826.601924 C1271.90044,827.482939 1270.98106,830.930254 1269.85765,834.262623 C1267.40557,841.530579 1269.62271,841.754701 1284.28574,835.721603 L1284.28327,835.721603 Z M1930.65676,836.872281 C1931.89985,834.966507 1935.72333,834.251162 1939.15375,835.282659 C1946.88849,837.608663 1953.44146,830.637623 1951.72399,821.910813 C1951.01467,818.310544 1950.31374,814.381282 1950.16594,813.179235 C1949.78514,810.102969 1936.11252,813.326609 1922.97301,819.589518 C1912.19381,824.727616 1912.03698,825.111522 1917.7012,832.506583 C1924.18899,840.976068 1927.29669,842.02328 1930.65676,836.872281 Z M1172,843.000028 C1172,841.350016 1170.64959,840 1169,840 C1167.34986,840 1166,841.350016 1166,843.000028 C1166,844.649984 1167.34986,846 1169,846 C1170.64959,846 1172,844.649984 1172,843.000028 Z M1166.59574,852 C1167.76462,850.350028 1166.31157,849 1163.36066,849 C1160.41226,849 1158,850.350028 1158,852 C1158,853.649972 1159.4562,855 1161.23509,855 C1163.01523,855 1165.4275,853.649972 1166.59574,852 Z M1631,857.800281 C1631,856.002906 1627.96263,854.760372 1624.25051,855.039072 C1620.53839,855.318092 1618.27144,856.788386 1619.21328,858.30706 C1621.60863,862.170781 1631,861.767034 1631,857.800217 L1631,857.800281 Z M1953.78993,853.044329 C1952.43649,851.594064 1948.27522,851.662898 1944.54321,853.197125 C1938.78776,855.563251 1938.61196,856.552408 1943.38464,859.712388 C1949.27777,863.614631 1958.27455,857.849047 1953.78993,853.044179 L1953.78993,853.044329 Z M1142.09388,865.439239 C1144.22732,864.059695 1148.67962,857.771489 1151.9866,851.465476 L1158,840 L1149.65554,846.150703 C1137.47668,855.127896 1128.01963,868.065087 1133.68398,867.999754 C1136.17545,867.974673 1139.95981,866.818783 1142.09388,865.439239 Z M1101.72711,868.000037 C1102.96735,864.700002 1103.37165,862 1102.62564,862 C1101.87963,862 1099.07542,864.700002 1096.3928,868.000037 C1093.58284,871.458381 1093.20156,874 1095.49427,874 C1097.68195,874 1100.48688,871.299998 1101.72711,868.000037 Z M1277.18888,860.667952 C1307.32866,833.175036 1318.38421,821.328109 1320.65324,814.091931 C1323.06172,806.411753 1322.90839,806.356325 1314.55789,811.893389 C1309.84693,815.017413 1304.03427,822.357743 1301.64093,828.205153 C1298.62102,835.582647 1292.66449,840.842953 1282.18063,845.390868 C1264.58615,853.023535 1259.17606,857.839651 1256.48805,868.263391 C1253.9906,877.949325 1261.10625,875.338393 1277.18888,860.667952 Z M1215.66826,881.41965 C1214.45537,880.210994 1215.1657,877.177625 1217.24642,874.67884 C1224.26695,866.249819 1216.61332,865.58747 1208.27019,873.901978 L1200,882.143073 L1208.93701,882.880115 C1213.85168,883.285646 1216.88115,882.62849 1215.66826,881.41965 Z M1239.55425,867.988088 L1242,858 L1236.1783,867.988088 C1229.62832,879.225062 1227.50247,891.935138 1233.67205,882.970128 C1235.5627,880.223436 1238.20962,873.481534 1239.55425,867.988088 Z M1861.38024,886.189268 C1852.72659,881.212019 1845.11444,875.868377 1844.46334,874.314527 C1842.59418,869.849547 1815.55515,858.884386 1800.19536,856.36217 C1792.50359,855.099072 1783.45698,853.333969 1780.09171,852.43963 C1776.72644,851.545291 1773.98529,852.05955 1774.00006,853.582172 C1774.06427,857.774626 1798.60102,870.40816 1812.31766,873.292416 C1818.98527,874.694421 1826.8517,877.042271 1829.79896,878.509904 C1839.03692,883.10956 1869.95619,894.74319 1873.61683,894.996742 C1875.53993,895.129864 1870.03324,891.166516 1861.38024,886.189268 Z M1935.28956,891.474329 C1934.37993,886.486816 1932.26148,882.406088 1930.58133,882.406088 C1928.90054,882.406088 1927.45542,879.549638 1927.36967,876.058332 C1927.27439,872.148476 1925.48434,873.889765 1922.71162,880.592454 C1918.61892,890.48434 1918.86919,891.875094 1925.46148,895.879879 C1935.87015,902.203187 1937.14121,901.633482 1935.28956,891.474329 Z M1634.99861,890.775041 C1634.99861,878.699616 1631.61968,875.168683 1624.92654,880.250758 C1618.52363,885.111758 1618.31414,895.989873 1624.57856,898.3021 C1633.55169,901.61457 1635,900.568419 1635,890.775041 L1634.99861,890.775041 Z M1169.3795,894.159403 C1171.97473,890.947065 1173.16086,890.196142 1172.01521,892.490652 C1170.86896,894.785223 1171.34148,896.66256 1173.06418,896.66256 C1174.78689,896.66256 1177.09511,894.286896 1178.19363,891.3833 C1181.19793,883.441211 1180.68856,882.404593 1174.88901,884.66208 C1171.04419,886.158777 1170.12816,885.296421 1171.55538,881.523174 C1173.30286,876.904244 1172.75662,876.865689 1166.68516,881.17931 C1162.92434,883.851702 1157.67828,889.179569 1155.02624,893.019075 C1150.57416,899.467226 1150.75785,900 1157.43296,900 C1161.40768,900 1166.78305,897.371741 1169.3795,894.159341 L1169.3795,894.159403 Z M1114.57394,891.303876 C1113.47747,890.20349 1111.48537,892.187061 1110.14749,895.711924 C1108.21427,900.805711 1108.62381,901.216289 1112.14155,897.712694 C1114.57656,895.288284 1115.67041,892.404329 1114.57394,891.303876 Z M1055,894.235563 C1055,892.455962 1053.65014,891 1052,891 C1050.35041,891 1049,893.412289 1049,896.360651 C1049,899.308949 1050.35041,900.764975 1052,899.596151 C1053.65014,898.427327 1055,896.015037 1055,894.235563 Z M1975.80756,883.235678 C1974.95834,872.467391 1973.97498,871.258257 1966.91353,872.302063 C1952.17238,874.481084 1950.4372,879.135363 1959.74359,891.535963 C1970.21066,905.48373 1977.27386,901.834251 1975.80756,883.235678 Z M1079.34344,900.782039 C1084.95937,894.459211 1085.51283,891 1080.91014,891 C1079.11759,891 1076.02328,894.42372 1074.03403,898.608268 C1069.8148,907.485978 1072.43631,908.559309 1079.34344,900.782039 Z M1095.13909,908.542575 C1096.35399,906.64102 1099.21654,906.120961 1101.50102,907.386997 C1103.78486,908.652973 1104.5231,908.476724 1103.14027,906.995265 C1101.75744,905.513745 1102.28125,901.310093 1104.30415,897.653742 C1110.43034,886.580911 1105.84522,887.618157 1093.29381,900.144331 C1084.70875,908.712764 1083.01137,912 1087.17279,912 C1090.3389,912 1093.92419,910.444131 1095.13909,908.542638 L1095.13909,908.542575 Z M1232,901.481188 C1232,895.617288 1222.72329,900.981392 1219.19211,908.887679 C1215.70662,916.691077 1215.78178,916.720735 1223.8242,910.693655 C1228.32071,907.323362 1232,903.177745 1232,901.481188 Z M1274.51129,918.775227 C1296.86054,892.977399 1298.2035,879.92071 1276.14683,902.876111 C1267.2779,912.106836 1260.01221,920.852641 1260.00035,922.311228 C1259.93446,927.236524 1269.11244,925.007016 1274.51129,918.775227 Z M1240.24693,922.799622 C1241.36872,919.939431 1243.63378,917.599245 1245.28003,917.599245 C1249.87327,917.599245 1273.41533,892.830104 1273.41533,887.997239 C1273.41533,882.806284 1290.17457,871.541761 1294.2401,874.000248 C1297.91066,876.220095 1306.60001,860.736245 1304.74293,855.28462 C1303.98227,853.051275 1290.30796,864.208258 1274.35558,880.077956 C1241.09868,913.161971 1228.69518,928 1234.29634,928 C1236.44753,928 1239.12513,925.659815 1240.24693,922.799622 Z M1200.83616,921.585758 C1211.28342,912.196697 1210.15087,904.892295 1198.43998,906.13892 C1192.03464,906.82069 1186.78938,910.573464 1182.45318,917.576886 L1176,928 L1184.85002,928 C1189.71645,928 1196.9109,925.113591 1200.83616,921.585758 Z M1142.0674,925.438582 C1147.53053,924.351236 1152,921.919615 1152,920.034854 C1152,915.570862 1131.77728,918.954338 1120.47028,925.310203 C1109.72909,931.347969 1113.3243,937.473995 1124.19682,931.660151 C1128.56281,929.325611 1136.60428,926.525871 1142.0674,925.438582 Z M1624.64972,929.625569 C1630.68396,914.44887 1630.64359,914 1623.25188,914 C1617.76473,914 1613,925.415845 1613,938.565184 C1613,946.079734 1620.35074,940.439184 1624.64972,929.625569 Z M1052.49311,938.577459 C1055.65811,935.032334 1056.56159,935.032334 1056.56159,938.577459 C1056.56159,945.643711 1065.01673,943.959881 1071.81869,935.53878 C1078.7645,926.940213 1073.24086,924.992416 1065.74026,933.395381 C1062.28698,937.264046 1059.81999,937.669412 1057.25026,934.790201 C1053.12263,930.166263 1043,933.311461 1043,939.21791 C1043,944.475117 1047.49998,944.171459 1052.49311,938.577527 L1052.49311,938.577459 Z M1211.77854,952.553764 C1213.43875,948.465489 1213.40252,944.736272 1211.69443,944.135945 C1207.8933,942.798389 1198,951.656988 1198,956.398554 C1198,962.935827 1208.78228,959.926643 1211.7766,952.553764 L1211.77854,952.553764 Z M1539.08599,953.420399 C1539.35422,949.532557 1542.91448,941.336664 1546.99808,935.207296 C1551.08168,929.077927 1553.70673,923.29799 1552.83171,922.363092 C1550.46297,919.831189 1540.73171,931.184395 1540.73171,936.480031 C1540.73171,939.001424 1538.54119,941.962903 1535.8637,943.061082 C1530.12961,945.412886 1529.08054,963.880052 1534.79734,961.84347 C1536.88772,961.098545 1538.81836,957.308176 1539.08599,953.420399 Z M1083.33187,959 C1084.6345,957.349972 1083.97228,956 1081.86809,956 C1079.76038,956 1076.97075,957.349972 1075.66813,959 C1074.3655,960.649972 1075.02772,962 1077.13191,962 C1079.23962,962 1082.02925,960.649972 1083.33187,959 Z M1061.33187,963 C1062.6345,961.350028 1061.97228,960 1059.86809,960 C1057.76109,960 1054.97075,961.350028 1053.66813,963 C1052.3655,964.650028 1053.02772,966 1055.13191,966 C1057.23891,966 1060.02925,964.650028 1061.33187,963 Z M1610.31482,965.961683 C1612.83058,962.486801 1614.9379,957.41408 1614.99797,954.688955 C1615.15603,947.500435 1606.04011,956.003283 1603.75259,965.177383 C1601.55928,973.97183 1604.28369,974.29718 1610.31482,965.961683 Z M1258,968.186485 C1258,966.088962 1256.65014,965.374379 1255,966.598463 C1253.34986,967.822547 1252,969.538605 1252,970.412044 C1252,971.285483 1253.34986,972 1255,972 C1256.65014,972 1258,970.283941 1258,968.186485 Z M1238.97921,964.499164 C1242.44205,959.526884 1249.07165,951.745991 1253.71108,947.208093 C1263.03822,938.084251 1261.87192,933.756221 1251.00131,937.154067 C1245.45562,938.887156 1226,966.198086 1226,972.24849 C1226,976.704304 1233.66588,972.127424 1238.97921,964.499164 Z M1169.45815,970.406132 C1178.53686,966.981699 1188,955.335105 1188,947.58517 C1188,946.693566 1182.98169,945.980426 1176.84728,946.00041 C1167.10244,946.033276 1164.96983,947.838571 1159.94522,960.31715 C1153.56378,976.165537 1153.72763,976.339204 1169.45815,970.406132 Z M1122.26246,969.232883 C1127.48943,961.513459 1127.41158,961.147975 1120.90204,962.795227 C1117.10621,963.755769 1114,967.43867 1114,970.979384 C1114,979.435363 1115.5797,979.101455 1122.26246,969.232883 Z M2411.97732,972.882709 C2405.60165,966.344661 2389.12886,957 2383.97826,957 C2378.82189,957 2395.24719,970.786979 2405.28334,974.882074 C2419.48822,980.678623 2419.55817,980.657658 2411.97732,972.882709 Z M1008.46917,991.917165 C1015.541,989.200594 1038,960.101052 1038,953.655865 C1038,949.852082 1036.05658,950.070199 1028.48125,954.72424 C1017.79148,961.291373 993,986.785455 993,991.21075 C993,994.618459 1000.54228,994.962852 1008.46917,991.917165 Z M1597.43397,997.712145 C1598.53023,994.616023 1597.99388,993.219522 1596.17326,994.438393 C1594.42809,995.607426 1593,998.037183 1593,999.837759 C1593,1004.84225 1595.30038,1003.73948 1597.43397,997.712145 Z M1535.80194,988.112886 C1538.67866,982.488743 1539.8301,977.938218 1538.36106,978.000635 C1536.89138,978.064586 1533.19283,983.504291 1530.14213,990.092437 C1523.51056,1004.41621 1528.32259,1002.73307 1535.80194,988.112886 Z M1163.85933,998.445836 C1175.527,995.724667 1179.6843,985.075984 1168.2094,987.304336 C1152.91095,990.27517 1147,993.325227 1147,998.248618 C1147,1000.95585 1148.84521,1002.56204 1151.10067,1001.81807 C1153.35553,1001.07404 1159.0972,999.55656 1163.85933,998.445836 Z M1222.07169,991.901185 C1229.48952,984.241088 1225.53169,977.062074 1217.43361,983.488034 C1214.47699,985.834032 1209.3448,993.433985 1206.0295,1000.3768 L1200,1013 L1207.80558,1005.78674 C1212.09858,1001.81945 1218.5183,995.570938 1222.07169,991.901185 Z M1129.40504,1010.5 C1131.64899,1006.375 1132.62749,1003 1131.579,1003 C1130.53122,1003 1127.83791,1006.375 1125.59466,1010.5 C1123.3507,1014.625 1122.37291,1018 1123.4207,1018 C1124.46848,1018 1127.16179,1014.625 1129.40504,1010.5 Z M1167,1014.73342 C1167,1011.493 1164.91657,1010.21648 1161.69227,1011.48159 C1158.77324,1012.62722 1157.2697,1015.02782 1158.35056,1016.81628 C1161.44961,1021.94502 1167,1020.60846 1167,1014.73342 Z M1152,1015.18646 C1152,1013.08899 1150.65026,1012.3744 1149.00028,1013.59842 C1147.35029,1014.82252 1146,1016.53865 1146,1017.41203 C1146,1018.28541 1147.35029,1019 1149.00028,1019 C1150.65026,1019 1152,1017.28393 1152,1015.18646 Z M1590.41616,1011.14073 C1589.63771,1008.46806 1589,1010.65453 1589,1016.00001 C1589,1021.34527 1589.63771,1023.53195 1590.41616,1020.85936 C1591.19461,1018.18676 1591.19461,1013.81332 1590.41616,1011.14073 Z M1561,1020.63937 C1561,1017.69102 1559.64971,1016.23506 1558.00028,1017.40382 C1556.35029,1018.57264 1555,1020.98492 1555,1022.76445 C1555,1024.54404 1556.35029,1026 1558.00028,1026 C1559.64971,1026 1561,1023.58772 1561,1020.63937 Z M1235.89907,1023.29943 C1237.28448,1021.08616 1238.44193,1015.54666 1238.4709,1010.98945 C1238.53388,1006.43217 1240.32358,1002.7036 1242.52387,1002.7036 C1244.72416,1002.7036 1245.62909,1001.74261 1244.53587,1000.56804 C1241.49615,997.303354 1227.07901,1008.64233 1218.58893,1020.97571 L1211,1032 L1222.18975,1029.66181 C1228.34414,1028.37578 1234.51365,1025.5127 1235.89907,1023.29943 Z M1012.58612,1029.236 C1013.76326,1027.45622 1012.34315,1026 1009.42044,1026 C1006.50284,1026 1002.3755,1029.03893 1000.24757,1032.75325 C996.732129,1038.89302 997.019221,1039.187 1003.41325,1035.9893 C1007.28163,1034.05483 1011.40898,1031.01577 1012.58612,1029.236 Z M1593,1039.74976 C1593,1036.07801 1586.18716,1036.08503 1584.55311,1039.76117 C1583.22086,1042.75345 1584.295,1043.67157 1587.77885,1042.5188 C1590.65118,1041.56762 1593,1040.32278 1593,1039.75187 L1593,1039.74976 Z M1510.32521,1038.99138 C1513.45127,1035.68667 1517.07933,1029.71323 1518.38763,1025.71716 C1522.4776,1013.22724 1505.0166,1019.54894 1497.5438,1033.26381 C1491.42074,1044.50292 1491.435,1045 1497.89703,1045 C1501.60728,1045 1507.20118,1042.2961 1510.32725,1038.99138 L1510.32521,1038.99138 Z M985.229065,1044.11015 C989.527707,1037.85523 985.675988,1037.24141 977.182986,1042.82745 C970.603555,1047.15335 970.400205,1048 975.936075,1048 C979.576996,1048 983.758693,1046.24956 985.229065,1044.11015 Z M1558.67382,1048.39659 C1559.82778,1045.64813 1557.89244,1044.49727 1553.30395,1045.20302 C1549.35713,1045.80989 1545.3179,1048.24005 1544.32584,1050.60335 C1543.17262,1053.35187 1545.10796,1054.50273 1549.69644,1053.79698 C1553.64252,1053.19011 1557.68175,1050.75989 1558.67382,1048.39659 Z M950.163927,1049.91636 C954.877222,1049.91636 960.770752,1045.45811 965.935387,1037.98619 C970.470438,1031.42457 975.350519,1026.04542 976.780931,1026.03262 C978.210707,1026.02008 979.380119,1023.65572 979.380119,1020.77916 C979.380119,1017.90255 981.720215,1014.66439 984.579767,1013.58316 C994.742253,1009.74073 989.582073,1006.28053 977.645417,1008.93323 C966.407099,1011.43056 954.115227,1021.69919 937.600234,1042.38624 C930.762645,1050.95111 931.846754,1060.54942 938.870225,1053.62921 C940.942318,1051.58719 946.024835,1049.91636 950.163927,1049.91636 Z M1584,1065.96993 C1584,1060.48647 1583.27826,1056 1582.39621,1056 C1579.08533,1056 1573.41406,1069.56158 1575.41833,1072.68523 C1579.58148,1079.17385 1584,1075.71659 1584,1065.96993 Z M1546.15768,1080.54057 C1551.93204,1074.08383 1551.14935,1070 1544.1379,1070 C1537.8943,1070 1530,1076.72651 1530,1082.04637 C1530,1086.69166 1541.62661,1085.60815 1546.15768,1080.54057 Z M1492.78968,1074.61299 C1493.33335,1074.61299 1494.63481,1072.42677 1495.6812,1069.75475 C1498.96537,1061.36291 1475.93792,1068.374 1469.63068,1077.68586 L1464,1086 L1477.89916,1080.30649 C1485.5441,1077.17512 1492.24467,1074.61299 1492.78968,1074.61299 Z M1066.39981,1081.53927 C1067.83042,1080.67393 1069,1078.38253 1069,1076.4474 C1069,1070.4724 1059.77773,1072.55174 1051.18385,1080.46441 L1043,1088 L1053.40013,1085.55621 C1059.12004,1084.21222 1064.96983,1082.40455 1066.39981,1081.53927 Z M1206.31063,1059.16667 C1209.31971,1050.50817 1208.95978,1050 1199.81798,1050 C1191.90851,1050 1190.14081,1051.40042 1190.14081,1057.66665 C1190.14081,1061.88335 1188.81925,1066.75833 1187.20407,1068.49998 C1185.5883,1070.2417 1183.30692,1076.91667 1182.13367,1083.3333 L1180,1095 L1191.56245,1081.66664 C1197.92186,1074.33333 1204.5586,1064.20835 1206.31063,1059.16667 Z M1154,1089.00998 C1154,1084.99205 1151.83809,1084.14877 1145.82044,1085.82004 C1136.20723,1088.49012 1135.33898,1083.87328 1142.56917,1068.53167 C1148.68236,1055.55966 1148.72682,1053.31447 1142.76145,1058.79209 C1137.53694,1063.59067 1124.32515,1090.14018 1126.17641,1092.12119 C1126.82594,1092.81625 1133.35132,1093.62942 1140.67765,1093.92824 C1150.58709,1094.33253 1153.9982,1093.07319 1153.9982,1089.00998 L1154,1089.00998 Z M1095.46448,1083.86239 C1101.9638,1068.16982 1101.9313,1068 1092.39833,1068 C1087.12815,1068 1080.41537,1072.88328 1073.15334,1081.99997 L1062,1096 L1076.21885,1096 C1089.16396,1096 1090.88756,1094.91304 1095.46448,1083.86239 Z M1021.15565,1088.28578 C1024.9265,1084.93856 1026.91974,1081.18955 1025.58508,1079.95476 C1021.26121,1075.9548 985.320018,1085.38463 978.562549,1092.29179 L972,1099 L993.149876,1096.68581 C1006.23418,1095.25405 1016.91402,1092.0509 1021.15565,1088.28578 Z M933.813909,1103.62364 C941.386714,1102.13897 949.905171,1099.01123 952.744657,1096.67326 C955.584143,1094.33517 960.618351,1091.45021 963.931295,1090.26208 C973.277198,1086.9103 971.370723,1077.44176 961.349715,1077.44176 C955.995653,1077.44176 952.744657,1075.46943 952.744657,1072.22088 C952.744657,1069.34941 951.372322,1067 949.695307,1067 C946.31599,1067 908,1102.50179 908,1105.63298 C908,1107.91323 914.528542,1107.40504 933.813909,1103.62364 Z M910.142035,1088.72571 C921.063947,1078.72475 930,1069.34153 930,1067.87416 C929.999366,1062.60756 896.94631,1082.35415 885.289294,1094.58539 C873.584708,1106.86603 873.528259,1107.07164 881.835763,1106.99113 C887.113419,1106.94002 897.736596,1100.08452 910.142035,1088.72571 Z M1480.40662,1105.81006 C1481.8482,1098.20118 1481.24593,1097.82649 1471.90656,1100.52821 C1466.37849,1102.12767 1460.87856,1103.31131 1459.68464,1103.15844 C1452.80942,1102.27833 1449,1104.30668 1449,1108.84704 C1449,1112.64375 1452.9295,1114 1463.92748,1114 C1476.95243,1114 1479.05258,1112.95604 1480.40662,1105.81006 Z M985.56213,1125.5456 C992.95332,1124.14711 999,1121.39842 999,1119.43753 C999,1115.37948 976.181485,1114.73948 964.062459,1118.45762 C959.627481,1119.81806 956,1122.56178 956,1124.55484 C956,1128.77645 966.608014,1129.13205 985.56213,1125.5456 Z M947,1128.30422 C947,1124.65366 942.484374,1125.56186 941.188095,1129.47319 C940.548781,1131.40192 941.592292,1132.45405 943.513084,1131.81108 C945.43103,1131.16817 947,1129.5901 947,1128.30422 Z M1135.25804,1124.58053 C1140.47541,1112.54633 1139.11461,1111.36829 1123.54253,1114.43822 C1107.9369,1117.51486 1099.65791,1129.67349 1111.86767,1131.5864 C1129.21349,1134.30429 1131.31438,1133.67493 1135.25804,1124.58053 Z M1572,1127.49996 C1572,1123.37505 1571.39603,1120 1570.65841,1120 C1569.9208,1120 1568.4944,1123.37505 1567.48756,1127.49996 C1566.48137,1131.62502 1567.08277,1135 1568.82915,1135 C1570.57296,1135 1572,1131.62502 1572,1127.49996 Z M1547,1132.13221 C1547,1130.02501 1545.65014,1129.36649 1544.00055,1130.66882 C1542.35041,1131.97108 1541,1134.76065 1541,1136.86778 C1541,1138.97498 1542.35041,1139.63349 1544.00055,1138.33123 C1545.65014,1137.0289 1547,1134.23933 1547,1132.13221 Z M1511.38907,1134.11987 C1516.18124,1133.12829 1520.62522,1130.83703 1521.264,1129.02829 C1521.90407,1127.21948 1528.32969,1125.73961 1535.54579,1125.73961 C1547.58351,1125.73961 1548.6889,1124.91738 1548.94813,1115.77175 C1549.22336,1106.02797 1548.88412,1105.86093 1535.38257,1108.34265 C1521.6122,1110.86729 1487.0128,1131.72061 1487,1137.5032 C1487,1139.16871 1490.52164,1139.49445 1494.83441,1138.22705 C1499.14717,1136.95966 1506.59689,1135.11145 1511.38907,1134.11987 Z M1220.84019,1137.07427 C1227.45264,1130.53536 1227.77838,1125.17567 1221.41941,1127.58977 C1218.80545,1128.58174 1215.89627,1132.30741 1214.95457,1135.86894 C1212.87809,1143.72023 1213.90948,1143.93125 1220.84268,1137.07427 L1220.84019,1137.07427 Z M1446.38459,1153.89657 C1474.29655,1144.54256 1481.58405,1139.45151 1461.8816,1143.07126 C1448.55181,1145.5201 1448.12827,1145.30372 1449.7664,1136.87644 C1450.70014,1132.07365 1449.46666,1125.45587 1447.02185,1122.1702 C1443.04383,1116.8197 1441.92047,1117.58957 1436.25937,1129.54844 C1432.78373,1136.89214 1428.89824,1143.68562 1427.62501,1144.64502 C1423.37657,1147.84668 1416.86252,1162.09093 1419.68851,1161.99956 C1421.22043,1161.9483 1433.23333,1158.30368 1446.38459,1153.89657 Z M1551.30073,1175.72855 C1548.67809,1174.6517 1545.54428,1174.78411 1544.3364,1176.02294 C1543.12919,1177.26163 1545.27534,1178.14267 1549.10586,1177.98083 C1553.33877,1177.80146 1554.19964,1176.91863 1551.30073,1175.72862 L1551.30073,1175.72855 Z M957.917132,1176.75078 C978.0613,1174.71315 998.472606,1171.78389 1003.27594,1170.24133 C1008.07864,1168.6987 1024.56041,1168.07427 1039.90124,1168.85364 C1066.91025,1170.2257 1067.53165,1170.08923 1059.51818,1164.54793 C1052.20747,1159.49279 1045.0992,1159.1011 998.578948,1161.18924 C969.614138,1162.48943 944.023453,1165.06689 941.710829,1166.91698 C939.398206,1168.76713 935.427668,1169.89206 932.886985,1169.41694 C930.346302,1168.94207 925.128486,1169.51821 921.291838,1170.69749 C917.454547,1171.87695 908.7095,1173.63552 901.857471,1174.6054 C895.005443,1175.57527 885.587748,1177.85429 880.928548,1179.66992 C870.767098,1183.62963 901.391103,1182.46845 957.917132,1176.75078 Z M1522.34733,1165.41049 C1522.9791,1163.82124 1526.71917,1162.52114 1530.66015,1162.52114 C1534.60239,1162.52114 1536.86475,1161.56249 1535.68903,1160.39073 C1533.66484,1158.37398 1482.14089,1164.65709 1473.44648,1167.98099 C1471.20307,1168.83862 1469.05948,1173.2437 1468.68421,1177.7702 L1468,1186 L1494.60002,1177.14986 C1509.23053,1172.28222 1521.71682,1166.99949 1522.34733,1165.41037 L1522.34733,1165.41049 Z M1219.26713,1181.56624 C1223.55988,1179.14037 1226,1173.87865 1226,1167.04768 C1226,1153.70364 1217.46692,1147.85712 1206.02449,1153.36163 C1199.58441,1156.45998 1195.64966,1155.99215 1187.99431,1151.21763 C1178.75163,1145.45258 1177.87326,1145.49524 1172.31666,1151.97847 C1165.60489,1159.80847 1152.9018,1158.18043 1152.9018,1149.49036 C1152.9018,1145.60364 1150.19382,1146.95454 1144.12452,1153.86894 C1137.3827,1161.54965 1133.14493,1163.41299 1125.85013,1161.90435 C1096.39861,1155.81389 1077.60193,1155.42504 1073.36224,1160.81865 C1069.59242,1165.6149 1072.56698,1166.64769 1096.17103,1168.73755 C1137.89604,1172.43197 1176.91946,1178.09274 1185.33108,1181.67107 C1195.85998,1186.15055 1211.2378,1186.10297 1219.26713,1181.56644 L1219.26713,1181.56624 Z M1459.58152,1181.1066 C1465.61077,1171.27435 1461.21664,1170.64336 1436.6925,1177.8194 C1418.23295,1183.22078 1415.48048,1184.90539 1422.64475,1186.41626 C1439.03258,1189.87232 1455.67308,1187.48024 1459.58152,1181.1066 Z M1395.51338,1179.42761 C1397.21431,1175.26277 1401.16989,1169.87505 1404.3037,1167.45486 C1407.43621,1165.03473 1410,1161.44751 1410,1159.48336 C1410,1157.51915 1403.60781,1161.72145 1395.79513,1168.82171 C1380.53434,1182.69069 1378.45057,1187 1387.0048,1187 C1389.98274,1187 1393.81179,1183.59245 1395.51338,1179.42761 Z M846.829533,1177.17541 C847.494998,1172.66679 851.864439,1167.68508 856.793536,1165.81847 C869.170514,1161.13177 867.763056,1160.11173 851.101151,1161.69434 C843.140863,1162.45038 837.529664,1164.52332 838.633004,1166.30072 C839.736346,1168.07825 838.9125,1169.53254 836.800981,1169.53254 C832.54733,1169.53254 831.535824,1181.34282 835.454746,1185.24624 C839.81487,1189.58876 845.605744,1185.48021 846.829533,1177.17541 Z M801.715119,1192.01581 C803.049786,1190.03801 799.565253,1184.55567 793.973008,1179.83287 C783.866372,1171.29855 783.728235,1171.28055 771.485351,1176.89597 C759.577107,1182.35763 755.757934,1188.60087 761.892996,1192.57577 C767.345158,1196.10806 799.257203,1195.65931 801.715119,1192.0161 L801.715119,1192.01581 Z M1552.70935,1206.45755 C1553.70962,1204.79413 1552.04359,1202.45344 1549.0083,1201.25597 C1545.97235,1200.05849 1544.33366,1197.67184 1545.36842,1195.95236 C1547.82776,1191.86088 1515.13912,1201.98636 1510.50353,1206.75183 C1508.11838,1209.20331 1514.19873,1210.25822 1528.91704,1209.94681 C1541.00291,1209.69126 1551.70974,1208.12097 1552.70935,1206.45755 Z M1588.94047,578.609215 C1584.27699,568.49426 1580.39023,559.406682 1580.30442,558.414652 C1580.21672,557.422558 1576.174,547.918366 1571.31885,537.294238 C1560.82179,514.327736 1552.76891,488.977912 1553.00506,479.646905 C1553.19298,472.140767 1561.68997,467.283245 1561.72317,474.661798 C1561.72317,477.237333 1564.14542,484.085945 1567.08069,489.880865 C1570.01533,495.67585 1577.85648,517.01189 1584.50562,537.294238 C1591.15476,557.576651 1597.62036,574.961541 1598.87377,575.927382 C1601.51714,577.963428 1601.78711,597 1599.16817,597 C1598.20416,597 1593.59956,588.72417 1588.93608,578.609215 L1588.94047,578.609215 Z M1582.03474,701.892666 C1578.08596,696.298327 1574.85513,690.569178 1574.85513,689.161251 C1574.85513,687.75326 1571.33929,683.140096 1567.04301,678.909691 C1554.4449,666.504947 1540.13605,648.559443 1540.13605,645.163373 C1540.13605,643.435271 1537.01171,642.021362 1533.19236,642.021362 C1529.27163,642.021362 1526.24867,639.686609 1526.24867,636.658247 C1526.24867,633.708482 1523.84739,630.365605 1520.91306,629.229551 C1517.9781,628.093562 1513.25078,622.627152 1510.40826,617.082017 C1505.49284,607.493964 1505.60315,607 1512.65333,607 C1520.47119,607 1560.96776,646.41385 1560.96776,654.022443 C1560.96776,656.332049 1565.65427,662.751204 1571.38329,668.2874 C1577.11167,673.823594 1581.79819,680.422263 1581.79819,682.951193 C1581.79819,685.480058 1583.17927,687.549177 1584.86578,687.549177 C1586.55229,687.549177 1588.71892,690.307145 1589.67981,693.677937 C1590.64007,697.048729 1592.55166,702.564599 1593.92828,705.935455 C1597.94975,715.790494 1589.91892,713.060247 1582.03474,701.892666 Z M1467.14923,844.395931 C1464.99263,840.105223 1454.26379,827.699801 1443.30777,816.82839 C1422.29883,795.981136 1420.70861,792.910505 1427.80205,786.887176 C1431.18041,784.018597 1436.28716,787.783639 1449.56533,802.932258 C1479.14838,836.68347 1481,839.208379 1481,845.79335 C1481,854.725314 1471.88005,853.805162 1467.14923,844.395931 Z M1330.49645,1196.21732 C1331.80703,1188.02856 1334.57304,1182.58555 1337.42482,1182.58555 C1340.03518,1182.58555 1345.13585,1179.86278 1348.75949,1176.53493 C1352.38313,1173.20701 1359.41061,1167.67136 1364.3766,1164.23347 C1369.34195,1160.79557 1378.13868,1149.12649 1383.92355,1138.30201 C1405.3757,1098.16318 1413.81668,1084.37761 1417.74398,1083.06915 C1419.95984,1082.33079 1420.8937,1080.30365 1419.81817,1078.56441 C1418.74264,1076.82517 1419.51324,1075.40216 1421.52581,1075.40216 C1423.54092,1075.40216 1425.18947,1073.66083 1425.18947,1071.53254 C1425.18947,1069.4043 1430.51185,1058.90202 1437.01712,1048.19425 C1443.52176,1037.48642 1450.01369,1024.05792 1451.44181,1018.35298 C1454.64489,1005.5601 1474.91479,975.672851 1486.32633,966.916535 C1495.94512,959.536114 1537.91684,898.894541 1536.53701,894.371891 C1536.04149,892.739841 1539.57937,886.23107 1544.40369,879.908161 C1549.22928,873.585189 1553.18263,865.585271 1553.18962,862.130483 C1553.18962,858.675758 1556.5636,850.403559 1560.67196,843.747787 C1564.77968,837.09208 1573.497,821.533183 1580.04357,809.172539 C1586.59013,796.811831 1595.06033,780.864003 1598.8663,773.732879 C1603.75033,764.581599 1608.09947,760.767152 1613.64928,760.767152 C1617.97363,760.767152 1623.47897,758.398196 1625.88288,755.502898 C1629.62531,750.995424 1631.30246,750.916622 1637.54853,754.954267 C1641.56097,757.547945 1650.84877,760.624217 1658.1888,761.790438 C1668.73001,763.465287 1675.65012,768.302384 1691.1262,784.81275 C1701.90246,796.308792 1712.42017,805.714703 1714.50008,805.714703 C1716.57935,805.714703 1721.99321,808.545868 1726.53038,812.006244 C1735.38239,818.757009 1787.73396,833.498674 1802.58237,833.42165 C1811.42103,833.3772 1818.5025,836.646318 1865.47515,862.46798 C1878.37961,869.561831 1890.54332,874.830847 1892.50634,874.176871 C1897.08862,872.650102 1868.82943,830.378144 1846.73882,805.714703 C1837.37034,795.255662 1827.28716,783.846486 1824.32993,780.3609 C1817.0115,771.732535 1803.34089,744.033081 1800.20579,731.480605 C1798.79546,725.832183 1794.93359,716.496819 1791.62441,710.735367 C1788.31524,704.973917 1784.48767,694.814463 1783.11801,688.158693 C1779.43719,670.26678 1762.75536,639.990856 1745.34422,619.602355 C1724.30881,594.969774 1718.70627,586.648743 1703.3617,557.247517 C1696.0547,543.246503 1688.07113,531.021873 1685.62022,530.081771 C1683.16931,529.141733 1681.16373,526.834371 1681.16373,524.954294 C1681.16373,523.07428 1677.94476,517.017177 1674.01047,511.494101 C1670.07554,505.971088 1667.87111,501.452185 1669.11245,501.452185 C1670.35252,501.452185 1666.75302,495.617582 1661.11236,488.486458 C1655.47171,481.355271 1645.63566,465.407443 1639.2549,453.046798 C1632.87414,440.686154 1626.6954,429.794876 1625.52458,428.844041 C1624.35376,427.893271 1622.77381,425.559431 1622.01275,423.657828 C1621.25232,421.756161 1610.1222,404.264356 1597.28,384.787064 C1584.43844,365.309837 1573.93153,348.6853 1573.93153,347.843749 C1573.93153,347.002134 1572.26519,341.933584 1570.22912,336.580303 C1568.19304,331.226959 1566.95424,326.846992 1567.47645,326.846992 C1567.99738,326.846992 1565.38447,323.281398 1561.66617,318.923527 L1554.90615,311 L1550.73807,320.652287 C1548.44661,325.96099 1546.50075,336.189086 1546.41435,343.381295 C1546.32541,350.573506 1544.05619,361.726845 1541.36451,368.166401 C1538.67219,374.605958 1537.37494,380.779517 1538.4816,381.885479 C1539.58826,382.991377 1538.58325,383.896174 1536.25367,383.896174 C1533.92156,383.896174 1532.72215,385.063158 1533.58867,386.489345 C1534.45519,387.915595 1530.67591,398.417816 1525.19026,409.82769 C1519.44415,421.779021 1515.1757,436.435406 1515.12043,444.402939 C1515.0569,452.009479 1512.77307,462.122768 1510.0223,466.876873 C1507.27154,471.630976 1503.90646,477.85451 1502.54505,480.70701 C1501.18364,483.559447 1496.58802,490.56097 1492.33228,496.265907 C1482.91107,508.895786 1466.6987,544.981359 1466.6987,553.321948 C1466.6987,556.65577 1464.44409,561.254302 1461.68698,563.540899 C1458.93049,565.827497 1454.86533,573.408511 1452.65329,580.387554 C1450.44124,587.366599 1445.26688,599.300212 1441.15534,606.906817 C1437.04253,614.513358 1429.85878,632.017101 1425.1901,645.803995 C1420.52143,659.59089 1415.49826,670.8711 1414.02759,670.8711 C1412.55691,670.8711 1411.35306,672.956405 1411.35306,675.505127 C1411.35306,678.053848 1406.90228,689.333995 1401.46237,700.572231 C1396.02246,711.810342 1388.88128,727.228779 1385.59433,734.835382 C1382.30676,742.441923 1376.0143,756.444905 1371.61117,765.95305 C1363.45798,783.562709 1354.43255,806.047818 1354.26483,809.172221 C1354.20131,810.122991 1353.2325,812.456833 1352.08455,814.358499 C1350.9366,816.260166 1348.04035,824.039551 1345.64725,831.646155 C1343.25479,839.252696 1337.25456,854.033603 1332.31335,864.492645 C1327.37213,874.951686 1323.17992,884.286986 1322.99696,885.237819 C1322.81273,886.188653 1320.65785,893.968101 1318.20504,902.525475 C1315.75222,911.082849 1313.06816,921.794489 1312.24039,926.329078 C1311.41198,930.863729 1306.91165,943.652865 1302.23916,954.749563 C1297.56667,965.846133 1293.74292,977.824513 1293.74292,981.3682 C1293.74292,984.911823 1292.57527,988.978106 1291.14907,990.404294 C1289.72159,991.830544 1288.47771,994.034719 1288.38433,995.302476 C1288.28904,996.570233 1286.99497,1001.18286 1285.5046,1005.55286 C1283.87511,1010.32912 1284.33568,1015.35456 1286.65827,1018.15226 C1289.5704,1021.65886 1289.15302,1024.17533 1284.96779,1028.35896 C1279.86712,1033.45742 1279.99862,1033.91156 1286.57823,1033.91156 C1298.44654,1033.91156 1295.93083,1047.47722 1283.60511,1049.9413 C1275.09426,1051.64263 1273.17825,1053.98771 1271.67073,1064.5493 C1270.68287,1071.46904 1270.18608,1081.02036 1270.56661,1085.77446 C1271.15107,1093.09507 1269.803,1094.39743 1261.74638,1094.28199 C1254.6109,1094.17976 1252.09392,1095.90776 1251.674,1101.19703 C1246.65592,1164.3451 1246.71754,1172.21401 1252.23305,1172.29161 C1262.92228,1172.4421 1287.05024,1186.05926 1297.29731,1197.72479 C1306.91737,1208.67626 1318.95975,1214.33643 1325.73057,1211.08872 C1327.15233,1210.40674 1329.29704,1203.71439 1330.49581,1196.217 L1330.49645,1196.21732 Z M1572.83042,1216.36736 C1575.29056,1213.39772 1575.67021,1203.61799 1573.90949,1188.53624 C1572.41656,1175.74723 1571.11182,1161.83141 1571.01049,1157.61212 C1570.70125,1144.65016 1564.73152,1149.10972 1561.8845,1164.43117 C1556.55563,1193.11251 1556.29179,1201.8553 1560.60607,1206.80303 C1566.13299,1213.14093 1559.34146,1218.00236 1544.85239,1218.0792 C1539.43403,1218.10424 1535,1219.43487 1535,1221.02811 C1535,1225.59975 1568.60957,1221.45892 1572.83042,1216.36736 Z M1518.28436,1222.77666 C1515.78021,1220.47838 1510.04795,1220.41054 1500.78042,1222.56933 L1487,1225.77926 L1504.50394,1225.98659 C1516.57089,1226.12966 1520.85126,1225.13241 1518.28436,1222.77666 Z M1564.04599,1252.97249 C1559.89426,1248.24132 1555.94563,1241.64977 1555.27076,1238.32471 C1553.94585,1231.79547 1553.67399,1231.77977 1510.92668,1235.76536 C1483.31748,1238.33952 1470.82728,1239.9517 1462.39331,1242.02972 C1459.53339,1242.73442 1453.29338,1244.25622 1448.52663,1245.41149 C1429.3081,1250.06937 1403.79227,1250.69449 1400.38163,1246.59098 C1395.30036,1240.47855 1400.30523,1234.81878 1412.13774,1233.30486 L1422.52629,1231.97523 L1412.99279,1227.24507 C1405.91366,1223.73248 1403.45993,1219.96225 1403.45993,1212.59786 L1403.45993,1202.68087 L1392.61234,1208.82693 C1386.6461,1212.20724 1375.42415,1218.23131 1367.6746,1222.21379 C1356.12668,1228.14798 1354.59485,1230.02175 1359.18461,1232.59749 C1363.92016,1235.25505 1364.07869,1236.70298 1360.21219,1241.97314 C1356.36798,1247.21191 1350.1267,1248.25651 1321.08308,1248.52291 C1284.04288,1248.863 1278.65919,1247.48913 1278.65919,1237.69946 C1278.65919,1233.47822 1274.9595,1230.513 1267.39267,1228.67089 C1247.85963,1223.91542 1237.05916,1223.92407 1237.05916,1228.69631 C1237.05916,1231.15312 1234.5685,1235.22733 1231.52395,1237.75012 C1226.85588,1241.61787 1225.47049,1241.41298 1222.68505,1236.4433 C1219.04266,1229.94579 1197.36914,1228.12529 1193.72611,1234.01104 C1192.54763,1235.91468 1188.72188,1237.47227 1185.22529,1237.47227 C1181.72869,1237.47227 1178.09012,1239.49542 1177.13958,1241.96812 C1174.89595,1247.80671 1152.39475,1254.69204 1146.8137,1251.24805 C1141.37463,1247.89213 1149.2999,1239.5054 1171.14724,1225.49558 C1188.7257,1214.22327 1185.31951,1210.61323 1162.51462,1216.34661 C1154.15896,1218.44731 1140.99326,1220.16604 1133.25708,1220.16604 C1121.66713,1220.16604 1119.1924,1218.98916 1119.1924,1213.4768 C1119.1924,1205.84715 1123.41288,1204.19822 1151.30477,1200.93036 C1162.29306,1199.64293 1171.99974,1197.43365 1172.87389,1196.02087 C1173.74867,1194.60822 1158.74999,1192.37174 1139.5442,1191.051 C1108.25313,1188.89925 1104.14215,1189.2982 1099.98915,1194.88951 C1095.53882,1200.88033 1095.15873,1200.86641 1090.46329,1194.53989 C1086.03652,1188.57589 1082.24706,1188.13359 1050.52815,1189.87863 C1026.15068,1191.21977 1014.47542,1190.59167 1012.1694,1187.8148 C1008.81542,1183.77586 987.73018,1182.8385 981.849894,1186.46692 C980.092684,1187.55093 971.666354,1188.46452 963.123512,1188.49694 C954.581307,1188.52872 934.33201,1190.85413 918.124933,1193.66304 C901.918493,1196.47195 875.39863,1199.85626 859.191552,1201.18367 C842.985111,1202.51115 828.714785,1204.20337 827.480281,1204.94412 C826.245777,1205.68487 812.205289,1207.08735 796.280256,1208.06063 C765.655144,1209.93236 761.918527,1210.36767 707.83148,1218.36506 C699.617798,1219.57951 692.493458,1219.02507 691.288241,1217.0775 C689.905393,1214.84343 685.482444,1214.94063 678.537646,1217.35783 C672.267718,1219.54029 658.792591,1220.1265 645.693102,1218.78657 C620.43703,1216.20301 601.305726,1222.78444 603.37172,1233.34587 C606.204903,1247.82463 586.470673,1256.28326 572.985997,1246.37009 C566.378633,1241.51222 566.374814,1241.20328 572.756796,1229.26702 C576.33361,1222.58121 581.404051,1216.28971 584.023949,1215.28592 C586.643848,1214.28214 588.787515,1211.18597 588.787515,1208.40567 C588.787515,1201.67893 622.403068,1194.47689 648.755486,1195.55785 C669.734406,1196.41842 695.809236,1189.91054 717.526695,1178.39344 C724.459397,1174.71672 731.833311,1171.70853 733.91204,1171.70853 C735.990768,1171.70853 745.911363,1163.88093 755.957384,1154.31388 C771.633478,1139.38589 775.619034,1137.22524 784.065102,1139.07746 C791.161428,1140.63365 795.615572,1139.45123 800.031518,1134.83937 C807.394608,1127.14978 825.93572,1110.5979 854.693477,1086.0426 C866.398659,1076.04812 882.994742,1060.86192 891.575147,1052.29548 C900.154915,1043.72898 908.988079,1036.72006 911.204328,1036.72006 C916.034108,1036.72006 938.922403,1013.80339 938.922403,1008.96714 C938.922403,1007.09807 940.593662,1005.56884 942.636737,1005.56884 C950.400931,1005.56884 980.522436,965.360944 980.522436,954.99587 C980.522436,948.993983 995.806979,932.882755 1001.50136,932.882755 C1003.3095,932.882755 1004.78912,931.327012 1004.78912,929.425463 C1004.78912,927.523978 1011.15137,919.422342 1018.9283,911.421904 C1026.70459,903.421464 1035.49573,892.127357 1038.46452,886.323927 C1041.43331,880.520499 1045.9906,874.526685 1048.59203,873.004379 C1051.19411,871.482008 1053.32249,868.352151 1053.32249,866.049112 C1053.32249,860.323553 1066.11256,852.81093 1079.04079,850.942373 C1084.91598,850.093178 1092.06261,846.053484 1094.92253,841.96516 C1097.78245,837.876965 1105.2143,829.014238 1111.43712,822.270333 C1117.65993,815.526427 1126.12765,802.610275 1130.25518,793.567716 C1134.38208,784.525286 1139.82051,777.126828 1142.34109,777.126828 C1144.86103,777.126828 1146.92321,775.310523 1146.92321,773.090694 C1146.92321,768.832583 1148.83895,766.400821 1169.65042,744.245052 C1176.80278,736.630276 1189.04531,721.834189 1196.85534,711.364801 C1204.66601,700.895351 1213.91874,689.213673 1217.41724,685.405491 C1220.91575,681.597245 1226.17401,673.80874 1229.10205,668.097674 C1232.0301,662.386608 1236.31616,655.377627 1238.626,652.522125 C1240.93648,649.666561 1246.41248,638.780172 1250.79532,628.330046 C1255.32077,617.539072 1267.52765,599.780627 1279.04756,587.228334 C1290.2033,575.072573 1298.60798,563.958932 1297.72428,562.531468 C1296.84122,561.104067 1302.32168,554.678823 1309.90378,548.253326 C1317.48589,541.827765 1323.69724,535.29236 1323.70616,533.730196 C1323.70616,532.168032 1329.96335,523.50122 1337.59003,514.470612 C1345.21733,505.440004 1351.4567,495.555625 1351.4567,492.505291 C1351.4567,489.45502 1352.82745,486.440155 1354.5019,485.805565 C1359.58316,483.879988 1375.72339,458.121613 1375.72339,451.937924 C1375.72339,448.754226 1380.44494,442.664363 1386.21508,438.404854 C1391.98586,434.145408 1405.63543,417.21181 1416.5486,400.774609 C1427.46176,384.337408 1439.51074,367.496109 1443.32376,363.349495 C1447.13742,359.202754 1456.49711,348.338742 1464.12378,339.207189 C1491.85586,306.003381 1544.86757,257.87489 1553.57085,258.000244 C1562.25886,258.125472 1573.96276,275.776806 1580.38167,298.43412 C1589.17345,329.470287 1604.80307,360.722899 1628.50248,394.65951 C1639.1387,409.888998 1650.18429,426.521605 1653.0493,431.620836 C1655.91432,436.720069 1662.77699,448.40181 1668.29947,457.580148 C1673.82194,466.758485 1685.15786,486.130456 1693.48996,500.628795 C1701.82206,515.127261 1711.90437,530.702809 1715.89439,535.241251 C1728.98878,550.13288 1759.60498,591.701365 1766.5848,604.064674 C1770.34561,610.727595 1778.32118,624.424797 1784.30779,634.502927 C1790.29376,644.580996 1795.19867,653.926388 1795.20695,655.270325 C1795.27061,658.767982 1822.69009,712.499221 1826.30447,716.115367 C1828.02348,717.835431 1833.54595,716.166221 1839.12509,712.242918 C1844.51515,708.4512 1852.40349,704.270895 1856.65517,702.953338 C1860.90686,701.635654 1864.02654,699.092331 1863.58851,697.301389 C1863.14921,695.510447 1866.57131,692.100831 1871.18908,689.724499 C1889.48062,680.313315 1907.83009,642.810903 1900.14675,630.542501 C1897.43263,626.209572 1896.8157,623.502818 1893.51774,601.468781 C1891.69177,589.261467 1892.28197,586.758509 1896.9876,586.758509 C1900.51284,586.758509 1902.71699,589.705929 1902.81186,594.546315 C1902.99649,604.066708 1910.73012,634.043846 1913.78423,637.093608 C1919.4506,642.751214 1956.18902,577.988718 1959.60411,556.321972 C1959.99248,553.859507 1962.81739,548.920654 1965.88296,545.346716 C1974.75177,535.004273 1978.92578,525.595567 1978.92578,515.944862 C1978.92578,509.439906 1981.43745,506.025331 1988.07346,503.506164 C1993.10443,501.596352 1997.71965,500.531855 1998.32958,501.140638 C2000.132,502.939907 2010.11753,542.744721 2010.22258,548.546689 C2010.28625,551.478216 2015.09438,558.549365 2020.93137,564.260431 L2031.54339,574.64413 L2027.07079,564.260431 C2024.61069,558.549365 2019.79173,549.742323 2016.36199,544.689241 C2007.48108,531.605145 2008.34058,524.456126 2018.7928,524.456126 C2023.74164,524.456126 2027.45915,526.45328 2027.45915,529.111532 C2027.45915,531.672018 2030.75838,536.734063 2034.79105,540.36057 C2041.50728,546.401487 2048.55204,559.177028 2049.87759,567.721665 C2051.72648,579.632692 2063.70415,597.551517 2074.1118,603.973264 C2089.05127,613.192349 2134.84569,662.676347 2135.05515,669.82829 C2135.13792,672.683855 2141.77457,683.16176 2149.80043,693.112694 C2196.06471,750.471331 2207.76926,763.331543 2229.41414,780.588062 C2256.99597,802.577283 2269.74083,814.532617 2277.05999,825.28151 C2279.91991,829.481711 2290.90184,841.781515 2301.46356,852.61457 C2312.02528,863.447625 2324.52885,876.983684 2329.24785,882.69475 C2338.89023,894.361617 2361.47419,912.115294 2366.67387,912.115294 C2368.54887,912.115294 2370.60277,913.283468 2371.23816,914.711251 C2373.12971,918.959762 2401.15975,939.805285 2404.98168,939.805285 C2408.61389,939.805285 2447.40749,970.866242 2474.2234,995.245464 C2482.56314,1002.82699 2492.1221,1009.03013 2495.46589,1009.03013 C2498.80969,1009.03013 2503.42173,1011.28677 2505.71437,1014.04495 C2508.0064,1016.80307 2515.6076,1020.94288 2522.60524,1023.24458 C2529.60289,1025.54622 2539.22807,1029.97158 2543.99481,1033.07874 C2572.39731,1051.59294 2586.40278,1057.41741 2646.26188,1075.60919 C2665.32824,1081.40385 2685.01472,1089.00349 2690.00877,1092.4974 C2695.00344,1095.99137 2702.80328,1100.44266 2707.34211,1102.38922 C2711.88156,1104.33577 2717.93503,1107.3704 2720.79559,1109.1328 C2736.94473,1119.08482 2778.10992,1137.70943 2786.0562,1138.65944 C2791.15593,1139.26905 2796.6071,1139.9456 2798.17013,1140.16268 C2805.13976,1141.13087 2798.10646,1155.81317 2789.29431,1158.73555 C2781.57149,1161.29158 2775.40662,1159.72249 2756.36063,1150.35351 C2743.47315,1144.01377 2732.40528,1137.64885 2731.76605,1136.20918 C2731.12621,1134.76957 2729.19645,1134.46 2727.47617,1135.52119 C2725.75652,1136.58238 2722.37963,1135.81805 2719.97237,1133.82319 C2714.33402,1129.15049 2668.67458,1105.77074 2661.86157,1104.06783 C2641.06729,1098.87033 2594.17397,1084.68385 2576.92785,1078.37328 C2565.48816,1074.18713 2550.81674,1069.1931 2544.3246,1067.27541 C2525.69755,1061.77303 2488.9464,1041.17586 2471.0254,1026.19512 C2462.00951,1018.65808 2451.46753,1012.49137 2447.60102,1012.49137 C2440.84469,1012.49137 2428.58497,1007.842 2394.88728,992.500506 C2376.56964,984.161191 2329.81512,939.117169 2300.67154,901.731595 C2289.54064,887.453962 2279.28515,874.666788 2277.88066,873.315668 C2276.47616,871.964547 2269.86689,865.612851 2263.19331,859.20083 C2256.52037,852.788744 2247.18106,842.212501 2242.43914,835.698009 C2237.69785,829.183645 2218.19728,807.806574 2199.10609,788.193557 C2156.37278,744.293999 2147.21746,733.402843 2127.2483,702.71013 C2118.57749,689.384352 2102.32839,669.060653 2091.13827,657.546348 C2079.94816,646.032107 2063.49342,628.509559 2054.57239,618.607382 C2045.65073,608.705205 2035.9014,600.603504 2032.90587,600.603504 C2029.91033,600.603504 2027.45915,599.295864 2027.45915,597.697848 C2027.45915,596.099706 2023.79894,593.12686 2019.32506,591.091502 L2011.18968,587.390875 L2012.02118,696.969124 C2012.47958,757.23723 2013.97257,813.923454 2015.34205,822.938614 C2017.7684,838.913618 2011.8289,882.805421 2006.38473,889.128258 C2003.726,892.216034 2014.56149,927.4374 2020.28961,934.329035 C2022.08693,936.490701 2027.85771,938.614798 2033.11406,939.04909 C2038.37041,939.483253 2043.90435,941.778218 2045.41198,944.148576 C2046.91962,946.518932 2048.17704,947.27519 2048.20633,945.829165 C2048.27,943.27065 2062.82364,949.818705 2105.45954,971.568279 C2148.57102,993.560234 2165.03595,1001.05302 2186.92659,1008.64377 C2241.90815,1027.70808 2268.49296,1037.86592 2279.36792,1043.96462 C2285.79702,1047.57002 2299.99795,1051.5138 2310.92575,1052.72863 C2330.70646,1054.92761 2387.10844,1078.87266 2404.9282,1092.63668 C2409.47594,1096.14883 2415.41162,1099.02244 2418.11874,1099.02244 C2420.8265,1099.02244 2430.36573,1102.36144 2439.31795,1106.44245 C2464.31298,1117.83712 2499.3273,1129.40845 2512.78397,1130.72143 C2519.45118,1131.37197 2527.8081,1134.79678 2531.355,1138.33226 C2537.22892,1144.18661 2537.31614,1145.24761 2532.33483,1150.22085 C2527.88133,1154.66788 2525.39959,1154.92151 2518.96348,1151.58723 C2514.61694,1149.33549 2500.42492,1146.03495 2487.42411,1144.25278 C2474.42394,1142.47061 2461.94394,1139.57818 2459.69075,1137.82512 C2454.06004,1133.44407 2415.7274,1116.35162 2415.7274,1118.22183 C2415.7274,1119.05246 2433.27785,1128.5199 2454.72727,1139.26066 C2476.17797,1150.00148 2493.72779,1158.45363 2493.72779,1158.0433 C2493.72779,1156.53008 2514.64431,1162.36428 2517.99447,1164.812 C2519.90131,1166.20494 2527.64767,1168.46005 2535.20813,1169.82331 C2542.76923,1171.18658 2553.68939,1174.82503 2559.47481,1177.90874 C2565.26087,1180.99251 2571.22775,1183.17426 2572.73474,1182.75714 C2577.78418,1181.35999 2589.06151,1189.2031 2589.06151,1194.11138 C2589.06151,1197.50059 2584.86395,1198.9067 2575.14645,1198.77282 C2567.49304,1198.6673 2560.5406,1197.46544 2559.69637,1196.10186 C2558.85278,1194.73822 2551.47696,1193.36103 2543.30657,1193.04135 C2535.13554,1192.72161 2522.97833,1190.8364 2516.28947,1188.85177 C2471.02412,1175.42123 2451.5503,1167.86087 2420.9271,1151.82923 C2401.86073,1141.84753 2376.82749,1129.08044 2365.29803,1123.45799 C2353.76857,1117.83553 2341.43691,1110.03743 2337.89383,1106.12887 C2334.3514,1102.22032 2328.1063,1099.02244 2324.01697,1099.02244 C2319.927,1099.02244 2315.09849,1097.55188 2313.28716,1095.75458 C2304.89394,1087.4262 2231.93026,1050.56499 2223.83754,1050.56499 C2219.40186,1050.56499 2185.3451,1037.6735 2163.86957,1027.86452 C2157.86132,1025.12032 2151.11898,1022.87506 2148.88681,1022.87506 C2146.65465,1022.87506 2138.31045,1019.0972 2130.34379,1014.47981 C2116.80755,1006.63384 2102.30547,1002.49219 2083.79301,1001.18518 C2079.50313,1000.8826 2075.99316,999.581699 2075.99316,998.295035 C2075.99316,997.008309 2070.68333,994.961063 2064.19439,993.745532 C2057.70481,992.530065 2051.51383,989.241671 2050.43658,986.437914 C2049.3587,983.634155 2046.08813,981.340143 2043.16836,981.340143 C2040.24859,981.340143 2037.85916,980.095498 2037.85916,978.574272 C2037.85916,977.052982 2032.5627,973.896045 2026.08968,971.558871 C2019.61538,969.221632 2009.35671,962.983468 2003.29115,957.696203 C1997.22623,952.409003 1985.36252,946.048662 1976.92855,943.562105 C1968.49394,941.075611 1961.59244,937.902083 1961.59244,936.509835 C1961.59244,932.381718 1933.87818,925.330783 1911.91815,923.87198 C1888.4333,922.311979 1867.93824,917.073344 1826.39169,902.010846 C1810.18525,896.13514 1796.1454,891.39322 1795.19167,891.473251 C1790.86995,891.836219 1767.45831,879.599283 1767.45831,876.977265 C1767.45831,875.362658 1765.30955,874.041668 1762.68265,874.041668 C1760.05638,874.041668 1755.78942,871.493451 1753.20072,868.378976 C1741.17147,853.907845 1704.8297,839.38624 1688.33039,842.458315 C1685.8028,842.928713 1678.49701,839.324643 1672.09466,834.449041 C1650.25814,817.819613 1649.20891,819.663061 1650.04486,873.176328 C1650.90309,928.08197 1649.30568,938.345909 1636.50861,960.147608 C1631.36686,968.908056 1627.6468,978.947793 1628.24272,982.458099 C1628.84119,985.968342 1626.6224,990.813878 1623.31871,993.225934 C1619.86414,995.747645 1617.12901,1002.61207 1616.88325,1009.37797 C1616.64768,1015.84949 1615.25019,1023.07352 1613.77694,1025.43129 C1612.30305,1027.78906 1610.23323,1037.13445 1609.17636,1046.19875 C1608.11949,1055.26312 1605.77909,1069.68842 1603.97667,1078.25498 C1602.17362,1086.82155 1599.49706,1106.3813 1598.02763,1121.72114 C1596.55883,1137.06098 1594.086,1151.66497 1592.53189,1154.17447 C1590.97905,1156.68398 1589.5319,1179.50104 1589.31607,1204.87909 C1588.95953,1246.71385 1588.27766,1251.50924 1581.99118,1256.25084 C1572.96829,1263.05678 1572.87661,1263.03995 1564.04344,1252.97357 L1564.04599,1252.97249 Z"/>
  </g>
</svg>
